{"glyphs":{"0":{"ha":1081,"x_min":0,"x_max":0,"o":"m 540 592 b 607 564 568 592 590 582 b 632 486 625 544 632 518 l 632 400 b 608 322 632 367 625 342 b 540 294 592 304 569 294 b 474 322 513 294 490 304 b 447 400 456 342 447 367 l 447 485 b 472 563 447 518 456 543 b 540 592 490 582 513 592 m 594 393 l 594 494 b 581 543 594 515 589 532 b 540 561 571 556 558 561 b 501 543 524 561 511 556 b 489 494 493 532 489 515 l 489 393 b 503 343 489 372 493 356 b 542 325 511 332 525 325 b 581 343 558 325 571 332 b 593 393 589 356 593 372 m 1011 822 b 1011 150 1011 599 1011 374 b 861 1 1011 57 954 1 b 218 1 647 1 433 1 b 69 149 126 1 71 57 b 69 488 69 261 69 374 b 69 821 69 599 69 710 b 222 972 71 917 125 972 b 860 972 435 972 647 972 b 1011 822 954 972 1011 917 m 217 803 b 349 933 217 886 265 935 b 714 935 471 935 592 933 b 774 942 733 935 754 939 b 224 949 589 949 407 949 b 93 819 140 949 94 903 b 93 206 93 615 93 410 b 93 179 93 197 93 189 b 100 178 96 179 97 179 b 199 285 133 213 168 247 b 215 326 208 294 215 313 b 217 803 217 485 217 644 m 831 304 b 832 553 831 388 831 471 b 832 808 832 638 832 724 b 738 908 832 867 794 907 b 336 908 603 910 471 910 b 240 807 278 907 240 867 b 240 301 240 639 240 469 b 342 201 240 240 279 201 b 729 201 471 201 600 201 b 831 304 793 201 831 239 "},"1":{"ha":1082,"x_min":0,"x_max":0,"o":"m 489 582 l 592 592 l 592 299 l 553 299 l 553 551 l 489 551 m 1011 822 b 1011 150 1013 599 1013 374 b 861 1 1011 57 954 1 b 218 1 647 1 433 1 b 69 149 128 1 71 58 b 69 488 69 261 69 375 b 69 821 69 599 69 710 b 222 972 69 917 126 972 b 860 972 435 972 647 972 b 1011 822 954 972 1011 917 m 217 803 b 349 933 217 886 265 935 b 714 935 469 935 592 933 b 772 942 733 935 753 939 b 224 949 589 949 407 949 b 93 819 139 949 93 903 b 93 206 93 615 93 410 b 93 179 93 197 93 189 b 100 178 96 179 99 179 b 199 285 133 213 168 247 b 215 326 208 294 215 313 b 217 803 217 485 217 644 m 831 304 b 832 553 831 388 831 471 b 832 808 832 638 832 724 b 738 908 832 867 796 907 b 336 908 604 910 471 910 b 242 807 278 907 242 867 b 242 301 242 639 242 469 b 342 201 242 240 281 201 b 729 201 471 201 600 201 b 831 304 793 201 831 239 "},"2":{"ha":1082,"x_min":0,"x_max":0,"o":"m 500 329 l 632 329 l 632 299 l 451 299 l 451 325 l 543 432 b 575 479 558 453 569 468 b 585 514 582 492 585 503 b 572 547 585 528 579 539 b 540 560 565 556 554 560 b 501 544 524 560 510 556 b 488 506 492 533 488 521 l 450 506 l 449 507 b 472 567 449 531 457 550 b 540 592 489 583 511 592 b 601 569 567 592 586 585 b 624 514 617 556 624 538 b 611 469 624 499 619 485 b 572 415 603 456 589 436 l 499 329 m 1011 822 b 1011 150 1013 599 1013 374 b 861 1 1011 57 954 1 b 218 1 647 1 433 1 b 69 149 128 1 71 58 b 69 488 69 261 69 375 b 69 821 69 599 69 710 b 222 972 69 917 126 972 b 860 972 435 972 647 972 b 1011 822 954 972 1011 917 m 217 803 b 349 933 217 886 265 935 b 714 935 469 935 592 933 b 772 942 733 935 753 939 b 224 949 589 949 407 949 b 93 819 139 949 93 903 b 93 206 93 615 93 410 b 93 179 93 197 93 189 b 100 178 96 179 99 179 b 199 285 133 213 168 247 b 215 326 208 294 215 313 b 217 803 217 485 217 644 m 831 304 b 832 553 831 388 831 471 b 832 808 832 638 832 724 b 738 908 832 867 796 907 b 336 908 604 910 471 910 b 242 807 278 907 242 867 b 242 301 242 639 242 469 b 342 201 242 240 281 201 b 729 201 471 201 600 201 b 831 304 793 201 831 239 "},"3":{"ha":1081,"x_min":0,"x_max":0,"o":"m 588 449 b 621 421 601 443 613 435 b 632 378 628 410 632 394 b 607 315 632 351 622 331 b 542 293 590 300 568 293 b 476 315 517 293 494 300 b 450 372 457 329 449 349 l 450 374 l 488 374 b 503 338 488 360 492 347 b 542 324 513 328 526 324 b 579 339 558 324 571 329 b 593 378 589 349 593 363 b 581 419 593 396 589 410 b 540 432 572 428 558 432 l 508 432 l 508 463 l 539 463 b 576 475 557 463 569 467 b 588 513 583 485 588 497 b 576 547 588 526 583 539 b 540 561 568 557 557 561 b 503 547 525 561 513 557 b 489 511 493 538 489 526 l 451 511 l 450 513 b 475 569 450 536 457 553 b 540 592 492 585 514 592 b 604 572 568 592 589 586 b 628 513 619 558 628 539 b 617 475 628 499 624 486 b 588 449 610 464 600 454 m 1011 822 b 1011 150 1011 599 1011 374 b 863 1 1011 57 956 1 b 219 1 647 1 433 1 b 71 149 128 1 71 58 b 71 488 69 261 71 375 b 71 821 71 599 71 710 b 222 972 71 917 126 972 b 861 972 435 972 649 972 b 1011 822 956 972 1011 917 m 217 803 b 349 933 217 886 265 935 b 714 935 471 935 592 933 b 774 942 733 935 754 939 b 224 949 589 949 407 949 b 94 819 140 949 94 903 b 94 206 94 615 94 410 b 94 179 94 197 94 189 b 101 178 96 179 99 179 b 200 285 133 213 168 247 b 217 326 210 294 217 313 b 217 803 217 485 217 644 m 831 304 b 832 553 831 388 831 471 b 832 808 832 638 832 724 b 738 908 832 867 794 907 b 336 908 603 910 471 910 b 240 807 278 907 240 867 b 240 301 240 639 240 469 b 342 201 240 240 279 201 b 729 201 471 201 600 201 b 831 304 793 201 831 239 "},"4":{"ha":1081,"x_min":0,"x_max":0,"o":"m 603 396 l 643 396 l 643 365 l 603 365 l 603 299 l 564 299 l 564 365 l 440 365 l 440 388 l 561 589 l 603 589 m 564 396 l 564 532 l 563 532 l 558 522 l 481 396 m 1011 822 b 1011 150 1011 599 1011 374 b 863 1 1011 57 956 1 b 219 1 647 1 433 1 b 71 149 128 1 71 58 b 71 488 69 261 71 375 b 71 821 71 599 71 710 b 222 972 71 917 126 972 b 861 972 435 972 649 972 b 1011 822 956 972 1011 917 m 217 803 b 349 933 217 886 265 935 b 714 935 471 935 592 933 b 774 942 733 935 754 939 b 224 949 589 949 407 949 b 94 819 140 949 94 903 b 94 206 94 615 94 410 b 94 179 94 197 94 189 b 101 178 96 179 99 179 b 200 285 133 213 168 247 b 217 326 210 294 217 313 b 217 803 217 485 217 644 m 831 304 b 832 553 831 388 831 471 b 832 808 832 638 832 724 b 738 908 832 867 794 907 b 336 908 603 910 471 910 b 240 807 278 907 240 867 b 240 301 240 639 240 469 b 342 201 240 240 279 201 b 729 201 471 201 600 201 b 831 304 793 201 831 239 "},"5":{"ha":1081,"x_min":0,"x_max":0,"o":"m 543 486 b 607 461 569 486 590 478 b 629 392 622 444 629 421 b 607 321 629 363 622 339 b 539 294 590 304 568 294 b 476 315 514 294 493 301 b 454 374 461 328 453 347 l 454 375 l 490 375 b 503 339 490 360 494 347 b 539 326 513 331 524 326 b 578 343 556 326 568 332 b 590 392 586 354 590 371 b 576 436 590 410 586 425 b 538 453 567 447 554 453 b 504 446 522 453 511 451 b 489 425 496 442 492 435 l 456 429 l 472 589 l 618 589 l 618 554 l 506 554 l 496 471 b 517 482 503 475 508 479 b 543 486 525 485 533 486 m 1011 822 b 1011 150 1011 599 1011 374 b 863 1 1011 57 956 1 b 219 1 647 1 433 1 b 71 149 128 1 71 58 b 71 488 69 261 71 375 b 71 821 71 599 71 710 b 222 972 71 917 126 972 b 861 972 435 972 649 972 b 1011 822 956 972 1011 917 m 217 803 b 349 933 217 886 265 935 b 714 935 471 935 592 933 b 774 942 733 935 754 939 b 224 949 589 949 407 949 b 94 819 140 949 94 903 b 94 206 94 615 94 410 b 94 179 94 197 94 189 b 101 178 96 179 99 179 b 200 285 133 213 168 247 b 217 326 210 294 217 313 b 217 803 217 485 217 644 m 831 304 b 832 553 832 388 831 471 b 832 808 832 638 832 724 b 738 908 832 867 794 907 b 336 908 603 910 471 910 b 240 807 278 907 240 867 b 240 301 240 639 240 469 b 342 201 240 240 279 201 b 729 201 471 201 600 201 b 831 304 793 201 831 239 "},"6":{"ha":1081,"x_min":0,"x_max":0,"o":"m 551 483 b 611 458 576 483 596 475 b 633 392 625 442 633 419 b 608 321 633 363 625 339 b 543 294 592 303 569 294 b 475 325 515 294 493 304 b 449 408 457 346 449 374 l 449 475 b 478 560 449 510 458 538 b 549 592 496 581 519 592 b 582 589 560 592 571 590 b 610 581 593 586 603 585 l 601 550 b 578 558 594 554 586 557 b 549 561 569 561 560 561 b 504 539 531 561 515 554 b 488 479 493 522 488 503 l 488 457 b 515 476 494 465 504 472 b 551 483 526 481 539 483 m 581 343 b 594 393 589 356 593 372 b 579 438 594 411 589 426 b 539 454 569 449 557 454 b 508 446 528 454 517 451 b 488 425 499 440 492 433 l 488 404 b 504 346 488 381 493 361 b 543 325 515 332 528 325 b 581 343 558 325 572 331 m 1011 822 b 1011 150 1011 599 1011 374 b 861 1 1011 57 954 1 b 218 1 647 1 433 1 b 69 149 128 1 71 58 b 69 488 69 261 69 375 b 69 821 69 599 69 710 b 222 972 69 917 126 972 b 860 972 435 972 647 972 b 1011 822 954 972 1011 917 m 217 803 b 349 933 217 886 265 935 b 714 935 469 935 592 933 b 772 942 733 935 753 939 b 224 949 589 949 407 949 b 93 819 139 949 93 903 b 93 206 93 615 93 410 b 93 179 93 197 93 189 b 100 178 96 179 99 179 b 199 285 133 213 168 247 b 215 326 208 294 215 313 b 217 803 217 485 217 644 m 831 304 b 831 553 831 388 831 471 b 831 808 831 638 832 724 b 738 908 831 867 794 907 b 336 908 603 910 469 910 b 240 807 276 907 240 867 b 240 301 240 639 240 469 b 342 201 240 240 279 201 b 729 201 471 201 599 201 b 831 304 792 201 831 239 "},"7":{"ha":1082,"x_min":0,"x_max":0,"o":"m 444 588 l 636 588 l 636 557 b 563 442 600 514 575 475 b 543 329 550 408 543 371 l 543 299 l 504 299 l 504 329 b 528 449 504 374 511 413 b 599 557 544 483 568 519 l 444 557 m 1011 822 b 1011 150 1013 599 1013 374 b 861 1 1011 57 954 1 b 218 1 647 1 433 1 b 69 149 128 1 71 58 b 69 488 69 261 69 375 b 69 821 69 599 69 710 b 222 972 69 917 126 972 b 860 972 435 972 647 972 b 1011 822 954 972 1011 917 m 217 803 b 349 933 217 886 265 935 b 714 935 469 935 592 933 b 772 942 733 935 753 939 b 224 949 589 949 407 949 b 93 819 139 949 93 903 b 93 206 93 615 93 410 b 93 179 93 197 93 189 b 100 178 96 179 99 179 b 199 285 133 213 168 247 b 215 326 208 294 215 313 b 217 803 217 485 217 644 m 831 304 b 832 553 831 388 831 471 b 832 808 832 638 832 724 b 738 908 832 867 796 907 b 336 908 604 910 471 910 b 242 807 278 907 242 867 b 242 301 242 639 242 469 b 342 201 242 240 281 201 b 729 201 471 201 600 201 b 831 304 793 201 831 239 "},"8":{"ha":1082,"x_min":0,"x_max":0,"o":"m 581 449 b 621 421 597 443 611 433 b 635 378 631 408 635 394 b 608 315 635 351 626 329 b 543 294 592 301 569 294 b 472 315 514 294 490 300 b 446 378 456 331 446 351 b 461 421 446 394 450 408 b 501 449 471 433 485 443 b 467 474 488 454 476 463 b 454 514 458 485 454 499 b 479 572 454 539 463 558 b 543 592 496 586 517 592 b 603 572 567 592 588 586 b 626 514 618 558 626 539 b 614 474 626 499 622 485 b 581 449 606 463 594 454 m 494 514 b 507 478 494 499 499 488 b 543 464 517 469 528 464 b 575 478 556 464 567 469 b 588 514 583 488 588 499 b 575 549 588 528 583 539 b 543 561 567 557 556 561 b 507 549 528 561 517 558 b 494 514 499 540 494 529 m 582 339 b 597 378 592 350 596 363 b 582 417 597 394 593 407 b 544 433 572 428 558 433 b 503 417 528 433 514 426 b 486 378 492 407 486 394 b 501 339 486 363 492 349 b 543 325 513 329 526 325 b 582 339 558 325 571 329 m 1011 822 b 1011 150 1013 599 1013 374 b 861 1 1011 57 954 1 b 218 1 647 1 433 1 b 69 149 128 1 71 58 b 69 488 69 261 69 375 b 69 821 69 599 69 710 b 222 972 69 917 126 972 b 860 972 435 972 647 972 b 1011 822 954 972 1011 917 m 217 803 b 349 933 217 886 265 935 b 714 935 469 935 592 933 b 772 942 733 935 753 939 b 224 949 589 949 407 949 b 93 819 139 949 93 903 b 93 206 93 615 93 410 b 93 179 93 197 93 189 b 100 178 96 179 99 179 b 199 285 133 213 168 247 b 215 326 208 294 215 313 b 217 803 217 485 217 644 m 831 304 b 832 553 831 388 831 471 b 832 808 832 638 832 724 b 738 908 832 867 796 907 b 336 908 604 910 471 910 b 242 807 278 907 242 867 b 242 301 242 639 242 469 b 342 201 242 240 281 201 b 729 201 471 201 600 201 b 831 304 793 201 831 239 "},"9":{"ha":1082,"x_min":0,"x_max":0,"o":"m 536 592 b 607 565 565 592 589 583 b 633 489 624 547 633 521 l 633 400 b 604 322 633 367 624 342 b 531 294 585 304 560 294 b 499 297 519 294 510 296 b 469 307 489 300 478 303 l 475 338 b 500 328 483 333 492 329 b 531 325 510 326 519 325 b 576 344 549 325 564 332 b 593 400 588 357 593 376 l 593 425 b 569 403 586 415 579 407 b 538 396 560 397 549 396 b 472 421 510 396 488 404 b 449 493 457 439 449 463 b 474 565 449 522 457 546 b 536 592 490 583 511 592 m 593 493 b 579 543 593 515 589 532 b 538 561 569 556 556 561 b 501 543 524 561 511 556 b 488 493 492 531 488 514 b 501 444 488 474 492 457 b 539 426 510 432 524 426 b 574 436 553 426 564 431 b 593 460 582 442 589 450 m 1011 822 b 1011 150 1013 599 1013 374 b 861 1 1011 57 954 1 b 218 1 647 1 433 1 b 69 149 128 1 71 58 b 69 488 69 261 69 375 b 69 821 69 599 69 710 b 222 972 69 917 126 972 b 860 972 435 972 647 972 b 1011 822 954 972 1011 917 m 217 803 b 349 933 217 886 265 935 b 714 935 469 935 592 933 b 772 942 733 935 753 939 b 224 949 589 949 407 949 b 93 819 139 949 93 903 b 93 206 93 615 93 410 b 93 179 93 197 93 189 b 100 178 96 179 99 179 b 199 285 133 213 168 247 b 215 326 208 294 215 313 b 217 803 217 485 217 644 m 831 304 b 832 553 831 388 831 471 b 832 808 832 638 832 724 b 738 908 832 867 796 907 b 336 908 604 910 471 910 b 242 807 278 907 242 867 b 242 301 242 639 242 469 b 342 201 242 240 281 201 b 729 201 471 201 600 201 b 831 304 793 201 831 239 "},"\u0000":{"ha":0,"x_min":0,"x_max":0,"o":""},"\n":{"ha":0,"x_min":0,"x_max":0,"o":""}," ":{"ha":540,"x_min":0,"x_max":0,"o":""},"!":{"ha":1082,"x_min":0,"x_max":0,"o":"m 521 394 l 521 589 l 560 589 l 560 394 m 521 299 l 521 339 l 560 339 l 560 299 m 1011 822 b 1011 150 1013 599 1013 374 b 861 1 1011 57 954 1 b 218 1 647 1 433 1 b 69 149 128 1 71 58 b 69 488 69 261 69 375 b 69 821 69 599 69 710 b 222 972 69 917 126 972 b 860 972 435 972 647 972 b 1011 822 954 972 1011 917 m 217 803 b 349 933 217 886 265 935 b 714 935 469 935 592 933 b 772 942 733 935 753 939 b 224 949 589 949 407 949 b 93 819 139 949 93 903 b 93 206 93 615 93 410 b 93 179 93 197 93 189 b 100 178 96 179 99 179 b 199 285 133 213 168 247 b 215 326 208 294 215 313 b 217 803 217 485 217 644 m 831 304 b 832 553 831 388 831 471 b 832 808 832 638 832 724 b 738 908 832 867 796 907 b 336 908 604 910 471 910 b 242 807 278 907 242 867 b 242 301 242 639 242 469 b 342 201 242 240 281 201 b 729 201 471 201 600 201 b 831 304 793 201 831 239 "},"\"":{"ha":1081,"x_min":0,"x_max":0,"o":"m 508 589 l 528 589 l 528 481 l 488 481 l 488 518 m 574 589 l 593 589 l 593 481 l 554 481 l 554 518 m 1011 822 b 1011 150 1011 599 1011 374 b 861 1 1011 57 954 1 b 218 1 647 1 433 1 b 69 149 128 1 71 58 b 69 488 69 261 69 375 b 69 821 69 599 69 710 b 222 972 69 917 126 972 b 860 972 435 972 647 972 b 1011 822 954 972 1011 917 m 217 803 b 349 933 217 886 265 935 b 714 935 469 935 592 933 b 772 942 733 935 753 939 b 224 949 589 949 407 949 b 93 819 139 949 93 903 b 93 206 93 615 93 410 b 93 179 93 197 93 189 b 100 178 96 179 99 179 b 199 285 133 213 168 247 b 215 326 208 294 215 313 b 217 803 217 485 217 644 m 831 304 b 831 553 831 388 831 471 b 831 808 831 638 832 724 b 738 908 831 867 794 907 b 336 908 603 910 469 910 b 240 807 276 907 240 867 b 240 301 240 639 240 469 b 342 201 240 240 279 201 b 729 201 471 201 599 201 b 831 304 792 201 831 239 "},"#":{"ha":1081,"x_min":0,"x_max":0,"o":"m 611 506 l 651 506 l 651 478 l 606 478 l 593 407 l 636 407 l 636 381 l 586 381 l 571 299 l 540 299 l 557 381 l 506 381 l 490 299 l 460 299 l 476 381 l 429 381 l 429 407 l 482 407 l 496 478 l 444 478 l 444 506 l 501 506 l 518 589 l 547 589 l 531 506 l 582 506 l 599 589 l 628 589 m 576 478 l 525 478 l 511 407 l 563 407 m 1011 822 b 1011 150 1011 599 1011 374 b 861 1 1011 57 954 1 b 218 1 647 1 433 1 b 69 149 128 1 71 58 b 69 488 69 261 69 375 b 69 821 69 599 69 710 b 222 972 69 917 126 972 b 860 972 435 972 647 972 b 1011 822 954 972 1011 917 m 217 803 b 349 933 217 886 265 935 b 714 935 469 935 592 933 b 772 942 733 935 753 939 b 224 949 589 949 407 949 b 93 819 139 949 93 903 b 93 206 93 615 93 410 b 93 179 93 197 93 189 b 100 178 96 179 99 179 b 199 285 133 213 168 247 b 215 326 208 294 215 313 b 217 803 217 485 217 644 m 831 304 b 831 553 831 388 831 471 b 831 808 831 638 832 724 b 738 908 831 867 794 907 b 336 908 603 910 469 910 b 240 807 276 907 240 867 b 240 301 240 639 240 469 b 342 201 240 240 279 201 b 729 201 471 201 599 201 b 831 304 792 201 831 239 "},"$":{"ha":1082,"x_min":0,"x_max":0,"o":"m 554 460 b 613 428 581 451 601 440 b 632 375 625 415 632 397 b 613 319 632 351 625 333 b 556 296 599 307 579 299 l 556 258 l 525 258 l 525 296 b 468 321 501 299 483 307 b 447 383 454 335 447 356 l 449 385 l 486 385 b 501 342 486 364 492 350 b 540 328 513 333 525 328 b 581 340 557 328 571 332 b 594 374 590 349 594 360 b 582 404 594 386 590 396 b 540 426 574 413 560 421 b 479 460 514 435 493 446 b 460 513 467 472 460 490 b 478 567 460 536 465 553 b 529 592 490 581 508 589 l 529 636 l 561 636 l 561 590 b 613 564 583 589 601 579 b 632 503 625 549 632 528 l 593 503 b 579 543 593 519 588 533 b 546 560 572 554 560 560 b 510 547 529 560 518 556 b 499 514 501 539 499 528 b 510 482 499 501 501 490 b 554 460 518 475 533 468 m 1011 822 b 1011 150 1013 599 1013 374 b 861 1 1011 57 954 1 b 218 1 647 1 433 1 b 69 149 128 1 71 58 b 69 488 69 261 69 375 b 69 821 69 599 69 710 b 222 972 69 917 126 972 b 860 972 435 972 647 972 b 1011 822 954 972 1011 917 m 217 803 b 349 933 217 886 265 935 b 714 935 469 935 592 933 b 772 942 733 935 753 939 b 224 949 589 949 407 949 b 93 819 139 949 93 903 b 93 206 93 615 93 410 b 93 179 93 197 93 189 b 100 178 96 179 99 179 b 199 285 133 213 168 247 b 215 326 208 294 215 313 b 217 803 217 485 217 644 m 831 304 b 832 553 831 388 831 471 b 832 808 832 638 832 724 b 738 908 832 867 796 907 b 336 908 604 910 471 910 b 242 807 278 907 242 867 b 242 301 242 639 242 469 b 342 201 242 240 281 201 b 729 201 471 201 600 201 b 831 304 793 201 831 239 "},"%":{"ha":1082,"x_min":0,"x_max":0,"o":"m 514 475 b 471 458 504 464 489 458 b 428 475 453 458 439 464 b 411 518 417 488 411 500 l 411 533 b 428 576 411 550 417 565 b 471 593 438 588 453 593 b 514 576 489 593 503 588 b 531 533 525 565 531 550 l 531 518 b 514 475 531 500 525 486 m 447 492 b 471 481 453 485 461 482 b 493 492 481 481 488 483 b 501 517 499 499 501 507 l 501 532 b 493 558 501 542 499 551 b 471 568 488 565 481 568 b 447 558 460 568 453 565 b 439 532 442 550 439 542 l 439 517 b 447 492 439 507 442 499 m 611 429 b 656 413 629 429 643 424 b 672 369 667 400 672 386 l 672 354 b 656 311 672 336 667 322 b 613 294 644 300 631 294 b 568 311 593 294 579 300 b 551 354 557 322 551 336 l 551 369 b 568 413 551 386 557 401 b 611 429 578 424 593 429 m 642 369 b 633 394 642 381 638 388 b 611 406 628 401 621 406 b 588 394 601 406 593 401 b 579 369 583 388 579 379 l 579 354 b 588 328 579 343 583 335 b 611 318 593 322 601 318 b 633 328 621 318 628 322 b 642 354 639 335 642 344 m 622 547 l 481 319 l 460 333 l 601 560 m 1011 822 b 1011 150 1013 599 1013 374 b 861 1 1011 57 954 1 b 218 1 647 1 433 1 b 69 149 128 1 71 58 b 69 488 69 261 69 375 b 69 821 69 599 69 710 b 222 972 69 917 126 972 b 860 972 435 972 647 972 b 1011 822 954 972 1011 917 m 217 803 b 349 933 217 886 265 935 b 714 935 469 935 592 933 b 772 942 733 935 753 939 b 224 949 589 949 407 949 b 93 819 139 949 93 903 b 93 206 93 615 93 410 b 93 179 93 197 93 189 b 100 178 96 179 99 179 b 199 285 133 213 168 247 b 215 326 208 294 215 313 b 217 803 217 485 217 644 m 831 304 b 832 553 831 388 831 471 b 832 808 832 638 832 724 b 738 908 832 867 796 907 b 336 908 604 910 471 910 b 242 807 278 907 242 867 b 242 301 242 639 242 469 b 342 201 242 240 281 201 b 729 201 471 201 600 201 b 831 304 793 201 831 239 "},"&":{"ha":1081,"x_min":0,"x_max":0,"o":"m 642 383 b 621 343 638 368 629 356 l 657 299 l 611 299 l 593 318 b 558 300 583 311 571 306 b 518 294 544 297 532 294 b 450 318 489 294 467 303 b 424 376 432 333 424 353 b 438 419 424 393 428 407 b 481 456 447 432 461 444 b 457 492 469 469 463 481 b 450 522 451 501 450 511 b 469 575 450 546 456 563 b 522 592 482 586 500 592 b 572 575 543 592 560 586 b 592 531 586 563 592 549 b 582 497 592 518 589 507 b 551 468 575 488 564 478 l 529 453 l 597 371 b 610 400 603 379 607 389 b 615 432 613 410 615 421 l 650 432 b 642 383 650 415 647 399 m 497 550 b 489 522 492 543 489 533 b 493 500 489 515 490 508 b 510 475 497 493 503 485 l 538 494 b 553 511 544 500 550 504 b 557 531 556 517 557 522 b 547 551 557 539 554 546 b 522 561 540 558 532 561 b 497 550 511 561 503 558 m 547 329 b 574 344 557 333 565 338 l 501 431 l 493 425 b 469 399 482 415 474 407 b 464 376 465 390 464 383 b 478 339 464 361 468 349 b 519 325 488 329 501 325 b 547 329 529 325 539 326 m 1011 822 b 1011 150 1011 599 1011 374 b 863 1 1011 57 956 1 b 219 1 647 1 433 1 b 71 149 128 1 71 58 b 71 488 69 261 71 375 b 71 821 71 599 71 710 b 222 972 71 917 126 972 b 861 972 435 972 649 972 b 1011 822 956 972 1011 917 m 217 803 b 349 933 217 886 265 935 b 714 935 471 935 592 933 b 774 942 733 935 754 939 b 224 949 589 949 407 949 b 94 819 140 949 94 903 b 94 206 94 615 94 410 b 94 179 94 197 94 189 b 101 178 96 179 99 179 b 200 285 133 213 168 247 b 217 326 210 294 217 313 b 217 803 217 485 217 644 m 831 304 b 832 553 831 388 831 471 b 832 808 832 638 832 724 b 738 908 832 867 794 907 b 336 908 603 910 471 910 b 240 807 278 907 240 867 b 240 301 240 639 240 469 b 342 201 240 240 279 201 b 729 201 471 201 600 201 b 831 304 793 201 831 239 "},"'":{"ha":1081,"x_min":0,"x_max":0,"o":"m 542 589 l 561 589 l 560 517 l 560 481 l 521 481 l 521 518 m 1011 822 b 1011 150 1011 599 1011 374 b 863 1 1011 57 956 1 b 219 1 647 1 433 1 b 71 149 128 1 71 58 b 71 488 69 261 71 375 b 71 821 71 599 71 710 b 222 972 71 917 126 972 b 861 972 435 972 649 972 b 1011 822 956 972 1011 917 m 217 803 b 349 933 217 886 265 935 b 714 935 471 935 592 933 b 774 942 733 935 754 939 b 224 949 589 949 407 949 b 94 819 140 949 94 903 b 94 206 94 615 94 410 b 94 179 94 197 94 189 b 101 178 96 179 99 179 b 200 285 133 213 168 247 b 217 326 210 294 217 313 b 217 803 217 485 217 644 m 831 304 b 832 553 832 388 831 471 b 832 808 832 638 832 724 b 738 908 832 867 794 907 b 336 908 603 910 471 910 b 240 807 278 907 240 867 b 240 301 240 639 240 469 b 342 201 240 240 279 201 b 729 201 471 201 600 201 b 831 304 793 201 831 239 "},"(":{"ha":1081,"x_min":0,"x_max":0,"o":"m 546 532 b 526 417 533 501 526 463 l 526 414 b 546 299 526 368 533 329 b 594 228 560 267 576 244 l 586 207 l 585 207 b 518 281 563 219 539 244 b 488 414 497 317 488 363 l 488 415 b 518 550 488 468 497 513 b 585 624 539 586 563 611 l 586 624 l 594 600 b 546 532 575 586 560 564 m 1011 822 b 1011 150 1011 599 1011 374 b 861 1 1011 57 954 1 b 218 1 647 1 433 1 b 69 149 128 1 71 58 b 69 488 69 261 69 375 b 69 821 69 599 69 710 b 222 972 69 917 126 972 b 860 972 435 972 647 972 b 1011 822 954 972 1011 917 m 217 803 b 349 933 217 886 265 935 b 714 935 469 935 592 933 b 772 942 733 935 753 939 b 224 949 589 949 407 949 b 93 819 139 949 93 903 b 93 206 93 615 93 410 b 93 179 93 197 93 189 b 100 178 96 179 99 179 b 199 285 133 213 168 247 b 215 326 208 294 215 313 b 217 803 217 485 217 644 m 831 304 b 831 553 831 388 831 471 b 831 808 831 638 832 724 b 738 908 831 867 794 907 b 336 908 603 910 469 910 b 240 807 276 907 240 867 b 240 301 240 639 240 469 b 342 201 240 240 279 201 b 729 201 471 201 599 201 b 831 304 792 201 831 239 "},")":{"ha":1082,"x_min":0,"x_max":0,"o":"m 496 625 b 563 550 519 611 542 588 b 594 415 583 513 594 468 l 594 414 b 563 281 594 363 583 317 b 496 207 540 243 519 219 l 494 207 l 488 228 b 535 297 506 242 521 265 b 554 414 547 329 554 368 l 554 417 b 533 532 554 461 547 500 b 488 603 519 565 504 588 l 494 625 l 496 625 m 1011 822 b 1011 150 1013 599 1013 374 b 861 1 1011 57 954 1 b 218 1 647 1 433 1 b 69 149 128 1 71 58 b 69 488 69 261 69 375 b 69 821 69 599 69 710 b 222 972 69 917 126 972 b 860 972 435 972 647 972 b 1011 822 954 972 1011 917 m 217 803 b 349 933 217 886 265 935 b 714 935 469 935 592 933 b 772 942 733 935 753 939 b 224 949 589 949 407 949 b 93 819 139 949 93 903 b 93 206 93 615 93 410 b 93 179 93 197 93 189 b 100 178 96 179 99 179 b 199 285 133 213 168 247 b 215 326 208 294 215 313 b 217 803 217 485 217 644 m 831 304 b 832 553 831 388 831 471 b 832 808 832 638 832 724 b 738 908 832 867 796 907 b 336 908 604 910 471 910 b 242 807 278 907 242 867 b 242 301 242 639 242 469 b 342 201 242 240 281 201 b 729 201 471 201 600 201 b 831 304 793 201 831 239 "},"*":{"ha":1082,"x_min":0,"x_max":0,"o":"m 611 449 l 563 435 l 593 394 l 567 376 l 539 419 l 513 378 l 486 396 l 517 436 l 469 450 l 481 481 l 526 463 l 525 514 l 557 514 l 556 463 l 601 479 m 1011 822 b 1011 150 1013 599 1013 374 b 861 1 1011 57 954 1 b 218 1 647 1 433 1 b 69 149 128 1 71 58 b 69 488 69 261 69 375 b 69 821 69 599 69 710 b 222 972 69 917 126 972 b 860 972 435 972 647 972 b 1011 822 954 972 1011 917 m 217 803 b 349 933 217 886 265 935 b 714 935 469 935 592 933 b 772 942 733 935 753 939 b 224 949 589 949 407 949 b 93 819 139 949 93 903 b 93 206 93 615 93 410 b 93 179 93 197 93 189 b 100 178 96 179 99 179 b 199 285 133 213 168 247 b 215 326 208 294 215 313 b 217 803 217 485 217 644 m 831 304 b 832 553 831 388 831 471 b 832 808 832 638 832 724 b 738 908 832 867 796 907 b 336 908 604 910 471 910 b 242 807 278 907 242 867 b 242 301 242 639 242 469 b 342 201 242 240 281 201 b 729 201 471 201 600 201 b 831 304 793 201 831 239 "},"+":{"ha":1081,"x_min":0,"x_max":0,"o":"m 560 454 l 640 454 l 640 419 l 560 419 l 560 328 l 521 328 l 521 419 l 440 419 l 440 454 l 521 454 l 521 539 l 560 539 m 1011 822 b 1011 150 1011 599 1011 374 b 861 1 1011 57 954 1 b 218 1 647 1 433 1 b 69 149 128 1 71 58 b 69 488 69 261 69 375 b 69 821 69 599 69 710 b 222 972 69 917 126 972 b 860 972 435 972 647 972 b 1011 822 954 972 1011 917 m 217 803 b 349 933 217 886 265 935 b 714 935 469 935 592 933 b 772 942 733 935 753 939 b 224 949 589 949 407 949 b 93 819 139 949 93 903 b 93 206 93 615 93 410 b 93 179 93 197 93 189 b 100 178 96 179 99 179 b 199 285 133 213 168 247 b 215 326 208 294 215 313 b 217 803 217 485 217 644 m 831 304 b 831 553 831 388 831 471 b 831 808 831 638 832 724 b 738 908 831 867 794 907 b 336 908 603 910 469 910 b 240 807 276 907 240 867 b 240 301 240 639 240 469 b 342 201 240 240 279 201 b 729 201 471 201 599 201 b 831 304 792 201 831 239 "},",":{"ha":1082,"x_min":0,"x_max":0,"o":"m 528 343 l 568 343 l 568 308 l 538 247 l 514 247 l 528 310 m 1011 822 b 1011 150 1013 599 1013 374 b 861 1 1011 57 954 1 b 218 1 647 1 433 1 b 69 149 128 1 71 58 b 69 488 69 261 69 375 b 69 821 69 599 69 710 b 222 972 69 917 126 972 b 860 972 435 972 647 972 b 1011 822 954 972 1011 917 m 217 803 b 349 933 217 886 265 935 b 714 935 469 935 592 933 b 772 942 733 935 753 939 b 224 949 589 949 407 949 b 93 819 139 949 93 903 b 93 206 93 615 93 410 b 93 179 93 197 93 189 b 100 178 96 179 99 179 b 199 285 133 213 168 247 b 215 326 208 294 215 313 b 217 803 217 485 217 644 m 831 304 b 832 553 831 388 831 471 b 832 808 832 638 832 724 b 738 908 832 867 796 907 b 336 908 604 910 471 910 b 242 807 278 907 242 867 b 242 301 242 639 242 469 b 342 201 242 240 281 201 b 729 201 471 201 600 201 b 831 304 793 201 831 239 "},"-":{"ha":1081,"x_min":0,"x_max":0,"o":"m 482 406 l 482 436 l 599 436 l 599 406 m 1011 822 b 1011 150 1011 599 1011 374 b 861 1 1011 57 954 1 b 218 1 647 1 433 1 b 69 149 128 1 71 58 b 69 488 69 261 69 375 b 69 821 69 599 69 710 b 222 972 69 917 126 972 b 860 972 435 972 647 972 b 1011 822 954 972 1011 917 m 217 803 b 349 933 217 886 265 935 b 714 935 469 935 592 933 b 772 942 733 935 753 939 b 224 949 589 949 407 949 b 93 819 139 949 93 903 b 93 206 93 615 93 410 b 93 179 93 197 93 189 b 100 178 96 179 99 179 b 199 285 133 213 168 247 b 215 326 208 294 215 313 b 217 803 217 485 217 644 m 831 304 b 832 553 831 388 831 471 b 832 808 832 638 832 724 b 738 908 832 867 796 907 b 336 908 604 910 471 910 b 242 807 278 907 242 867 b 242 301 242 639 242 469 b 342 201 242 240 281 201 b 729 201 471 201 600 201 b 831 304 793 201 831 239 "},".":{"ha":1082,"x_min":0,"x_max":0,"o":"m 521 299 l 521 339 l 560 339 l 560 299 m 1011 822 b 1011 150 1013 599 1013 374 b 861 1 1011 57 954 1 b 218 1 647 1 433 1 b 69 149 128 1 71 58 b 69 488 69 261 69 375 b 69 821 69 599 69 710 b 222 972 69 917 126 972 b 860 972 435 972 647 972 b 1011 822 954 972 1011 917 m 217 803 b 349 933 217 886 265 935 b 714 935 469 935 592 933 b 772 942 733 935 753 939 b 224 949 589 949 407 949 b 93 819 139 949 93 903 b 93 206 93 615 93 410 b 93 179 93 197 93 189 b 100 178 96 179 99 179 b 199 285 133 213 168 247 b 215 326 208 294 215 313 b 217 803 217 485 217 644 m 831 304 b 832 553 831 388 831 471 b 832 808 832 638 832 724 b 738 908 832 867 796 907 b 336 908 604 910 471 910 b 242 807 278 907 242 867 b 242 301 242 639 242 469 b 342 201 242 240 281 201 b 729 201 471 201 600 201 b 831 304 793 201 831 239 "},"/":{"ha":1081,"x_min":0,"x_max":0,"o":"m 585 589 l 617 589 l 497 274 l 463 274 m 1011 822 b 1011 150 1011 599 1011 374 b 861 1 1011 57 954 1 b 218 1 647 1 433 1 b 69 149 128 1 71 58 b 69 488 69 261 69 375 b 69 821 69 599 69 710 b 222 972 69 917 126 972 b 860 972 435 972 647 972 b 1011 822 954 972 1011 917 m 217 803 b 349 933 217 886 265 935 b 714 935 469 935 592 933 b 772 942 733 935 753 939 b 224 949 589 949 407 949 b 93 819 139 949 93 903 b 93 206 93 615 93 410 b 93 179 93 197 93 189 b 100 178 96 179 99 179 b 199 285 133 213 168 247 b 215 326 208 294 215 313 b 217 803 217 485 217 644 m 831 304 b 831 553 831 388 831 471 b 831 808 831 638 832 724 b 738 908 831 867 794 907 b 336 908 603 910 469 910 b 240 807 276 907 240 867 b 240 301 240 639 240 469 b 342 201 240 240 279 201 b 729 201 471 201 599 201 b 831 304 792 201 831 239 "},":":{"ha":1081,"x_min":0,"x_max":0,"o":"m 521 299 l 521 339 l 560 339 l 560 299 m 521 472 l 521 513 l 560 513 l 560 472 m 1011 822 b 1011 150 1011 599 1011 374 b 861 1 1011 57 954 1 b 218 1 647 1 433 1 b 69 149 128 1 71 58 b 69 488 69 261 69 375 b 69 821 69 599 69 710 b 222 972 69 917 126 972 b 860 972 435 972 647 972 b 1011 822 954 972 1011 917 m 217 803 b 349 933 217 886 265 935 b 714 935 469 935 592 933 b 772 942 733 935 753 939 b 224 949 589 949 407 949 b 93 819 139 949 93 903 b 93 206 93 615 93 410 b 93 179 93 197 93 189 b 100 178 96 179 99 179 b 199 285 133 213 168 247 b 215 326 208 294 215 313 b 217 803 217 485 217 644 m 831 304 b 831 553 831 388 831 471 b 831 808 831 638 832 724 b 738 908 831 867 794 907 b 336 908 603 910 469 910 b 240 807 276 907 240 867 b 240 301 240 639 240 469 b 342 201 240 240 279 201 b 729 201 471 201 599 201 b 831 304 792 201 831 239 "},";":{"ha":1082,"x_min":0,"x_max":0,"o":"m 526 472 l 526 513 l 565 513 l 565 472 m 528 343 l 567 343 l 567 308 l 538 247 l 514 247 l 528 310 m 1011 822 b 1011 150 1013 599 1013 374 b 861 1 1011 57 954 1 b 218 1 647 1 433 1 b 69 149 128 1 71 58 b 69 488 69 261 69 375 b 69 821 69 599 69 710 b 222 972 69 917 126 972 b 860 972 435 972 647 972 b 1011 822 954 972 1011 917 m 217 803 b 349 933 217 886 265 935 b 714 935 469 935 592 933 b 772 942 733 935 753 939 b 224 949 589 949 407 949 b 93 819 139 949 93 903 b 93 206 93 615 93 410 b 93 179 93 197 93 189 b 100 178 96 179 99 179 b 199 285 133 213 168 247 b 215 326 208 294 215 313 b 217 803 217 485 217 644 m 831 304 b 832 553 831 388 831 471 b 832 808 832 638 832 724 b 738 908 832 867 796 907 b 336 908 604 910 471 910 b 242 807 278 907 242 867 b 242 301 242 639 242 469 b 342 201 242 240 281 201 b 729 201 471 201 600 201 b 831 304 793 201 831 239 "},"<":{"ha":1081,"x_min":0,"x_max":0,"o":"m 460 425 l 622 500 l 622 460 l 511 414 l 493 410 l 511 406 l 622 360 l 622 319 l 460 394 m 1011 822 b 1011 150 1011 599 1011 374 b 863 1 1011 57 956 1 b 219 1 647 1 433 1 b 71 149 128 1 71 58 b 71 488 69 261 71 375 b 71 821 71 599 71 710 b 222 972 71 917 126 972 b 861 972 435 972 649 972 b 1011 822 956 972 1011 917 m 217 803 b 349 933 217 886 265 935 b 714 935 471 935 592 933 b 774 942 733 935 754 939 b 224 949 589 949 407 949 b 94 819 140 949 94 903 b 94 206 94 615 94 410 b 94 179 94 197 94 189 b 101 178 96 179 99 179 b 200 285 133 213 168 247 b 217 326 210 294 217 313 b 217 803 217 485 217 644 m 831 304 b 832 553 831 388 831 471 b 832 808 832 638 832 724 b 738 908 832 867 794 907 b 336 908 603 910 471 910 b 240 807 278 907 240 867 b 240 301 240 639 240 469 b 342 201 240 240 279 201 b 729 201 471 201 600 201 b 831 304 793 201 831 239 "},"=":{"ha":1081,"x_min":0,"x_max":0,"o":"m 457 379 l 457 413 l 624 413 l 624 379 m 457 463 l 457 494 l 624 494 l 624 463 m 1011 822 b 1011 150 1011 599 1011 374 b 861 1 1011 57 954 1 b 218 1 647 1 433 1 b 69 149 128 1 71 58 b 69 488 69 261 69 375 b 69 821 69 599 69 710 b 222 972 69 917 126 972 b 860 972 435 972 647 972 b 1011 822 954 972 1011 917 m 217 803 b 349 933 217 886 265 935 b 714 935 469 935 592 933 b 772 942 733 935 753 939 b 224 949 589 949 407 949 b 93 819 139 949 93 903 b 93 206 93 615 93 410 b 93 179 93 197 93 189 b 100 178 96 179 99 179 b 199 285 133 213 168 247 b 215 326 208 294 215 313 b 217 803 217 485 217 644 m 831 304 b 831 553 831 388 831 471 b 831 808 831 638 832 724 b 738 908 831 867 794 907 b 336 908 603 910 469 910 b 240 807 276 907 240 867 b 240 301 240 639 240 469 b 342 201 240 240 279 201 b 729 201 471 201 599 201 b 831 304 792 201 831 239 "},">":{"ha":1081,"x_min":0,"x_max":0,"o":"m 456 496 l 625 421 l 625 392 l 456 315 l 456 354 l 575 403 l 592 406 l 592 407 l 575 411 l 456 458 m 1011 822 b 1011 150 1011 599 1011 374 b 861 1 1011 57 954 1 b 218 1 647 1 433 1 b 69 149 128 1 71 58 b 69 488 69 261 69 375 b 69 821 69 599 69 710 b 222 972 69 917 126 972 b 860 972 435 972 647 972 b 1011 822 954 972 1011 917 m 217 803 b 349 933 217 886 265 935 b 714 935 469 935 592 933 b 772 942 733 935 753 939 b 224 949 589 949 407 949 b 93 819 139 949 93 903 b 93 206 93 615 93 410 b 93 179 93 197 93 189 b 100 178 96 179 99 179 b 199 285 133 213 168 247 b 215 326 208 294 215 313 b 217 803 217 485 217 644 m 831 304 b 832 553 831 388 831 471 b 832 808 832 638 832 724 b 738 908 832 867 796 907 b 336 908 604 910 471 910 b 242 807 278 907 242 867 b 242 301 242 639 242 469 b 342 201 242 240 281 201 b 729 201 471 201 600 201 b 831 304 793 201 831 239 "},"?":{"ha":1081,"x_min":0,"x_max":0,"o":"m 517 299 l 517 339 l 557 339 l 557 299 m 540 592 b 600 572 567 592 586 586 b 622 517 614 560 622 540 b 607 469 622 500 617 483 b 569 426 597 456 586 442 b 557 407 564 419 558 413 b 556 381 556 401 556 392 l 517 381 b 521 421 517 400 518 413 b 547 450 525 428 533 438 b 575 485 560 465 569 478 b 583 515 581 493 583 503 b 572 547 583 529 579 540 b 540 558 565 556 554 558 b 510 549 528 558 518 556 b 497 519 501 542 497 532 l 460 519 l 458 521 b 481 572 458 543 465 560 b 540 592 497 586 517 592 m 1011 822 b 1011 150 1011 599 1011 374 b 861 1 1011 57 954 1 b 218 1 647 1 433 1 b 69 149 128 1 71 58 b 69 488 69 261 69 375 b 69 821 69 599 69 710 b 222 972 69 917 126 972 b 860 972 435 972 647 972 b 1011 822 954 972 1011 917 m 217 803 b 349 933 217 886 265 935 b 714 935 469 935 592 933 b 772 942 733 935 753 939 b 224 949 589 949 407 949 b 93 819 139 949 93 903 b 93 206 93 615 93 410 b 93 179 93 197 93 189 b 100 178 96 179 99 179 b 199 285 133 213 168 247 b 215 326 208 294 215 313 b 217 803 217 485 217 644 m 831 304 b 831 553 831 388 831 471 b 831 808 831 638 832 724 b 738 908 831 867 794 907 b 336 908 603 910 469 910 b 240 807 276 907 240 867 b 240 301 240 639 240 469 b 342 201 240 240 279 201 b 729 201 471 201 599 201 b 831 304 792 201 831 239 "},"@":{"ha":1082,"x_min":0,"x_max":0,"o":"m 549 583 b 664 532 599 583 638 567 b 701 397 692 499 703 454 b 676 324 700 368 692 344 b 611 293 663 304 640 293 b 586 301 601 293 593 296 b 571 325 579 307 574 315 b 547 300 565 314 557 306 b 514 293 538 296 526 293 b 475 317 496 293 483 300 b 464 379 465 332 461 353 b 492 463 467 414 476 442 b 547 493 507 483 525 493 b 581 489 561 493 572 492 b 608 472 589 485 599 481 l 607 472 l 608 472 l 599 356 b 603 325 597 342 599 331 b 619 317 607 319 613 317 b 658 339 635 317 649 325 b 675 397 668 354 674 374 b 646 517 676 449 667 488 b 547 558 625 544 593 558 b 449 513 507 558 474 543 b 408 393 424 482 411 442 b 439 275 407 343 417 304 b 535 231 460 246 492 231 b 569 236 546 231 558 232 b 601 247 582 239 593 242 l 608 226 b 575 213 600 221 588 217 b 535 208 561 210 547 208 b 418 258 485 208 446 225 b 381 393 390 290 378 336 b 429 531 382 450 399 494 b 549 583 460 565 500 583 m 578 464 b 567 468 575 465 571 467 b 556 469 564 468 560 469 b 517 447 539 469 526 461 b 500 382 508 433 503 411 b 504 338 499 363 500 347 b 525 324 508 328 515 324 b 549 328 533 324 542 325 b 568 346 556 332 563 338 b 568 351 568 347 568 349 b 568 357 568 353 568 354 m 1011 822 b 1011 150 1013 599 1013 374 b 861 1 1011 57 954 1 b 218 1 647 1 433 1 b 69 149 128 1 71 58 b 69 488 69 261 69 375 b 69 821 69 599 69 710 b 222 972 69 917 126 972 b 860 972 435 972 647 972 b 1011 822 954 972 1011 917 m 217 803 b 349 933 217 886 265 935 b 714 935 469 935 592 933 b 772 942 733 935 753 939 b 224 949 589 949 407 949 b 93 819 139 949 93 903 b 93 206 93 615 93 410 b 93 179 93 197 93 189 b 100 178 96 179 99 179 b 199 285 133 213 168 247 b 215 326 208 294 215 313 b 217 803 217 485 217 644 m 831 304 b 832 553 831 388 831 471 b 832 808 832 638 832 724 b 738 908 832 867 796 907 b 336 908 604 910 471 910 b 242 807 278 907 242 867 b 242 301 242 639 242 469 b 342 201 242 240 281 201 b 729 201 471 201 600 201 b 831 304 793 201 831 239 "},"A":{"ha":1081,"x_min":0,"x_max":0,"o":"m 558 589 l 661 299 l 621 299 l 596 374 l 486 374 l 461 299 l 421 299 l 525 589 m 583 406 l 542 531 l 540 531 l 497 406 m 1011 822 b 1011 150 1011 599 1011 374 b 861 1 1011 57 954 1 b 218 1 647 1 433 1 b 69 149 126 1 71 57 b 69 488 69 261 69 374 b 69 821 69 599 69 710 b 222 972 71 917 125 972 b 860 972 435 972 647 972 b 1011 822 954 972 1011 917 m 217 803 b 349 933 217 886 265 935 b 714 935 471 935 592 933 b 774 942 733 935 754 939 b 224 949 589 949 407 949 b 93 819 140 949 94 903 b 93 206 93 615 93 410 b 93 179 93 197 93 189 b 100 178 96 179 97 179 b 199 285 133 213 168 247 b 215 326 208 294 215 313 b 217 803 217 485 217 644 m 831 304 b 832 553 831 388 831 471 b 832 808 832 638 832 724 b 738 908 832 867 794 907 b 336 908 603 910 471 910 b 240 807 278 907 240 867 b 240 301 240 639 240 469 b 342 201 240 240 279 201 b 729 201 471 201 600 201 b 831 304 793 201 831 239 "},"B":{"ha":1081,"x_min":0,"x_max":0,"o":"m 585 454 b 631 429 603 451 618 443 b 647 381 642 415 647 399 b 621 319 647 354 638 333 b 550 299 604 306 579 299 l 436 299 l 436 589 l 529 589 b 601 569 560 589 583 582 b 626 510 618 556 626 536 b 615 476 626 497 622 486 b 585 454 607 467 597 460 m 475 464 l 538 464 b 574 476 553 464 565 468 b 588 510 583 485 588 496 b 572 546 588 526 582 538 b 529 557 563 553 549 557 l 475 557 m 592 343 b 607 381 601 351 607 364 b 592 419 607 396 601 410 b 550 435 582 429 568 433 l 475 435 l 475 329 l 550 329 b 592 343 568 329 582 333 m 1011 822 b 1011 150 1011 599 1011 374 b 861 1 1011 57 954 1 b 218 1 647 1 433 1 b 69 149 128 1 71 58 b 69 488 69 261 69 375 b 69 821 69 599 69 710 b 222 972 69 917 126 972 b 860 972 435 972 647 972 b 1011 822 954 972 1011 917 m 217 803 b 349 933 217 886 265 935 b 714 935 469 935 592 933 b 772 942 733 935 753 939 b 224 949 589 949 407 949 b 93 819 139 949 93 903 b 93 206 93 615 93 410 b 93 179 93 197 93 189 b 100 178 96 179 99 179 b 199 285 133 213 168 247 b 215 326 208 294 215 313 b 217 803 217 485 217 644 m 831 304 b 832 553 831 388 831 471 b 832 808 832 638 832 724 b 738 908 832 867 796 907 b 336 908 604 910 471 910 b 242 807 278 907 242 867 b 242 301 242 639 242 469 b 342 201 242 240 281 201 b 729 201 471 201 600 201 b 831 304 793 201 831 239 "},"C":{"ha":1082,"x_min":0,"x_max":0,"o":"m 490 536 b 471 469 478 518 471 496 l 471 417 b 490 351 471 392 478 368 b 543 325 503 335 521 325 b 593 343 564 325 582 332 b 611 392 606 356 611 371 l 649 392 l 650 390 b 621 322 650 364 640 342 b 543 294 601 304 575 294 b 463 329 510 294 485 307 b 432 418 443 353 432 382 l 432 469 b 463 558 432 504 443 535 b 543 593 483 581 510 593 b 622 567 576 593 603 585 b 650 497 642 549 651 526 l 650 496 l 613 496 b 594 543 613 517 606 532 b 543 561 582 556 565 561 b 490 536 521 561 504 553 m 1011 822 b 1011 150 1013 599 1013 374 b 861 1 1011 57 954 1 b 218 1 647 1 433 1 b 69 149 128 1 71 58 b 69 488 69 261 69 375 b 69 821 69 599 69 710 b 222 972 69 917 126 972 b 860 972 435 972 647 972 b 1011 822 954 972 1011 917 m 217 803 b 349 933 217 886 265 935 b 714 935 469 935 592 933 b 772 942 733 935 753 939 b 224 949 589 949 407 949 b 93 819 139 949 93 903 b 93 206 93 615 93 410 b 93 179 93 197 93 189 b 100 178 96 179 99 179 b 199 285 133 213 168 247 b 215 326 208 294 215 313 b 217 803 217 485 217 644 m 831 304 b 832 553 831 388 831 471 b 832 808 832 638 832 724 b 738 908 832 867 796 907 b 336 908 604 910 471 910 b 242 807 278 907 242 867 b 242 301 242 639 242 469 b 342 201 242 240 281 201 b 729 201 471 201 600 201 b 831 304 793 201 831 239 "},"D":{"ha":1082,"x_min":0,"x_max":0,"o":"m 524 589 b 614 553 561 589 592 576 b 649 463 638 531 649 500 l 649 424 b 614 333 649 386 638 356 b 524 299 592 310 561 299 l 432 299 l 432 589 l 524 589 m 610 464 b 586 531 610 490 603 513 b 524 557 571 549 550 557 l 471 557 l 471 329 l 524 329 b 586 356 550 329 571 338 b 610 424 603 374 610 396 m 1011 822 b 1011 150 1013 599 1013 374 b 861 1 1011 57 954 1 b 218 1 647 1 433 1 b 69 149 128 1 71 58 b 69 488 69 261 69 375 b 69 821 69 599 69 710 b 222 972 69 917 126 972 b 860 972 435 972 647 972 b 1011 822 954 972 1011 917 m 217 803 b 349 933 217 886 265 935 b 714 935 469 935 592 933 b 772 942 733 935 753 939 b 224 949 589 949 407 949 b 93 819 139 949 93 903 b 93 206 93 615 93 410 b 93 179 93 197 93 189 b 100 178 96 179 99 179 b 199 285 133 213 168 247 b 215 326 208 294 215 313 b 217 803 217 485 217 644 m 831 304 b 832 553 831 388 831 471 b 832 808 832 638 832 724 b 738 908 832 867 796 907 b 336 908 604 910 471 910 b 242 807 278 907 242 867 b 242 301 242 639 242 469 b 342 201 242 240 281 201 b 729 201 471 201 600 201 b 831 304 793 201 831 239 "},"E":{"ha":1082,"x_min":0,"x_max":0,"o":"m 490 329 l 631 329 l 631 299 l 451 299 l 451 589 l 628 589 l 628 557 l 490 557 l 490 464 l 610 464 l 610 433 l 490 433 m 1011 822 b 1011 150 1013 599 1013 374 b 861 1 1011 57 954 1 b 218 1 647 1 433 1 b 69 149 128 1 71 58 b 69 488 69 261 69 375 b 69 821 69 599 69 710 b 222 972 69 917 126 972 b 860 972 435 972 647 972 b 1011 822 954 972 1011 917 m 217 803 b 349 933 217 886 265 935 b 714 935 469 935 592 933 b 772 942 733 935 753 939 b 224 949 589 949 407 949 b 93 819 139 949 93 903 b 93 206 93 615 93 410 b 93 179 93 197 93 189 b 100 178 96 179 99 179 b 199 285 133 213 168 247 b 215 326 208 294 215 313 b 217 803 217 485 217 644 m 831 304 b 832 553 831 388 831 471 b 832 808 832 638 832 724 b 738 908 832 867 796 907 b 336 908 604 910 471 910 b 242 807 278 907 242 867 b 242 301 242 639 242 469 b 342 201 242 240 281 201 b 729 201 471 201 600 201 b 831 304 793 201 831 239 "},"F":{"ha":1081,"x_min":0,"x_max":0,"o":"m 450 589 l 632 589 l 632 557 l 489 557 l 489 458 l 611 458 l 611 426 l 489 426 l 489 299 l 450 299 m 1011 822 b 1011 150 1011 599 1011 374 b 861 1 1011 57 954 1 b 218 1 647 1 433 1 b 69 149 128 1 71 58 b 69 488 69 261 69 375 b 69 821 69 599 69 710 b 222 972 69 917 126 972 b 860 972 435 972 647 972 b 1011 822 954 972 1011 917 m 217 803 b 349 933 217 886 265 935 b 714 935 469 935 592 933 b 772 942 733 935 753 939 b 224 949 589 949 407 949 b 93 819 139 949 93 903 b 93 206 93 615 93 410 b 93 179 93 197 93 189 b 100 178 96 179 99 179 b 199 285 133 213 168 247 b 215 326 208 294 215 313 b 217 803 217 485 217 644 m 831 304 b 831 553 831 388 831 471 b 831 808 831 638 832 724 b 738 908 831 867 794 907 b 336 908 603 910 469 910 b 240 807 276 907 240 867 b 240 301 240 639 240 469 b 342 201 240 240 279 201 b 729 201 471 201 599 201 b 831 304 792 201 831 239 "},"G":{"ha":1081,"x_min":0,"x_max":0,"o":"m 547 413 l 547 443 l 651 443 l 651 338 b 615 307 644 326 633 317 b 549 294 599 299 576 294 b 467 326 515 294 488 304 b 433 413 444 349 433 378 l 433 472 b 465 558 433 508 443 536 b 546 592 486 581 513 592 b 622 567 578 592 604 583 b 650 500 642 549 650 528 l 649 499 l 611 499 b 594 543 611 517 606 531 b 546 561 583 556 567 561 b 492 536 524 561 506 553 b 471 474 478 519 471 499 l 471 414 b 493 350 471 388 479 367 b 547 325 507 333 525 325 b 588 332 564 325 578 328 b 611 347 597 336 606 342 l 611 413 m 1011 822 b 1011 150 1011 599 1013 374 b 861 1 1011 57 954 1 b 218 1 647 1 433 1 b 69 149 128 1 71 58 b 69 488 69 261 69 375 b 69 821 69 599 69 710 b 222 972 69 917 126 972 b 860 972 435 972 647 972 b 1011 822 954 972 1011 917 m 217 803 b 349 933 217 886 265 935 b 714 935 469 935 592 933 b 772 942 733 935 753 939 b 224 949 589 949 407 949 b 93 819 139 949 93 903 b 93 206 93 615 93 410 b 93 179 93 197 93 189 b 100 178 96 179 99 179 b 199 285 133 213 168 247 b 215 326 208 294 215 313 b 217 803 217 485 217 644 m 831 304 b 832 553 831 388 831 471 b 832 808 832 638 832 724 b 738 908 832 867 796 907 b 336 908 604 910 471 910 b 242 807 278 907 242 867 b 242 301 242 639 242 469 b 342 201 242 240 281 201 b 729 201 471 201 600 201 b 831 304 793 201 831 239 "},"H":{"ha":1082,"x_min":0,"x_max":0,"o":"m 611 589 l 650 589 l 650 299 l 611 299 l 611 426 l 469 426 l 469 299 l 431 299 l 431 589 l 469 589 l 469 458 l 611 458 m 1011 822 b 1011 150 1013 599 1013 374 b 861 1 1011 57 954 1 b 218 1 647 1 433 1 b 69 149 128 1 71 58 b 69 488 69 261 69 375 b 69 821 69 599 69 710 b 222 972 69 917 126 972 b 860 972 435 972 647 972 b 1011 822 954 972 1011 917 m 217 803 b 349 933 217 886 265 935 b 714 935 469 935 592 933 b 772 942 733 935 753 939 b 224 949 589 949 407 949 b 93 819 139 949 93 903 b 93 206 93 615 93 410 b 93 179 93 197 93 189 b 100 178 96 179 99 179 b 199 285 133 213 168 247 b 215 326 208 294 215 313 b 217 803 217 485 217 644 m 831 304 b 832 553 831 388 831 471 b 832 808 832 638 832 724 b 738 908 832 867 796 907 b 336 908 604 910 471 910 b 242 807 278 907 242 867 b 242 301 242 639 242 469 b 342 201 242 240 281 201 b 729 201 471 201 600 201 b 831 304 793 201 831 239 "},"I":{"ha":1082,"x_min":0,"x_max":0,"o":"m 521 299 l 521 589 l 560 589 l 560 299 m 1011 822 b 1011 150 1013 599 1013 374 b 861 1 1011 57 954 1 b 218 1 647 1 433 1 b 69 149 128 1 71 58 b 69 488 69 261 69 375 b 69 821 69 599 69 710 b 222 972 69 917 126 972 b 860 972 435 972 647 972 b 1011 822 954 972 1011 917 m 217 803 b 349 933 217 886 265 935 b 714 935 469 935 592 933 b 772 942 733 935 753 939 b 224 949 589 949 407 949 b 93 819 139 949 93 903 b 93 206 93 615 93 410 b 93 179 93 197 93 189 b 100 178 96 179 99 179 b 199 285 133 213 168 247 b 215 326 208 294 215 313 b 217 803 217 485 217 644 m 831 304 b 832 553 831 388 831 471 b 832 808 832 638 832 724 b 738 908 832 867 796 907 b 336 908 604 910 471 910 b 242 807 278 907 242 867 b 242 301 242 639 242 469 b 342 201 242 240 281 201 b 729 201 471 201 600 201 b 831 304 793 201 831 239 "},"J":{"ha":1081,"x_min":0,"x_max":0,"o":"m 589 589 l 628 589 l 628 383 b 603 318 628 356 619 335 b 539 294 586 303 565 294 b 476 315 513 294 492 301 b 453 376 460 329 453 350 l 454 378 l 492 378 b 504 338 492 361 496 347 b 540 325 514 329 525 325 b 575 340 554 325 567 329 b 589 382 585 351 589 365 m 1011 822 b 1011 150 1011 599 1011 374 b 861 1 1011 57 954 1 b 218 1 647 1 433 1 b 69 149 128 1 71 58 b 69 488 69 261 69 375 b 69 821 69 599 69 710 b 222 972 69 917 126 972 b 860 972 435 972 647 972 b 1011 822 954 972 1011 917 m 217 803 b 349 933 217 886 265 935 b 714 935 469 935 592 933 b 772 942 733 935 753 939 b 224 949 589 949 407 949 b 93 819 139 949 93 903 b 93 206 93 615 93 410 b 93 179 93 197 93 189 b 100 178 96 179 99 179 b 199 285 133 213 168 247 b 215 326 208 294 215 313 b 217 803 217 485 217 644 m 831 304 b 831 553 831 388 831 471 b 831 808 831 638 832 724 b 738 908 831 867 794 907 b 336 908 603 910 469 910 b 240 807 276 907 240 867 b 240 301 240 639 240 469 b 342 201 240 240 279 201 b 729 201 471 201 599 201 b 831 304 792 201 831 239 "},"K":{"ha":1082,"x_min":0,"x_max":0,"o":"m 526 450 l 651 299 l 604 299 l 496 429 l 469 429 l 469 299 l 431 299 l 431 589 l 469 589 l 469 460 l 490 460 l 599 589 l 643 589 l 643 588 m 1011 822 b 1011 150 1013 599 1013 374 b 861 1 1011 57 954 1 b 218 1 647 1 433 1 b 69 149 128 1 71 58 b 69 488 69 261 69 375 b 69 821 69 599 69 710 b 222 972 69 917 126 972 b 860 972 435 972 647 972 b 1011 822 954 972 1011 917 m 217 803 b 349 933 217 886 265 935 b 714 935 469 935 592 933 b 772 942 733 935 753 939 b 224 949 589 949 407 949 b 93 819 139 949 93 903 b 93 206 93 615 93 410 b 93 179 93 197 93 189 b 100 178 96 179 99 179 b 199 285 133 213 168 247 b 215 326 208 294 215 313 b 217 803 217 485 217 644 m 831 304 b 832 553 831 388 831 471 b 832 808 832 638 832 724 b 738 908 832 867 796 907 b 336 908 604 910 471 910 b 242 807 278 907 242 867 b 242 301 242 639 242 469 b 342 201 242 240 281 201 b 729 201 471 201 600 201 b 831 304 793 201 831 239 "},"L":{"ha":1082,"x_min":0,"x_max":0,"o":"m 490 329 l 632 329 l 632 299 l 450 299 l 450 589 l 490 589 m 1011 822 b 1011 150 1013 599 1013 374 b 861 1 1011 57 954 1 b 218 1 647 1 433 1 b 69 149 128 1 71 58 b 69 488 69 261 69 375 b 69 821 69 599 69 710 b 222 972 69 917 126 972 b 860 972 435 972 647 972 b 1011 822 954 972 1011 917 m 217 803 b 349 933 217 886 265 935 b 714 935 469 935 592 933 b 772 942 733 935 753 939 b 224 949 589 949 407 949 b 93 819 139 949 93 903 b 93 206 93 615 93 410 b 93 179 93 197 93 189 b 100 178 96 179 99 179 b 199 285 133 213 168 247 b 215 326 208 294 215 313 b 217 803 217 485 217 644 m 831 304 b 832 553 831 388 831 471 b 832 808 832 638 832 724 b 738 908 832 867 796 907 b 336 908 604 910 471 910 b 242 807 278 907 242 867 b 242 301 242 639 242 469 b 342 201 242 240 281 201 b 729 201 471 201 600 201 b 831 304 793 201 831 239 "},"M":{"ha":1082,"x_min":0,"x_max":0,"o":"m 635 589 l 683 589 l 683 299 l 644 299 l 644 517 l 643 517 l 556 299 l 528 299 l 438 522 l 438 299 l 397 299 l 397 589 l 449 589 l 540 353 l 543 353 m 1011 822 b 1011 150 1013 599 1013 374 b 861 1 1011 57 954 1 b 218 1 647 1 433 1 b 69 149 128 1 71 58 b 69 488 69 261 69 375 b 69 821 69 599 69 710 b 222 972 69 917 126 972 b 860 972 435 972 647 972 b 1011 822 954 972 1011 917 m 217 803 b 349 933 217 886 265 935 b 714 935 469 935 592 933 b 772 942 733 935 753 939 b 224 949 589 949 407 949 b 93 819 139 949 93 903 b 93 206 93 615 93 410 b 93 179 93 197 93 189 b 100 178 96 179 99 179 b 199 285 133 213 168 247 b 215 326 208 294 215 313 b 217 803 217 485 217 644 m 831 304 b 832 553 831 388 831 471 b 832 808 832 638 832 724 b 738 908 832 867 796 907 b 336 908 604 910 471 910 b 242 807 278 907 242 867 b 242 301 242 639 242 469 b 342 201 242 240 281 201 b 729 201 471 201 600 201 b 831 304 793 201 831 239 "},"N":{"ha":1081,"x_min":0,"x_max":0,"o":"m 611 589 l 650 589 l 650 299 l 611 299 l 471 519 l 469 519 l 469 299 l 431 299 l 431 589 l 469 589 l 610 367 l 611 367 m 1011 822 b 1011 150 1011 599 1011 374 b 861 1 1011 57 954 1 b 218 1 647 1 433 1 b 69 149 128 1 71 58 b 69 488 69 261 69 375 b 69 821 69 599 69 710 b 222 972 69 917 126 972 b 860 972 435 972 647 972 b 1011 822 954 972 1011 917 m 217 803 b 349 933 217 886 265 935 b 714 935 469 935 592 933 b 772 942 733 935 753 939 b 224 949 589 949 407 949 b 93 819 139 949 93 903 b 93 206 93 615 93 410 b 93 179 93 197 93 189 b 100 178 96 179 99 179 b 199 285 133 213 168 247 b 215 326 208 294 215 313 b 217 803 217 485 217 644 m 831 304 b 831 553 831 388 831 471 b 831 808 831 638 832 724 b 738 908 831 867 794 907 b 336 908 603 910 469 910 b 240 807 276 907 240 867 b 240 301 240 639 240 469 b 342 201 240 240 279 201 b 729 201 471 201 599 201 b 831 304 792 201 831 239 "},"O":{"ha":1082,"x_min":0,"x_max":0,"o":"m 539 592 b 624 557 574 592 603 581 b 657 469 646 533 657 504 l 657 417 b 624 329 657 382 646 353 b 539 294 603 306 574 294 b 457 329 506 294 478 306 b 425 417 436 353 425 382 l 425 469 b 457 557 425 504 436 533 b 539 592 478 581 506 592 m 618 469 b 596 533 618 494 611 517 b 539 560 582 551 563 560 b 485 533 517 560 497 551 b 464 469 471 518 464 494 l 464 417 b 485 351 464 390 471 368 b 539 326 497 335 515 326 b 596 351 563 326 582 335 b 618 417 611 368 618 390 m 1011 822 b 1011 150 1013 599 1013 374 b 861 1 1011 57 954 1 b 218 1 647 1 433 1 b 69 149 128 1 71 58 b 69 488 69 261 69 375 b 69 821 69 599 69 710 b 222 972 69 917 126 972 b 860 972 435 972 647 972 b 1011 822 954 972 1011 917 m 217 803 b 349 933 217 886 265 935 b 714 935 469 935 592 933 b 772 942 733 935 753 939 b 224 949 589 949 407 949 b 93 819 139 949 93 903 b 93 206 93 615 93 410 b 93 179 93 197 93 189 b 100 178 96 179 99 179 b 199 285 133 213 168 247 b 215 326 208 294 215 313 b 217 803 217 485 217 644 m 831 304 b 832 553 831 388 831 471 b 832 808 832 638 832 724 b 738 908 832 867 796 907 b 336 908 604 910 471 910 b 242 807 278 907 242 867 b 242 301 242 639 242 469 b 342 201 242 240 281 201 b 729 201 471 201 600 201 b 831 304 793 201 831 239 "},"P":{"ha":1082,"x_min":0,"x_max":0,"o":"m 547 589 b 619 565 578 589 603 581 b 644 501 636 549 644 528 b 619 439 644 475 636 454 b 547 415 603 424 578 415 l 475 415 l 475 299 l 436 299 l 436 589 l 547 589 m 592 461 b 606 501 601 472 606 485 b 592 542 606 518 601 531 b 547 558 582 553 567 558 l 475 558 l 475 446 l 547 446 b 592 461 567 446 582 451 m 1011 822 b 1011 150 1013 599 1013 374 b 861 1 1011 57 954 1 b 218 1 647 1 433 1 b 69 149 128 1 71 58 b 69 488 69 261 69 375 b 69 821 69 599 69 710 b 222 972 69 917 126 972 b 860 972 435 972 647 972 b 1011 822 954 972 1011 917 m 217 803 b 349 933 217 886 265 935 b 714 935 469 935 592 933 b 772 942 733 935 753 939 b 224 949 589 949 407 949 b 93 819 139 949 93 903 b 93 206 93 615 93 410 b 93 179 93 197 93 189 b 100 178 96 179 99 179 b 199 285 133 213 168 247 b 215 326 208 294 215 313 b 217 803 217 485 217 644 m 831 304 b 832 553 831 388 831 471 b 832 808 832 638 832 724 b 738 908 832 867 796 907 b 336 908 604 910 471 910 b 242 807 278 907 242 867 b 242 301 242 639 242 469 b 342 201 242 240 281 201 b 729 201 471 201 600 201 b 831 304 793 201 831 239 "},"Q":{"ha":1082,"x_min":0,"x_max":0,"o":"m 642 374 b 622 336 638 361 631 349 l 665 294 l 639 269 l 594 313 b 565 299 586 306 576 301 b 531 294 554 296 543 294 b 449 329 497 294 469 306 b 417 417 428 353 417 382 l 417 469 b 449 557 417 504 428 533 b 531 592 469 581 497 592 b 615 557 565 592 594 581 b 649 469 638 533 649 504 l 649 417 b 642 374 649 401 646 388 m 608 469 b 588 533 608 494 601 517 b 529 560 574 551 554 560 b 475 533 507 560 489 551 b 456 469 461 518 456 494 l 456 417 b 475 351 456 390 461 368 b 529 326 489 335 507 326 b 588 351 554 326 574 335 b 608 417 601 368 608 390 m 1011 822 b 1011 150 1013 599 1013 374 b 861 1 1011 57 954 1 b 218 1 647 1 433 1 b 69 149 128 1 71 58 b 69 488 69 261 69 375 b 69 821 69 599 69 710 b 222 972 69 917 126 972 b 860 972 435 972 647 972 b 1011 822 954 972 1011 917 m 217 803 b 349 933 217 886 265 935 b 714 935 469 935 592 933 b 772 942 733 935 753 939 b 224 949 589 949 407 949 b 93 819 139 949 93 903 b 93 206 93 615 93 410 b 93 179 93 197 93 189 b 100 178 96 179 99 179 b 199 285 133 213 168 247 b 215 326 208 294 215 313 b 217 803 217 485 217 644 m 831 304 b 832 553 831 388 831 471 b 832 808 832 638 832 724 b 738 908 832 867 796 907 b 336 908 604 910 471 910 b 242 807 278 907 242 867 b 242 301 242 639 242 469 b 342 201 242 240 281 201 b 729 201 471 201 600 201 b 831 304 793 201 831 239 "},"R":{"ha":1081,"x_min":0,"x_max":0,"o":"m 632 344 b 633 319 632 336 633 328 b 644 303 636 314 639 307 l 644 299 l 603 299 b 593 318 599 303 596 310 b 592 346 592 328 592 336 l 592 372 b 578 410 592 388 588 400 b 542 424 569 419 557 424 l 474 424 l 474 299 l 435 299 l 435 588 l 535 588 b 607 567 567 588 590 581 b 632 506 625 553 632 532 b 621 467 632 490 628 478 b 588 440 613 456 601 447 b 621 415 603 435 615 426 b 632 372 628 403 632 389 l 632 344 m 579 468 b 593 506 589 476 593 489 b 579 543 593 522 589 535 b 535 557 569 553 554 557 l 475 557 l 475 454 l 531 454 b 579 468 553 454 569 460 m 1011 822 b 1011 150 1011 599 1011 374 b 863 1 1011 57 956 1 b 219 1 647 1 433 1 b 71 149 128 1 71 58 b 71 488 69 261 71 375 b 71 821 71 599 71 710 b 222 972 71 917 126 972 b 861 972 435 972 649 972 b 1011 822 956 972 1011 917 m 217 803 b 349 933 217 886 265 935 b 714 935 471 935 592 933 b 774 942 733 935 754 939 b 224 949 589 949 407 949 b 94 819 140 949 94 903 b 94 206 94 615 94 410 b 94 179 94 197 94 189 b 101 178 96 179 99 179 b 200 285 133 213 168 247 b 217 326 210 294 217 313 b 217 803 217 485 217 644 m 831 304 b 832 553 832 388 831 471 b 832 808 832 638 832 724 b 738 908 832 867 794 907 b 336 908 603 910 471 910 b 240 807 278 907 240 867 b 240 301 240 639 240 469 b 342 201 240 240 279 201 b 729 201 471 201 600 201 b 831 304 793 201 831 239 "},"S":{"ha":1081,"x_min":0,"x_max":0,"o":"m 554 460 b 618 425 583 453 604 442 b 642 371 635 411 642 393 b 614 315 642 347 633 329 b 543 294 596 300 572 294 b 468 317 515 294 490 301 b 438 381 447 333 436 354 l 438 382 l 475 382 b 496 339 475 364 482 349 b 543 325 510 329 526 325 b 588 338 563 325 576 329 b 604 372 599 346 604 357 b 589 404 604 385 599 396 b 539 426 579 414 564 421 b 471 460 510 435 488 444 b 446 513 454 474 446 492 b 472 569 446 536 456 556 b 543 592 490 585 514 592 b 615 567 574 592 597 583 b 642 506 633 549 643 529 l 642 504 l 604 504 b 586 546 604 521 597 535 b 543 561 575 557 560 561 b 500 549 525 561 510 557 b 486 514 490 539 486 528 b 501 482 486 501 490 490 b 554 460 513 474 529 467 m 1011 822 b 1011 150 1011 599 1011 374 b 861 1 1011 57 954 1 b 218 1 647 1 433 1 b 69 149 128 1 71 58 b 69 488 69 261 69 375 b 69 821 69 599 69 710 b 222 972 69 917 126 972 b 860 972 435 972 647 972 b 1011 822 954 972 1011 917 m 217 803 b 349 933 217 886 265 935 b 714 935 469 935 592 933 b 772 942 733 935 753 939 b 224 949 589 949 407 949 b 93 819 139 949 93 903 b 93 206 93 615 93 410 b 93 179 93 197 93 189 b 100 178 96 179 99 179 b 199 285 133 213 168 247 b 215 326 208 294 215 313 b 217 803 217 485 217 644 m 831 304 b 831 553 831 388 831 471 b 831 808 831 638 832 724 b 738 908 831 867 794 907 b 336 908 603 910 469 910 b 240 807 276 907 240 867 b 240 301 240 639 240 469 b 342 201 240 240 279 201 b 729 201 471 201 599 201 b 831 304 792 201 831 239 "},"T":{"ha":1082,"x_min":0,"x_max":0,"o":"m 426 589 l 656 589 l 656 557 l 560 557 l 560 299 l 521 299 l 521 557 l 426 557 m 1011 822 b 1011 150 1013 599 1013 374 b 861 1 1011 57 954 1 b 218 1 647 1 433 1 b 69 149 128 1 71 58 b 69 488 69 261 69 375 b 69 821 69 599 69 710 b 222 972 69 917 126 972 b 860 972 435 972 647 972 b 1011 822 954 972 1011 917 m 217 803 b 349 933 217 886 265 935 b 714 935 469 935 592 933 b 772 942 733 935 753 939 b 224 949 589 949 407 949 b 93 819 139 949 93 903 b 93 206 93 615 93 410 b 93 179 93 197 93 189 b 100 178 96 179 99 179 b 199 285 133 213 168 247 b 215 326 208 294 215 313 b 217 803 217 485 217 644 m 831 304 b 832 553 831 388 831 471 b 832 808 832 638 832 724 b 738 908 832 867 796 907 b 336 908 604 910 471 910 b 242 807 278 907 242 867 b 242 301 242 639 242 469 b 342 201 242 240 281 201 b 729 201 471 201 600 201 b 831 304 793 201 831 239 "},"U":{"ha":1081,"x_min":0,"x_max":0,"o":"m 611 589 l 650 589 l 650 396 b 618 322 650 364 640 339 b 539 294 597 304 572 294 b 461 322 507 294 482 304 b 432 396 442 339 432 365 l 432 589 l 471 589 l 471 396 b 489 343 471 374 476 356 b 539 325 501 331 518 325 b 590 343 560 325 576 331 b 611 396 604 356 611 374 m 1011 822 b 1011 150 1011 599 1011 374 b 861 1 1011 57 954 1 b 218 1 647 1 433 1 b 69 149 128 1 71 58 b 69 488 69 261 69 375 b 69 821 69 599 69 710 b 222 972 69 917 126 972 b 860 972 435 972 647 972 b 1011 822 954 972 1011 917 m 217 803 b 349 933 217 886 265 935 b 714 935 469 935 592 933 b 772 942 733 935 753 939 b 224 949 589 949 407 949 b 93 819 139 949 93 903 b 93 206 93 615 93 410 b 93 179 93 197 93 189 b 100 178 96 179 99 179 b 199 285 133 213 168 247 b 215 326 208 294 215 313 b 217 803 217 485 217 644 m 831 304 b 832 553 831 388 831 471 b 832 808 832 638 832 724 b 738 908 832 867 796 907 b 336 908 604 910 471 910 b 242 807 278 907 242 867 b 242 301 242 639 242 469 b 342 201 242 240 281 201 b 729 201 471 201 600 201 b 831 304 793 201 831 239 "},"V":{"ha":1082,"x_min":0,"x_max":0,"o":"m 622 589 l 665 589 l 557 299 l 524 299 l 417 589 l 458 589 l 533 375 l 540 351 l 547 375 m 1011 822 b 1011 150 1013 599 1013 374 b 861 1 1011 57 954 1 b 218 1 647 1 433 1 b 69 149 128 1 71 58 b 69 488 69 261 69 375 b 69 821 69 599 69 710 b 222 972 69 917 126 972 b 860 972 435 972 647 972 b 1011 822 954 972 1011 917 m 217 803 b 349 933 217 886 265 935 b 714 935 469 935 592 933 b 772 942 733 935 753 939 b 224 949 589 949 407 949 b 93 819 139 949 93 903 b 93 206 93 615 93 410 b 93 179 93 197 93 189 b 100 178 96 179 99 179 b 199 285 133 213 168 247 b 215 326 208 294 215 313 b 217 803 217 485 217 644 m 831 304 b 832 553 831 388 831 471 b 832 808 832 638 832 724 b 738 908 832 867 796 907 b 336 908 604 910 471 910 b 242 807 278 907 242 867 b 242 301 242 639 242 469 b 342 201 242 240 281 201 b 729 201 471 201 600 201 b 831 304 793 201 831 239 "},"W":{"ha":1082,"x_min":0,"x_max":0,"o":"m 667 589 l 710 589 l 639 299 l 604 299 l 546 500 l 542 526 l 540 526 l 536 500 l 478 299 l 442 299 l 372 589 l 414 589 l 457 400 l 461 361 l 463 361 l 469 400 l 521 589 l 560 589 l 611 400 l 618 361 l 619 361 l 625 400 m 1011 822 b 1011 150 1013 599 1013 374 b 861 1 1011 57 954 1 b 218 1 647 1 433 1 b 69 149 128 1 71 58 b 69 488 69 261 69 375 b 69 821 69 599 69 710 b 222 972 69 917 126 972 b 860 972 435 972 647 972 b 1011 822 954 972 1011 917 m 217 803 b 349 933 217 886 265 935 b 714 935 469 935 592 933 b 772 942 733 935 753 939 b 224 949 589 949 407 949 b 93 819 139 949 93 903 b 93 206 93 615 93 410 b 93 179 93 197 93 189 b 100 178 96 179 99 179 b 199 285 133 213 168 247 b 215 326 208 294 215 313 b 217 803 217 485 217 644 m 831 304 b 832 553 831 388 831 471 b 832 808 832 638 832 724 b 738 908 832 867 796 907 b 336 908 604 910 471 910 b 242 807 278 907 242 867 b 242 301 242 639 242 469 b 342 201 242 240 281 201 b 729 201 471 201 600 201 b 831 304 793 201 831 239 "},"X":{"ha":1081,"x_min":0,"x_max":0,"o":"m 563 444 l 657 299 l 611 299 l 542 414 l 471 299 l 424 299 l 518 444 l 426 589 l 474 589 l 540 475 l 608 589 l 656 589 m 1011 822 b 1011 150 1011 599 1011 374 b 863 1 1011 57 956 1 b 219 1 647 1 433 1 b 71 149 128 1 71 58 b 71 488 69 261 71 375 b 71 821 71 599 71 710 b 222 972 71 917 126 972 b 861 972 435 972 649 972 b 1011 822 956 972 1011 917 m 217 803 b 349 933 217 886 265 935 b 714 935 471 935 592 933 b 774 942 733 935 754 939 b 224 949 589 949 407 949 b 94 819 140 949 94 903 b 94 206 94 615 94 410 b 94 179 94 197 94 189 b 101 178 96 179 99 179 b 200 285 133 213 168 247 b 217 326 210 294 217 313 b 217 803 217 485 217 644 m 831 304 b 832 553 832 388 831 471 b 832 808 832 638 832 724 b 738 908 832 867 794 907 b 336 908 603 910 471 910 b 240 807 278 907 240 867 b 240 301 240 639 240 469 b 342 201 240 240 279 201 b 729 201 471 201 600 201 b 831 304 793 201 831 239 "},"Y":{"ha":1081,"x_min":0,"x_max":0,"o":"m 617 589 l 661 589 l 558 400 l 558 299 l 519 299 l 519 403 l 419 589 l 465 589 l 540 442 m 1011 822 b 1011 150 1011 599 1011 374 b 861 1 1011 57 954 1 b 218 1 647 1 433 1 b 69 149 128 1 71 58 b 69 488 69 261 69 375 b 69 821 69 599 69 710 b 222 972 69 917 126 972 b 860 972 435 972 647 972 b 1011 822 954 972 1011 917 m 217 803 b 349 933 217 886 265 935 b 714 935 469 935 592 933 b 772 942 733 935 753 939 b 224 949 589 949 407 949 b 93 819 139 949 93 903 b 93 206 93 615 93 410 b 93 179 93 197 93 189 b 100 178 96 179 99 179 b 199 285 133 213 168 247 b 215 326 208 294 215 313 b 217 803 217 485 217 644 m 831 304 b 831 553 831 388 831 471 b 831 808 831 638 832 724 b 738 908 831 867 794 907 b 336 908 603 910 469 910 b 240 807 276 907 240 867 b 240 301 240 639 240 469 b 342 201 240 240 279 201 b 729 201 471 201 599 201 b 831 304 792 201 831 239 "},"Z":{"ha":1081,"x_min":0,"x_max":0,"o":"m 482 329 l 644 329 l 644 299 l 438 299 l 438 328 l 592 557 l 440 557 l 440 589 l 638 589 l 638 560 m 1011 822 b 1011 150 1011 599 1011 374 b 863 1 1011 57 956 1 b 219 1 647 1 433 1 b 71 149 128 1 71 58 b 71 488 69 261 71 375 b 71 821 71 599 71 710 b 222 972 71 917 126 972 b 861 972 435 972 649 972 b 1011 822 956 972 1011 917 m 217 803 b 349 933 217 886 265 935 b 714 935 471 935 592 933 b 774 942 733 935 754 939 b 224 949 589 949 407 949 b 94 819 140 949 94 903 b 94 206 94 615 94 410 b 94 179 94 197 94 189 b 101 178 96 179 99 179 b 200 285 133 213 168 247 b 217 326 210 294 217 313 b 217 803 217 485 217 644 m 831 304 b 832 553 832 388 831 471 b 832 808 832 638 832 724 b 738 908 832 867 794 907 b 336 908 603 910 471 910 b 240 807 278 907 240 867 b 240 301 240 639 240 469 b 342 201 240 240 279 201 b 729 201 471 201 600 201 b 831 304 793 201 831 239 "},"[":{"ha":1082,"x_min":0,"x_max":0,"o":"m 501 629 l 579 629 l 579 599 l 542 599 l 542 267 l 579 267 l 579 236 l 501 236 m 1011 822 b 1011 150 1013 599 1013 374 b 861 1 1011 57 954 1 b 218 1 647 1 433 1 b 69 149 128 1 71 58 b 69 488 69 261 69 375 b 69 821 69 599 69 710 b 222 972 69 917 126 972 b 860 972 435 972 647 972 b 1011 822 954 972 1011 917 m 217 803 b 349 933 217 886 265 935 b 714 935 469 935 592 933 b 772 942 733 935 753 939 b 224 949 589 949 407 949 b 93 819 139 949 93 903 b 93 206 93 615 93 410 b 93 179 93 197 93 189 b 100 178 96 179 99 179 b 199 285 133 213 168 247 b 215 326 208 294 215 313 b 217 803 217 485 217 644 m 831 304 b 832 553 831 388 831 471 b 832 808 832 638 832 724 b 738 908 832 867 796 907 b 336 908 604 910 471 910 b 242 807 278 907 242 867 b 242 301 242 639 242 469 b 342 201 242 240 281 201 b 729 201 471 201 600 201 b 831 304 793 201 831 239 "},"\\":{"ha":1081,"x_min":0,"x_max":0,"o":"m 499 589 l 619 274 l 583 274 l 461 589 m 1011 822 b 1011 150 1011 599 1011 374 b 861 1 1011 57 954 1 b 218 1 647 1 433 1 b 69 149 128 1 71 58 b 69 488 69 261 69 375 b 69 821 69 599 69 710 b 222 972 69 917 126 972 b 860 972 435 972 647 972 b 1011 822 954 972 1011 917 m 217 803 b 349 933 217 886 265 935 b 714 935 469 935 592 933 b 772 942 733 935 753 939 b 224 949 589 949 407 949 b 93 819 139 949 93 903 b 93 206 93 615 93 410 b 93 179 93 197 93 189 b 100 178 96 179 99 179 b 199 285 133 213 168 247 b 215 326 208 294 215 313 b 217 803 217 485 217 644 m 831 304 b 831 553 831 388 831 471 b 831 808 831 638 832 724 b 738 908 831 867 794 907 b 336 908 603 910 469 910 b 240 807 276 907 240 867 b 240 301 240 639 240 469 b 342 201 240 240 279 201 b 729 201 471 201 599 201 b 831 304 792 201 831 239 "},"]":{"ha":1081,"x_min":0,"x_max":0,"o":"m 501 629 l 578 629 l 578 236 l 501 236 l 501 267 l 539 267 l 539 599 l 501 599 m 1011 822 b 1011 150 1011 599 1011 374 b 861 1 1011 57 954 1 b 218 1 647 1 433 1 b 69 149 128 1 71 58 b 69 488 69 261 69 375 b 69 821 69 599 69 710 b 222 972 69 917 126 972 b 860 972 435 972 647 972 b 1011 822 954 972 1011 917 m 217 803 b 349 933 217 886 265 935 b 714 935 469 935 592 933 b 772 942 733 935 753 939 b 224 949 589 949 407 949 b 93 819 139 949 93 903 b 93 206 93 615 93 410 b 93 179 93 197 93 189 b 100 178 96 179 99 179 b 199 285 133 213 168 247 b 215 326 208 294 215 313 b 217 803 217 485 217 644 m 831 304 b 831 553 831 388 831 471 b 831 808 831 638 832 724 b 738 908 831 867 794 907 b 336 908 603 910 469 910 b 240 807 276 907 240 867 b 240 301 240 639 240 469 b 342 201 240 240 279 201 b 729 201 471 201 599 201 b 831 304 792 201 831 239 "},"^":{"ha":1082,"x_min":0,"x_max":0,"o":"m 554 589 l 614 443 l 578 443 l 544 528 l 542 540 l 540 540 l 538 528 l 504 443 l 468 443 l 528 589 m 1011 822 b 1011 150 1013 599 1013 374 b 861 1 1011 57 954 1 b 218 1 647 1 433 1 b 69 149 128 1 71 58 b 69 488 69 261 69 375 b 69 821 69 599 69 710 b 222 972 69 917 126 972 b 860 972 435 972 647 972 b 1011 822 954 972 1011 917 m 217 803 b 349 933 217 886 265 935 b 714 935 469 935 592 933 b 772 942 733 935 753 939 b 224 949 589 949 407 949 b 93 819 139 949 93 903 b 93 206 93 615 93 410 b 93 179 93 197 93 189 b 100 178 96 179 99 179 b 199 285 133 213 168 247 b 215 326 208 294 215 313 b 217 803 217 485 217 644 m 831 304 b 832 553 831 388 831 471 b 832 808 832 638 832 724 b 738 908 832 867 796 907 b 336 908 604 910 471 910 b 242 807 278 907 242 867 b 242 301 242 639 242 469 b 342 201 242 240 281 201 b 729 201 471 201 600 201 b 831 304 793 201 831 239 "},"_":{"ha":1082,"x_min":0,"x_max":0,"o":"m 449 268 l 449 299 l 633 299 l 633 268 m 1011 822 b 1011 150 1013 599 1013 374 b 861 1 1011 57 954 1 b 218 1 647 1 433 1 b 69 149 128 1 71 58 b 69 488 69 261 69 375 b 69 821 69 599 69 710 b 222 972 69 917 126 972 b 860 972 435 972 647 972 b 1011 822 954 972 1011 917 m 217 803 b 349 933 217 886 265 935 b 714 935 469 935 592 933 b 772 942 733 935 753 939 b 224 949 589 949 407 949 b 93 819 139 949 93 903 b 93 206 93 615 93 410 b 93 179 93 197 93 189 b 100 178 96 179 99 179 b 199 285 133 213 168 247 b 215 326 208 294 215 313 b 217 803 217 485 217 644 m 831 304 b 832 553 831 388 831 471 b 832 808 832 638 832 724 b 738 908 832 867 796 907 b 336 908 604 910 471 910 b 242 807 278 907 242 867 b 242 301 242 639 242 469 b 342 201 242 240 281 201 b 729 201 471 201 600 201 b 831 304 793 201 831 239 "},"`":{"ha":1082,"x_min":0,"x_max":0,"o":"m 547 600 l 582 547 l 550 547 l 500 600 m 1011 822 b 1011 150 1013 599 1013 374 b 861 1 1011 57 954 1 b 218 1 647 1 433 1 b 69 149 128 1 71 58 b 69 488 69 261 69 375 b 69 821 69 599 69 710 b 222 972 69 917 126 972 b 860 972 435 972 647 972 b 1011 822 954 972 1011 917 m 217 803 b 349 933 217 886 265 935 b 714 935 469 935 592 933 b 772 942 733 935 753 939 b 224 949 589 949 407 949 b 93 819 139 949 93 903 b 93 206 93 615 93 410 b 93 179 93 197 93 189 b 100 178 96 179 99 179 b 199 285 133 213 168 247 b 215 326 208 294 215 313 b 217 803 217 485 217 644 m 831 304 b 832 553 831 388 831 471 b 832 808 832 638 832 724 b 738 908 832 867 796 907 b 336 908 604 910 471 910 b 242 807 278 907 242 867 b 242 301 242 639 242 469 b 342 201 242 240 281 201 b 729 201 471 201 600 201 b 831 304 793 201 831 239 "},"a":{"ha":1522,"x_min":0,"x_max":0,"o":"m 532 315 l 610 315 l 610 299 l 511 299 l 511 458 l 608 458 l 608 442 l 532 442 l 532 390 l 599 390 l 599 372 l 532 372 m 688 419 b 717 407 700 419 710 415 b 728 374 724 400 728 389 l 728 299 l 707 299 l 707 372 b 700 394 707 383 704 390 b 682 401 697 400 690 401 b 665 397 675 401 669 401 b 654 386 660 394 657 392 l 654 299 l 632 299 l 632 417 l 651 417 l 653 399 b 668 414 657 406 661 410 b 688 419 674 417 681 419 m 806 314 b 810 315 807 315 810 315 l 813 300 b 804 297 810 300 807 299 b 796 296 801 297 799 296 b 775 304 786 296 781 299 b 767 329 769 310 767 318 l 767 401 l 749 401 l 749 417 l 767 417 l 767 444 l 789 444 l 789 417 l 811 417 l 811 401 l 789 401 l 789 329 b 793 317 789 324 790 319 b 801 314 794 315 797 314 b 806 314 803 314 804 314 m 881 419 b 915 407 897 419 907 417 b 928 367 924 396 928 383 l 928 356 l 851 356 b 860 326 851 343 854 333 b 883 315 865 318 874 315 b 903 318 892 315 899 315 b 918 326 908 319 914 322 l 926 313 b 910 301 922 307 917 304 b 883 297 901 299 893 297 b 844 314 867 297 854 303 b 831 356 835 324 831 338 l 831 361 b 844 403 831 376 835 392 b 881 419 854 414 867 419 m 907 374 b 900 394 907 382 904 390 b 881 403 897 400 890 403 b 863 394 874 403 868 400 b 853 372 857 388 854 381 l 853 371 l 907 371 m 1003 419 b 1007 418 1006 419 1006 418 b 1011 417 1008 418 1010 417 l 1008 397 l 997 397 b 982 394 992 397 986 397 b 974 383 979 392 976 388 l 974 299 l 951 299 l 951 417 l 971 417 l 972 400 b 986 414 976 406 981 410 b 1003 419 990 417 996 419 m 1453 822 b 1453 150 1453 599 1453 374 b 1303 1 1453 57 1396 1 b 218 1 1088 1 433 1 b 69 149 126 1 71 57 b 69 488 69 261 69 374 b 69 821 69 599 69 710 b 222 972 71 917 125 972 b 1301 972 435 972 1089 972 b 1453 822 1396 972 1453 917 m 217 803 b 349 933 217 886 265 935 b 1156 935 471 935 1033 933 b 1214 942 1175 935 1194 939 b 224 949 1031 949 407 949 b 93 819 140 949 94 903 b 93 206 93 615 93 410 b 93 179 93 197 93 189 b 100 178 96 179 97 179 b 199 285 133 213 168 247 b 215 326 208 294 215 313 b 217 803 217 485 217 644 m 1272 304 b 1272 553 1272 388 1272 471 b 1272 808 1272 638 1274 724 b 1179 908 1272 867 1236 907 b 336 908 1044 910 471 910 b 240 807 278 907 240 867 b 240 301 240 639 240 469 b 342 201 240 240 279 201 b 1171 201 471 201 1040 201 b 1272 304 1233 201 1272 239 "},"b":{"ha":1081,"x_min":0,"x_max":0,"o":"m 485 458 l 540 299 l 519 299 l 504 339 l 444 339 l 431 299 l 408 299 l 467 458 m 500 357 l 476 426 l 475 426 l 451 357 m 564 299 l 564 469 l 586 469 l 586 299 m 665 314 b 668 315 667 315 668 315 l 671 300 b 664 297 669 300 667 299 b 656 296 661 297 658 296 b 635 304 646 296 639 299 b 626 329 629 310 626 318 l 626 401 l 608 401 l 608 417 l 626 417 l 626 444 l 649 444 l 649 417 l 671 417 l 671 401 l 649 401 l 649 329 b 651 317 649 324 650 319 b 661 314 654 315 657 314 b 665 314 663 314 664 314 m 1011 822 b 1011 150 1011 599 1011 374 b 863 1 1011 57 956 1 b 219 1 647 1 433 1 b 71 149 128 1 71 58 b 71 488 69 261 71 375 b 71 821 71 599 71 710 b 222 972 71 917 126 972 b 861 972 435 972 649 972 b 1011 822 956 972 1011 917 m 217 803 b 349 933 217 886 265 935 b 714 935 471 935 592 933 b 774 942 733 935 754 939 b 224 949 589 949 407 949 b 94 819 140 949 94 903 b 94 206 94 615 94 410 b 94 179 94 197 94 189 b 101 178 96 179 99 179 b 200 285 133 213 168 247 b 217 326 210 294 217 313 b 217 803 217 485 217 644 m 831 304 b 832 553 831 388 831 471 b 832 808 832 638 832 724 b 738 908 832 867 794 907 b 336 908 603 910 471 910 b 240 807 278 907 240 867 b 240 301 240 639 240 469 b 342 201 240 240 279 201 b 729 201 471 201 600 201 b 831 304 793 201 831 239 "},"c":{"ha":1163,"x_min":0,"x_max":0,"o":"m 453 429 b 442 392 446 419 442 407 l 442 363 b 451 326 442 347 444 336 b 481 313 460 317 469 313 b 508 322 493 313 501 315 b 518 349 515 328 518 338 l 539 349 l 539 347 b 524 310 539 333 535 319 b 481 296 514 300 499 296 b 438 315 463 296 449 303 b 419 364 426 328 419 344 l 419 392 b 438 440 419 411 426 428 b 481 460 449 453 463 460 b 525 446 500 460 514 456 b 540 407 535 436 540 424 l 519 407 b 510 433 519 417 517 426 b 482 443 503 440 494 443 b 453 429 469 443 460 439 m 613 314 b 615 315 614 315 615 315 l 618 300 b 611 297 615 300 614 299 b 601 296 607 297 604 296 b 581 304 593 296 586 299 b 574 329 575 310 574 318 l 574 401 l 554 401 l 554 417 l 574 417 l 574 444 l 594 444 l 594 417 l 617 417 l 617 401 l 594 401 l 594 329 b 599 317 594 324 596 319 b 607 314 601 315 604 314 b 613 314 608 314 611 314 m 692 419 b 696 418 693 419 694 418 b 700 417 697 418 699 417 l 696 397 l 685 397 b 671 394 681 397 675 397 b 663 383 667 392 664 388 l 663 299 l 640 299 l 640 417 l 660 417 l 663 400 b 675 414 665 406 669 410 b 692 419 681 417 685 419 m 721 299 l 721 469 l 743 469 l 743 299 m 1093 822 b 1093 150 1093 599 1093 374 b 944 1 1093 57 1036 1 b 218 1 729 1 433 1 b 69 149 128 1 71 58 b 69 488 69 261 69 375 b 69 821 69 599 69 710 b 222 972 69 917 126 972 b 943 972 435 972 731 972 b 1093 822 1036 972 1093 917 m 217 803 b 349 933 217 886 265 935 b 796 935 469 935 674 933 b 856 942 815 935 836 939 b 224 949 671 949 407 949 b 93 819 139 949 93 903 b 93 206 93 615 93 410 b 93 179 93 197 93 189 b 100 178 96 179 99 179 b 199 285 133 213 168 247 b 215 326 208 294 215 313 b 217 803 217 485 217 644 m 913 304 b 914 553 914 388 913 471 b 914 808 914 638 914 724 b 819 908 914 867 876 907 b 336 908 685 910 469 910 b 240 807 276 907 240 867 b 240 301 240 639 240 469 b 342 201 240 240 279 201 b 811 201 471 201 682 201 b 913 304 875 201 913 239 "},"d":{"ha":1082,"x_min":0,"x_max":0,"o":"m 432 458 l 532 458 l 532 442 l 454 442 l 454 386 l 521 386 l 521 368 l 454 368 l 454 299 l 432 299 m 608 419 b 639 407 622 419 632 415 b 650 374 646 400 650 389 l 650 299 l 628 299 l 628 372 b 622 394 628 383 625 390 b 603 401 618 400 611 401 b 586 397 596 401 590 401 b 575 386 582 394 578 392 l 575 299 l 553 299 l 553 417 l 572 417 l 574 399 b 589 414 578 406 583 410 b 608 419 594 417 601 419 m 1011 822 b 1011 150 1013 599 1013 374 b 861 1 1011 57 954 1 b 218 1 647 1 433 1 b 69 149 128 1 71 58 b 69 488 69 261 69 375 b 69 821 69 599 69 710 b 222 972 69 917 126 972 b 860 972 435 972 647 972 b 1011 822 954 972 1011 917 m 217 803 b 349 933 217 886 265 935 b 714 935 469 935 592 933 b 772 942 733 935 753 939 b 224 949 589 949 407 949 b 93 819 139 949 93 903 b 93 206 93 615 93 410 b 93 179 93 197 93 189 b 100 178 96 179 99 179 b 199 285 133 213 168 247 b 215 326 208 294 215 313 b 217 803 217 485 217 644 m 831 304 b 832 553 831 388 831 471 b 832 808 832 638 832 724 b 738 908 832 867 796 907 b 336 908 604 910 471 910 b 242 807 278 907 242 867 b 242 301 242 639 242 469 b 342 201 242 240 281 201 b 729 201 471 201 600 201 b 831 304 793 201 831 239 "},"e":{"ha":1522,"x_min":0,"x_max":0,"o":"m 582 458 l 708 458 l 708 442 l 656 442 l 656 299 l 635 299 l 635 442 l 582 442 m 808 322 b 810 308 808 318 810 314 b 813 297 810 304 811 300 l 790 297 b 789 307 789 300 789 304 b 788 315 788 310 788 313 b 772 300 783 308 779 304 b 751 294 765 297 758 294 b 722 304 739 294 729 299 b 713 331 715 311 713 319 b 726 357 713 343 718 351 b 764 367 735 364 749 367 l 788 367 l 788 379 b 781 396 788 386 786 392 b 763 401 776 400 771 401 b 746 396 756 401 750 400 b 739 383 742 393 739 389 l 719 383 l 719 385 b 731 408 718 393 722 401 b 764 419 739 415 750 419 b 796 408 778 419 788 415 b 808 379 804 401 808 392 l 808 322 m 786 354 l 761 354 b 740 347 753 354 746 351 b 733 332 735 343 733 338 b 739 318 733 326 735 322 b 753 314 742 315 746 314 b 774 321 761 314 768 317 b 786 335 781 325 783 329 m 894 419 b 926 401 908 419 918 414 b 939 356 935 390 939 374 l 939 353 b 926 313 939 336 935 322 b 893 296 918 301 907 296 b 874 300 886 296 879 297 b 858 314 868 304 863 308 l 856 297 l 839 297 l 839 469 l 860 469 l 860 403 b 875 414 864 407 869 411 b 894 419 881 417 886 419 m 918 357 b 911 390 918 371 917 382 b 888 403 906 397 899 403 b 871 397 882 403 876 400 b 860 383 867 393 864 389 l 860 332 b 871 318 864 326 867 322 b 889 314 876 315 882 314 b 911 325 899 314 906 318 b 918 353 917 332 918 342 m 1453 822 b 1453 150 1453 599 1453 374 b 1303 1 1453 57 1396 1 b 218 1 1089 1 433 1 b 69 149 128 1 71 58 b 69 488 69 261 69 375 b 69 821 69 599 69 710 b 222 972 69 917 126 972 b 1301 972 435 972 1089 972 b 1453 822 1396 972 1453 917 m 217 803 b 349 933 217 886 265 935 b 1156 935 469 935 1033 933 b 1214 942 1175 935 1194 939 b 224 949 1031 949 407 949 b 93 819 139 949 93 903 b 93 206 93 615 93 410 b 93 179 93 197 93 189 b 100 178 96 179 99 179 b 199 285 133 213 168 247 b 215 326 208 294 215 313 b 217 803 217 485 217 644 m 1272 304 b 1274 553 1272 388 1272 471 b 1274 808 1274 638 1274 724 b 1179 908 1274 867 1236 907 b 336 908 1044 910 471 910 b 242 807 278 907 242 867 b 242 301 242 639 242 469 b 342 201 242 240 281 201 b 1171 201 471 201 1042 201 b 1272 304 1235 201 1272 239 "},"f":{"ha":1544,"x_min":0,"x_max":0,"o":"m 288 429 b 276 392 281 419 276 407 l 276 363 b 288 326 276 347 281 336 b 317 313 294 317 304 313 b 344 322 329 313 338 315 b 354 349 351 328 354 338 l 374 349 l 374 347 b 358 310 374 333 369 319 b 315 296 349 300 333 296 b 272 315 297 296 283 303 b 254 364 261 328 254 344 l 254 392 b 272 440 254 411 261 428 b 315 460 283 453 297 460 b 360 446 335 460 349 456 b 375 407 369 436 375 424 l 354 407 b 344 433 354 417 351 426 b 317 443 338 440 329 443 b 288 429 304 443 294 439 m 492 322 b 494 308 492 318 494 314 b 496 297 494 304 494 300 l 474 297 b 472 307 472 300 472 304 b 471 315 471 310 471 313 b 456 300 468 308 463 304 b 435 294 449 297 442 294 b 407 304 422 294 413 299 b 397 331 400 311 397 319 b 410 357 397 343 401 351 b 447 367 419 364 432 367 l 471 367 l 471 379 b 465 396 471 386 469 392 b 447 401 460 400 454 401 b 429 396 439 401 433 400 b 422 383 425 393 422 389 l 403 383 l 403 385 b 414 408 401 393 407 401 b 447 419 422 415 433 419 b 479 408 461 419 471 415 b 492 379 488 401 492 392 l 492 322 m 469 354 l 446 354 b 425 347 438 354 431 353 b 418 332 419 343 418 338 b 422 319 418 326 419 322 b 438 315 426 317 431 315 b 458 321 444 315 451 317 b 469 335 464 325 468 329 m 578 419 b 613 401 593 419 604 414 b 624 356 621 390 624 375 l 624 353 b 613 313 624 336 621 322 b 578 296 604 301 593 296 b 558 300 571 296 564 297 b 544 311 553 303 549 306 l 544 254 l 524 254 l 524 417 l 539 417 l 543 401 b 557 414 547 407 551 411 b 578 419 564 417 569 419 m 601 353 l 601 356 b 593 388 601 368 599 381 b 569 401 588 396 581 401 b 554 396 564 401 558 399 b 544 385 550 394 547 390 l 544 328 b 554 317 546 324 550 318 b 571 313 558 314 565 313 b 594 324 582 313 589 317 b 603 353 599 332 603 342 m 731 354 b 742 329 738 349 742 342 b 729 304 742 318 738 310 b 696 294 721 297 710 294 b 660 306 681 294 669 297 b 647 332 651 313 646 322 l 647 333 l 668 333 b 676 317 668 325 671 319 b 694 311 682 313 688 311 b 713 317 703 311 708 314 b 719 329 718 319 719 324 b 714 342 719 335 718 338 b 694 349 711 344 704 347 b 663 363 681 353 669 357 b 651 383 654 367 651 375 b 663 408 651 393 654 401 b 694 419 671 415 682 419 b 728 407 708 419 719 415 b 740 382 736 400 740 392 l 719 382 b 713 396 719 386 717 392 b 694 401 708 400 701 401 b 678 396 688 401 682 400 b 672 385 674 393 672 389 b 676 374 672 379 674 375 b 697 367 681 371 686 368 b 731 354 711 364 722 360 m 849 315 l 926 315 l 926 299 l 826 299 l 826 458 l 849 458 m 994 419 b 1033 403 1011 419 1024 414 b 1049 358 1043 392 1049 376 l 1049 356 b 1033 313 1049 338 1043 324 b 994 296 1024 301 1011 296 b 956 313 978 296 965 301 b 942 356 946 324 942 338 l 942 358 b 956 401 942 376 946 390 b 994 419 965 413 978 419 m 1026 358 b 1018 390 1026 371 1024 382 b 994 403 1013 397 1004 403 b 971 390 985 403 976 397 b 963 358 965 382 963 372 l 963 357 b 971 325 963 344 965 333 b 994 314 976 317 985 314 b 1018 325 1004 314 1013 317 b 1026 357 1024 333 1026 344 m 1099 390 b 1092 357 1093 382 1092 372 l 1092 353 b 1099 324 1092 342 1094 332 b 1122 311 1103 315 1111 311 b 1139 318 1129 311 1133 314 b 1147 335 1144 322 1147 328 l 1168 335 l 1168 333 b 1154 307 1168 324 1163 315 b 1122 294 1146 299 1135 294 b 1083 313 1106 294 1093 300 b 1071 354 1075 324 1071 338 l 1071 358 b 1083 401 1071 375 1075 390 b 1122 418 1093 413 1106 418 b 1154 406 1135 418 1146 414 b 1167 376 1163 397 1167 388 l 1167 375 l 1147 375 b 1140 394 1147 383 1144 389 b 1122 401 1136 400 1129 401 b 1099 390 1111 401 1103 397 m 1243 363 l 1289 299 l 1264 299 l 1225 353 l 1214 353 l 1214 299 l 1192 299 l 1192 469 l 1214 469 l 1214 371 l 1225 371 l 1260 417 l 1286 417 m 1475 822 b 1475 150 1475 599 1475 374 b 1325 1 1475 57 1418 1 b 218 1 1111 1 433 1 b 69 149 128 1 71 58 b 69 488 69 261 69 375 b 69 821 69 599 69 710 b 222 972 69 917 126 972 b 1324 972 435 972 1111 972 b 1475 822 1418 972 1475 917 m 217 803 b 349 933 217 886 265 935 b 1178 935 469 935 1056 933 b 1236 942 1197 935 1217 939 b 224 949 1053 949 407 949 b 93 819 139 949 93 903 b 93 206 93 615 93 410 b 93 179 93 197 93 189 b 100 178 96 179 99 179 b 199 285 133 213 168 247 b 215 326 208 294 215 313 b 217 803 217 485 217 644 m 1294 304 b 1296 553 1294 388 1294 471 b 1296 808 1296 638 1296 724 b 1201 908 1296 867 1258 907 b 336 908 1068 910 471 910 b 242 807 278 907 242 867 b 242 301 242 639 242 469 b 342 201 242 240 281 201 b 1193 201 471 201 1064 201 b 1294 304 1257 201 1294 239 "},"g":{"ha":2071,"x_min":0,"x_max":0,"o":"m 872 388 b 910 368 889 383 901 376 b 922 339 918 361 922 351 b 908 308 922 326 918 315 b 868 296 897 300 885 296 b 826 308 853 296 839 300 b 810 343 815 317 810 329 l 810 344 l 831 344 b 842 321 831 335 835 326 b 868 313 850 315 858 313 b 892 319 878 313 885 315 b 900 338 897 324 900 329 b 893 356 900 344 899 351 b 865 368 888 361 878 365 b 826 386 849 374 836 379 b 814 415 818 394 814 404 b 829 447 814 429 819 439 b 867 460 839 456 851 460 b 907 446 883 460 897 456 b 921 413 917 436 921 425 l 921 411 l 900 411 b 890 433 900 421 897 428 b 867 443 885 440 876 443 b 843 435 857 443 849 440 b 835 417 839 431 835 424 b 844 400 835 410 839 404 b 872 388 850 394 860 392 m 1006 419 b 1035 407 1018 419 1028 415 b 1046 372 1042 400 1046 388 l 1046 299 l 1024 299 l 1024 374 b 1018 394 1024 383 1021 390 b 999 401 1014 400 1007 401 b 982 397 993 401 988 400 b 971 388 978 396 975 392 l 971 297 l 950 297 l 950 469 l 971 469 l 971 401 b 986 414 975 407 981 411 b 1006 419 992 417 999 419 m 1079 299 l 1079 417 l 1101 417 l 1101 299 m 1079 449 l 1079 469 l 1101 469 l 1101 449 m 1181 472 b 1189 471 1183 472 1185 471 b 1196 469 1190 471 1193 471 l 1193 453 b 1189 454 1193 453 1192 454 b 1183 454 1186 454 1185 454 b 1169 449 1176 454 1172 451 b 1164 432 1165 444 1164 439 l 1164 417 l 1186 417 l 1186 401 l 1164 401 l 1164 299 l 1143 299 l 1143 401 l 1124 401 l 1124 417 l 1143 417 l 1143 432 b 1153 461 1143 444 1146 454 b 1181 472 1160 468 1168 472 m 1254 314 b 1257 315 1256 315 1257 315 l 1260 300 b 1253 297 1258 300 1256 299 b 1243 296 1250 297 1247 296 b 1222 304 1235 296 1228 299 b 1215 329 1218 310 1215 318 l 1215 401 l 1196 401 l 1196 417 l 1215 417 l 1215 444 l 1238 444 l 1238 417 l 1260 417 l 1260 401 l 1238 401 l 1238 329 b 1240 317 1238 324 1239 319 b 1250 314 1243 315 1246 314 b 1254 314 1251 314 1253 314 m 2000 822 b 2001 150 2000 599 2000 374 b 1851 1 2001 57 1944 1 b 219 1 1638 1 435 1 b 71 149 129 1 72 58 b 71 488 71 261 71 375 b 71 821 71 599 71 710 b 224 972 71 917 126 972 b 1850 972 436 972 1638 972 b 2000 822 1943 972 2000 917 m 217 803 b 347 933 217 886 265 935 b 1701 935 469 935 1581 933 b 1761 942 1721 935 1742 939 b 224 949 1578 949 407 949 b 94 819 140 949 94 903 b 94 206 94 615 94 410 b 94 179 94 197 94 189 b 101 178 96 179 99 179 b 200 285 133 213 168 247 b 217 326 210 294 217 313 b 217 803 217 485 217 644 m 1819 304 b 1821 553 1821 388 1819 471 b 1821 808 1821 638 1821 724 b 1726 908 1821 867 1783 907 b 338 908 1593 910 471 910 b 242 807 278 907 242 867 b 242 301 242 639 242 469 b 343 201 242 240 281 201 b 1718 201 471 201 1589 201 b 1819 304 1782 201 1819 239 "},"h":{"ha":2069,"x_min":0,"x_max":0,"o":"m 579 383 b 606 371 590 382 599 378 b 614 343 611 363 614 354 b 600 310 614 328 610 317 b 561 299 590 303 578 299 l 497 299 l 497 458 l 550 458 b 589 447 567 458 579 454 b 603 415 599 440 603 429 b 597 396 603 408 601 403 b 579 383 592 390 586 386 m 519 390 l 554 390 b 574 396 563 390 569 392 b 582 415 579 401 582 407 b 574 435 582 424 579 431 b 550 442 568 439 561 442 l 519 442 m 583 322 b 592 342 589 328 592 335 b 583 364 592 351 589 357 b 561 372 578 369 571 372 l 519 372 l 519 315 l 561 315 b 583 322 571 315 579 318 m 729 322 b 732 308 729 318 732 314 b 735 297 732 304 733 300 l 713 297 b 710 307 711 300 711 304 b 710 315 710 310 710 313 b 694 300 706 308 700 304 b 674 294 688 297 681 294 b 644 304 660 294 651 299 b 635 331 638 311 635 319 b 649 357 635 343 639 351 b 686 367 657 364 669 367 l 708 367 l 708 379 b 703 396 708 386 707 392 b 685 401 699 400 693 401 b 668 396 678 401 672 400 b 661 383 664 393 661 389 l 640 383 l 640 385 b 653 408 640 393 644 401 b 686 419 661 415 672 419 b 718 408 699 419 710 415 b 729 379 726 401 729 392 l 729 322 m 708 354 l 685 354 b 664 347 675 354 668 353 b 656 332 658 343 656 338 b 661 319 656 326 658 322 b 675 315 664 317 668 315 b 696 321 683 315 690 317 b 708 335 703 325 706 329 m 785 390 b 778 357 781 382 778 372 l 778 353 b 786 324 778 342 782 332 b 810 311 790 315 799 311 b 826 318 815 311 821 314 b 833 335 832 322 833 328 l 853 335 l 853 333 b 840 307 853 324 849 315 b 808 294 831 299 821 294 b 769 313 792 294 778 300 b 756 354 761 324 756 338 l 756 358 b 769 401 756 375 761 390 b 807 418 778 413 792 418 b 840 406 821 418 832 414 b 851 376 849 397 851 388 l 851 375 l 832 375 b 825 394 832 383 831 389 b 807 401 821 400 815 401 b 785 390 797 401 789 397 m 929 363 l 976 299 l 950 299 l 911 353 l 900 353 l 900 299 l 879 299 l 879 469 l 900 469 l 900 371 l 911 371 l 947 417 l 972 417 m 1072 354 b 1085 329 1079 349 1083 342 b 1072 304 1085 318 1079 310 b 1038 294 1063 297 1051 294 b 1001 306 1024 294 1011 297 b 989 332 993 313 989 322 l 989 333 l 1010 333 b 1018 317 1010 325 1014 319 b 1038 311 1024 313 1029 311 b 1056 317 1044 311 1050 314 b 1063 329 1060 319 1063 324 b 1057 342 1063 335 1060 338 b 1036 349 1054 344 1046 347 b 1004 363 1022 353 1011 357 b 993 383 997 367 993 375 b 1006 408 993 393 997 401 b 1038 419 1014 415 1025 419 b 1069 407 1050 419 1063 415 b 1082 382 1078 400 1082 392 l 1061 382 b 1054 396 1061 386 1058 392 b 1038 401 1050 400 1044 401 b 1019 396 1029 401 1024 400 b 1014 385 1017 393 1014 389 b 1019 374 1014 379 1017 375 b 1039 367 1022 371 1029 368 b 1072 354 1054 364 1065 360 m 1165 419 b 1200 401 1181 419 1192 414 b 1211 356 1208 390 1211 375 l 1211 353 b 1200 313 1211 336 1208 322 b 1165 296 1192 301 1181 296 b 1146 300 1158 296 1151 297 b 1132 311 1140 303 1136 306 l 1132 254 l 1111 254 l 1111 417 l 1126 417 l 1131 401 b 1144 414 1135 407 1139 411 b 1165 419 1151 417 1157 419 m 1189 353 l 1189 356 b 1181 388 1189 368 1186 379 b 1157 401 1175 396 1168 401 b 1142 396 1151 401 1146 399 b 1132 385 1138 394 1135 390 l 1132 328 b 1142 317 1133 324 1138 318 b 1158 313 1146 314 1153 313 b 1182 324 1169 313 1176 317 b 1190 353 1186 332 1190 342 m 1331 322 b 1332 308 1331 318 1332 314 b 1335 297 1332 304 1333 300 l 1313 297 b 1311 307 1311 300 1311 304 b 1310 315 1310 310 1310 313 b 1294 300 1307 308 1301 304 b 1274 294 1288 297 1281 294 b 1244 304 1261 294 1251 299 b 1235 331 1239 311 1235 319 b 1249 357 1235 343 1240 351 b 1286 367 1258 364 1271 367 l 1310 367 l 1310 379 b 1303 396 1310 386 1308 392 b 1286 401 1299 400 1293 401 b 1268 396 1278 401 1272 400 b 1261 383 1264 393 1261 389 l 1242 383 l 1242 385 b 1253 408 1240 393 1244 401 b 1286 419 1261 415 1272 419 b 1318 408 1300 419 1310 415 b 1331 379 1326 401 1331 392 l 1331 322 m 1308 354 l 1285 354 b 1264 347 1276 354 1269 353 b 1257 332 1258 343 1257 338 b 1261 319 1257 326 1258 322 b 1276 315 1264 317 1269 315 b 1297 321 1283 315 1290 317 b 1308 335 1303 325 1307 329 m 1386 390 b 1379 357 1381 382 1378 372 l 1379 353 b 1386 324 1379 342 1382 332 b 1410 311 1390 315 1399 311 b 1426 318 1417 311 1422 314 b 1435 335 1432 322 1435 328 l 1454 335 l 1454 333 b 1440 307 1454 324 1449 315 b 1408 294 1432 299 1421 294 b 1369 313 1392 294 1379 300 b 1357 354 1361 324 1357 338 l 1357 358 b 1369 401 1357 375 1361 390 b 1408 418 1379 413 1393 418 b 1442 406 1422 418 1433 414 b 1453 376 1449 397 1453 388 l 1453 375 l 1433 375 b 1426 394 1433 383 1432 389 b 1408 401 1422 400 1417 401 b 1386 390 1399 401 1390 397 m 1525 419 b 1560 407 1540 419 1553 414 b 1571 367 1568 396 1571 383 l 1571 356 l 1496 356 b 1504 326 1496 343 1499 333 b 1528 315 1510 318 1517 315 b 1547 318 1535 315 1542 315 b 1561 326 1553 319 1558 322 l 1569 313 b 1553 301 1565 307 1561 304 b 1528 297 1546 299 1538 297 b 1488 314 1511 297 1497 303 b 1474 356 1478 324 1474 338 l 1474 361 b 1489 403 1474 376 1479 392 b 1525 419 1499 414 1511 419 m 1550 374 b 1544 394 1550 382 1549 390 b 1525 403 1540 400 1533 403 b 1506 394 1517 403 1511 400 b 1497 372 1501 388 1497 381 l 1497 371 l 1550 371 m 2000 822 b 2000 150 2000 599 2000 374 b 1851 1 2000 57 1943 1 b 219 1 1636 1 433 1 b 71 149 128 1 71 58 b 71 488 69 261 71 375 b 71 821 71 599 71 710 b 222 972 71 917 126 972 b 1849 972 435 972 1636 972 b 2000 822 1943 972 2000 917 m 217 803 b 347 933 217 886 265 935 b 1701 935 469 935 1581 933 b 1761 942 1721 935 1742 939 b 224 949 1578 949 407 949 b 94 819 140 949 94 903 b 94 206 94 615 94 410 b 94 179 94 197 94 189 b 101 178 96 179 99 179 b 200 285 133 213 168 247 b 217 326 210 294 217 313 b 217 803 217 485 217 644 m 1819 304 b 1821 553 1819 388 1819 471 b 1821 808 1821 638 1821 724 b 1726 908 1821 867 1783 907 b 338 908 1593 910 471 910 b 242 807 278 907 242 867 b 242 301 242 639 242 469 b 343 201 242 240 281 201 b 1718 201 471 201 1589 201 b 1819 304 1782 201 1819 239 "},"i":{"ha":1522,"x_min":0,"x_max":0,"o":"m 485 299 l 485 458 l 506 458 l 506 299 m 599 419 b 628 407 611 419 622 415 b 639 374 635 400 639 389 l 639 299 l 617 299 l 617 372 b 611 394 617 383 615 390 b 593 401 607 400 601 401 b 575 397 586 401 579 401 b 564 386 571 394 567 392 l 564 299 l 543 299 l 543 417 l 563 417 l 564 399 b 578 414 567 406 572 410 b 599 419 585 417 592 419 m 749 354 b 761 329 757 349 760 342 b 749 304 761 318 757 310 b 714 294 739 297 728 294 b 679 306 700 294 688 297 b 665 332 669 313 665 322 l 665 333 l 686 333 b 694 317 686 325 690 319 b 714 311 700 313 706 311 b 732 317 721 311 728 314 b 739 329 736 319 739 324 b 733 342 739 335 738 338 b 713 349 731 344 722 347 b 681 363 699 353 689 357 b 669 383 674 367 669 375 b 682 408 669 393 674 401 b 714 419 690 415 701 419 b 747 407 728 419 739 415 b 758 382 754 400 758 392 l 738 382 b 731 396 738 386 735 392 b 714 401 726 400 721 401 b 696 396 706 401 700 400 b 690 385 693 393 690 389 b 696 374 690 379 693 375 b 715 367 699 371 706 368 b 749 354 731 364 742 360 m 832 419 b 867 407 849 419 858 417 b 879 367 875 396 879 383 l 879 356 l 803 356 b 811 326 803 343 807 333 b 836 315 817 318 825 315 b 856 318 843 315 850 315 b 869 326 860 319 865 322 l 878 313 b 861 301 874 307 868 304 b 836 297 854 299 846 297 b 796 314 818 297 806 303 b 782 356 786 324 782 338 l 782 361 b 797 403 782 376 788 392 b 832 419 807 414 818 419 m 858 374 b 853 394 858 382 857 390 b 833 403 849 400 842 403 b 815 394 826 403 819 400 b 806 372 810 388 807 381 l 806 371 l 858 371 m 956 419 b 958 418 957 419 957 418 b 963 417 961 418 963 417 l 960 397 l 949 397 b 935 394 943 397 938 397 b 925 383 931 392 928 388 l 925 299 l 904 299 l 904 417 l 924 417 l 925 400 b 938 414 929 406 933 410 b 956 419 943 417 949 419 m 1032 314 b 1035 315 1033 315 1035 315 l 1038 300 b 1031 297 1035 300 1033 299 b 1021 296 1026 297 1024 296 b 1000 304 1013 296 1006 299 b 993 329 994 310 993 318 l 993 401 l 974 401 l 974 417 l 993 417 l 993 444 l 1014 444 l 1014 417 l 1036 417 l 1036 401 l 1014 401 l 1014 329 b 1018 317 1014 324 1015 319 b 1026 314 1021 315 1024 314 b 1032 314 1029 314 1031 314 m 1453 822 b 1453 150 1453 599 1453 374 b 1303 1 1453 57 1396 1 b 218 1 1089 1 433 1 b 69 149 128 1 71 58 b 69 488 69 261 69 375 b 69 821 69 599 69 710 b 222 972 69 917 126 972 b 1301 972 435 972 1089 972 b 1453 822 1396 972 1453 917 m 217 803 b 349 933 217 886 265 935 b 1156 935 469 935 1033 933 b 1214 942 1175 935 1194 939 b 224 949 1031 949 407 949 b 93 819 139 949 93 903 b 93 206 93 615 93 410 b 93 179 93 197 93 189 b 100 178 96 179 99 179 b 199 285 133 213 168 247 b 215 326 208 294 215 313 b 217 803 217 485 217 644 m 1272 304 b 1274 553 1272 388 1272 471 b 1274 808 1274 638 1274 724 b 1179 908 1274 867 1236 907 b 336 908 1044 910 471 910 b 242 807 278 907 242 867 b 242 301 242 639 242 469 b 342 201 242 240 281 201 b 1171 201 471 201 1042 201 b 1272 304 1235 201 1272 239 "},"j":{"ha":1111,"x_min":0,"x_max":0,"o":"m 369 458 l 390 458 l 390 299 l 369 299 l 369 368 l 292 368 l 292 299 l 269 299 l 269 458 l 292 458 l 292 386 l 369 386 m 472 419 b 511 403 489 419 501 414 b 525 358 521 392 525 376 l 525 356 b 511 313 525 338 521 324 b 472 296 501 301 489 296 b 433 313 456 296 443 301 b 419 356 424 324 419 338 l 419 358 b 433 401 419 376 424 390 b 472 419 443 413 456 419 m 504 358 b 496 390 504 371 501 382 b 472 403 490 397 482 403 b 449 390 463 403 454 397 b 440 358 443 382 440 372 l 440 357 b 449 325 440 344 443 333 b 472 314 456 317 463 314 b 496 325 482 314 490 317 b 504 357 501 333 504 344 m 678 419 b 706 407 690 419 700 415 b 717 369 713 399 717 386 l 717 299 l 694 299 l 694 369 b 689 394 694 381 693 389 b 671 401 685 400 679 401 b 653 394 664 401 657 400 b 644 375 649 389 646 382 l 644 297 l 624 297 l 624 368 b 617 393 624 381 622 388 b 599 401 613 399 607 401 b 583 397 593 401 588 400 b 574 386 578 394 575 392 l 574 299 l 551 299 l 551 417 l 571 417 l 572 401 b 588 414 576 407 582 411 b 608 419 593 417 601 419 b 628 414 615 419 624 417 b 642 397 633 410 638 404 b 656 413 644 404 650 410 b 678 419 663 417 669 419 m 793 419 b 828 407 810 419 819 417 b 840 367 836 396 840 383 l 840 356 l 764 356 b 772 326 764 343 768 333 b 797 315 778 318 786 315 b 817 318 804 315 811 317 b 831 326 821 319 826 322 l 839 313 b 822 301 835 307 829 304 b 797 297 815 299 807 297 b 757 314 779 297 767 303 b 743 356 747 324 743 338 l 743 361 b 758 403 743 376 749 392 b 793 419 768 414 779 419 m 819 374 b 814 394 819 382 818 390 b 794 403 810 400 803 403 b 776 394 788 403 781 400 b 767 372 771 388 768 381 l 767 371 l 819 371 m 1042 822 b 1042 150 1042 599 1042 374 b 892 1 1042 57 985 1 b 218 1 676 1 433 1 b 69 149 128 1 71 58 b 69 488 69 261 69 375 b 69 821 69 599 69 710 b 222 972 69 917 126 972 b 890 972 435 972 678 972 b 1042 822 985 972 1042 917 m 217 803 b 349 933 217 886 265 935 b 743 935 469 935 622 933 b 803 942 763 935 783 939 b 224 949 618 949 407 949 b 93 819 139 949 93 903 b 93 206 93 615 93 410 b 93 179 93 197 93 189 b 100 178 96 179 99 179 b 199 285 133 213 168 247 b 215 326 208 294 215 313 b 217 803 217 485 217 644 m 861 304 b 861 553 861 388 861 471 b 861 808 861 638 863 724 b 768 908 861 867 825 907 b 336 908 633 910 471 910 b 242 807 278 907 242 867 b 242 301 242 639 242 469 b 342 201 242 240 281 201 b 760 201 471 201 631 201 b 861 304 822 201 861 239 "},"k":{"ha":1522,"x_min":0,"x_max":0,"o":"m 507 458 b 557 439 528 458 544 451 b 575 389 569 425 575 410 l 575 367 b 557 318 575 347 569 331 b 507 299 544 306 528 299 l 457 299 l 457 458 l 507 458 m 554 390 b 542 426 554 404 550 417 b 507 442 533 436 521 442 l 478 442 l 478 315 l 507 315 b 542 329 521 315 533 319 b 554 367 550 339 554 353 m 651 419 b 685 407 667 419 676 417 b 697 367 693 396 697 383 l 697 356 l 622 356 b 631 326 622 343 625 333 b 654 315 635 318 643 315 b 674 318 661 315 668 315 b 688 326 679 319 683 322 l 696 313 b 679 301 692 307 686 304 b 654 297 672 299 664 297 b 614 314 636 297 624 303 b 600 356 604 324 600 338 l 600 361 b 615 403 600 376 606 392 b 651 419 625 414 636 419 m 676 374 b 671 394 676 382 675 390 b 651 403 667 400 661 403 b 633 394 644 403 638 400 b 624 372 628 388 625 381 l 624 371 l 676 371 m 725 299 l 725 469 l 747 469 l 747 299 m 825 419 b 860 407 840 419 851 417 b 871 367 868 396 871 383 l 871 356 l 796 356 b 804 326 796 343 799 333 b 828 315 810 318 818 315 b 847 318 836 315 842 315 b 861 326 853 319 858 322 l 869 313 b 854 301 867 307 861 304 b 828 297 846 299 838 297 b 789 314 811 297 799 303 b 774 356 779 324 774 338 l 774 361 b 789 403 774 376 779 392 b 825 419 799 414 811 419 m 851 374 b 846 394 851 382 849 390 b 826 403 842 400 835 403 b 807 394 818 403 813 400 b 799 372 801 388 799 381 l 799 371 l 851 371 m 943 314 b 946 315 944 315 946 315 l 949 300 b 942 297 947 300 944 299 b 933 296 939 297 936 296 b 913 304 924 296 917 299 b 904 329 907 310 904 318 l 904 401 l 886 401 l 886 417 l 904 417 l 904 444 l 926 444 l 926 417 l 949 417 l 949 401 l 926 401 l 926 329 b 929 317 926 324 928 319 b 939 314 932 315 935 314 b 943 314 940 314 942 314 m 1018 419 b 1053 407 1033 419 1044 417 b 1064 367 1061 396 1064 383 l 1064 356 l 989 356 b 997 326 989 343 992 333 b 1021 315 1003 318 1011 315 b 1040 318 1029 315 1035 315 b 1054 326 1046 319 1051 322 l 1063 313 b 1046 301 1060 307 1054 304 b 1021 297 1039 299 1031 297 b 982 314 1004 297 992 303 b 967 356 972 324 967 338 l 967 361 b 982 403 967 376 972 392 b 1018 419 992 414 1004 419 m 1044 374 b 1039 394 1044 382 1042 390 b 1019 403 1035 400 1028 403 b 1000 394 1011 403 1006 400 b 992 372 994 388 992 381 l 992 371 l 1044 371 m 1453 822 b 1453 150 1453 599 1453 374 b 1303 1 1453 57 1396 1 b 218 1 1089 1 433 1 b 69 149 128 1 71 58 b 69 488 69 261 69 375 b 69 821 69 599 69 710 b 222 972 69 917 126 972 b 1301 972 435 972 1089 972 b 1453 822 1396 972 1453 917 m 217 803 b 349 933 217 886 265 935 b 1156 935 469 935 1033 933 b 1214 942 1175 935 1194 939 b 224 949 1031 949 407 949 b 93 819 139 949 93 903 b 93 206 93 615 93 410 b 93 179 93 197 93 189 b 100 178 96 179 99 179 b 199 285 133 213 168 247 b 215 326 208 294 215 313 b 217 803 217 485 217 644 m 1272 304 b 1272 553 1272 388 1272 471 b 1272 808 1272 638 1274 724 b 1178 908 1272 867 1236 907 b 336 908 1044 910 469 910 b 240 807 276 907 240 867 b 240 301 240 639 240 469 b 342 201 240 240 279 201 b 1169 201 471 201 1040 201 b 1272 304 1233 201 1272 239 "},"l":{"ha":1082,"x_min":0,"x_max":0,"o":"m 390 315 l 467 315 l 467 299 l 369 299 l 369 458 l 467 458 l 467 442 l 390 442 l 390 390 l 456 390 l 456 372 l 390 372 m 546 419 b 575 407 558 419 568 415 b 586 374 582 400 586 389 l 586 299 l 564 299 l 564 372 b 558 394 564 383 563 390 b 539 401 554 400 547 401 b 522 397 533 401 526 401 b 511 386 518 394 514 392 l 511 299 l 489 299 l 489 417 l 508 417 l 510 399 b 525 414 514 406 519 410 b 546 419 531 417 538 419 m 690 404 l 690 469 l 713 469 l 713 299 l 696 299 l 693 314 b 679 300 689 308 685 304 b 658 296 672 297 665 296 b 625 313 644 296 633 301 b 613 353 617 322 613 336 l 613 356 b 625 401 613 375 617 390 b 660 419 633 413 644 419 b 678 415 667 419 672 417 b 692 404 683 413 688 410 m 692 385 b 681 397 689 390 685 394 b 665 401 676 400 671 401 b 642 389 654 401 647 397 b 635 356 636 381 635 368 l 635 353 b 642 325 635 342 638 332 b 664 314 646 318 654 314 b 681 318 671 314 676 317 b 692 331 685 321 689 325 m 1011 822 b 1011 150 1013 599 1013 374 b 861 1 1011 57 954 1 b 218 1 647 1 433 1 b 69 149 128 1 71 58 b 69 488 69 261 69 375 b 69 821 69 599 69 710 b 222 972 69 917 126 972 b 860 972 435 972 647 972 b 1011 822 954 972 1011 917 m 217 803 b 349 933 217 886 265 935 b 714 935 469 935 592 933 b 772 942 733 935 753 939 b 224 949 589 949 407 949 b 93 819 139 949 93 903 b 93 206 93 615 93 410 b 93 179 93 197 93 189 b 100 178 96 179 99 179 b 199 285 133 213 168 247 b 215 326 208 294 215 313 b 217 803 217 485 217 644 m 831 304 b 832 553 831 388 831 471 b 832 808 832 638 832 724 b 738 908 832 867 796 907 b 336 908 604 910 471 910 b 242 807 278 907 242 867 b 242 301 242 639 242 469 b 342 201 242 240 281 201 b 729 201 471 201 600 201 b 831 304 793 201 831 239 "},"m":{"ha":1082,"x_min":0,"x_max":0,"o":"m 397 315 l 475 315 l 475 299 l 375 299 l 375 458 l 472 458 l 472 442 l 397 442 l 397 390 l 463 390 l 463 372 l 397 372 m 576 354 b 588 329 583 349 588 342 b 575 304 588 318 583 310 b 542 294 567 297 556 294 b 506 306 526 294 515 297 b 493 332 497 313 492 322 l 493 333 l 514 333 b 522 317 514 325 517 319 b 540 311 528 313 533 311 b 558 317 549 311 554 314 b 565 329 564 319 565 324 b 560 342 565 335 564 338 b 540 349 557 344 550 347 b 508 363 526 353 515 357 b 497 383 500 367 497 375 b 508 408 497 393 500 401 b 540 419 517 415 528 419 b 574 407 554 419 565 415 b 586 382 582 400 586 392 l 565 382 b 558 396 565 386 563 392 b 540 401 554 400 547 401 b 524 396 533 401 528 400 b 518 385 519 393 518 389 b 524 374 518 379 519 375 b 543 367 526 371 533 368 b 576 354 557 364 568 360 m 638 390 b 632 357 633 382 631 372 l 632 353 b 640 324 632 342 635 332 b 663 311 644 315 653 311 b 681 318 669 311 675 314 b 688 335 685 322 688 328 l 707 335 l 707 333 b 693 307 707 324 703 315 b 663 294 685 299 674 294 b 624 313 644 294 632 300 b 610 354 614 324 610 338 l 610 358 b 624 401 610 375 614 390 b 661 418 632 413 644 418 b 693 406 674 418 685 414 b 706 376 701 397 706 388 l 706 375 l 686 375 b 679 394 686 383 683 389 b 661 401 675 400 669 401 b 638 390 651 401 643 397 m 1011 822 b 1011 150 1013 599 1013 374 b 861 1 1011 57 954 1 b 218 1 647 1 433 1 b 69 149 128 1 71 58 b 69 488 69 261 69 375 b 69 821 69 599 69 710 b 222 972 69 917 126 972 b 860 972 435 972 647 972 b 1011 822 954 972 1011 917 m 217 803 b 349 933 217 886 265 935 b 714 935 469 935 592 933 b 772 942 733 935 753 939 b 224 949 589 949 407 949 b 93 819 139 949 93 903 b 93 206 93 615 93 410 b 93 179 93 197 93 189 b 100 178 96 179 99 179 b 199 285 133 213 168 247 b 215 326 208 294 215 313 b 217 803 217 485 217 644 m 831 304 b 832 553 831 388 831 471 b 832 808 832 638 832 724 b 738 908 832 867 796 907 b 336 908 604 910 471 910 b 242 807 278 907 242 867 b 242 301 242 639 242 469 b 342 201 242 240 281 201 b 729 201 471 201 600 201 b 831 304 793 201 831 239 "},"n":{"ha":2071,"x_min":0,"x_max":0,"o":"m 563 429 b 551 392 554 419 551 407 l 551 363 b 561 326 551 347 554 336 b 590 313 569 317 579 313 b 618 322 603 313 611 315 b 628 349 625 328 628 338 l 649 349 l 649 347 b 633 310 649 333 644 319 b 590 296 622 300 608 296 b 547 315 572 296 558 303 b 529 364 535 328 529 344 l 529 392 b 547 440 529 411 535 428 b 590 460 558 453 572 460 b 635 446 610 460 624 456 b 650 407 644 436 650 424 l 629 407 b 619 433 629 417 626 426 b 592 443 613 440 603 443 b 563 429 579 443 569 439 m 722 419 b 761 403 739 419 753 414 b 775 358 771 392 775 376 l 775 356 b 761 313 775 338 771 324 b 722 296 751 301 739 296 b 683 313 706 296 693 301 b 669 356 674 324 669 338 l 669 358 b 683 401 669 376 674 390 b 722 419 693 413 706 419 m 754 358 b 746 390 754 371 751 382 b 722 403 740 397 733 403 b 699 390 713 403 704 397 b 690 358 694 382 690 372 l 690 357 b 699 325 690 344 694 333 b 724 314 706 317 713 314 b 746 325 733 314 742 317 b 754 357 751 333 754 344 m 928 419 b 957 407 940 419 950 415 b 967 369 963 399 967 386 l 967 299 l 946 299 l 946 369 b 939 394 946 381 943 389 b 921 401 936 400 929 401 b 903 394 914 401 908 400 b 894 375 899 389 896 382 l 894 297 l 874 297 l 874 368 b 868 393 874 381 872 388 b 850 401 863 399 857 401 b 833 397 843 401 838 400 b 824 386 829 394 825 392 l 824 299 l 801 299 l 801 417 l 821 417 l 822 401 b 838 414 826 407 832 411 b 858 419 843 417 851 419 b 879 414 865 419 872 417 b 892 397 883 410 889 404 b 907 413 894 404 900 410 b 928 419 913 417 919 419 m 1124 419 b 1153 407 1136 419 1146 415 b 1163 369 1160 399 1163 386 l 1163 299 l 1142 299 l 1142 369 b 1135 394 1142 381 1139 389 b 1117 401 1132 400 1125 401 b 1099 394 1110 401 1104 400 b 1092 375 1094 389 1092 382 l 1092 297 l 1069 297 l 1069 368 b 1064 393 1069 381 1068 388 b 1046 401 1058 399 1053 401 b 1029 397 1039 401 1033 400 b 1019 386 1025 394 1021 392 l 1019 299 l 997 299 l 997 417 l 1017 417 l 1018 401 b 1033 414 1022 407 1028 411 b 1054 419 1039 417 1047 419 b 1075 414 1063 419 1068 417 b 1088 397 1079 410 1085 404 b 1103 413 1092 404 1096 410 b 1124 419 1108 417 1115 419 m 1286 322 b 1289 308 1286 318 1289 314 b 1290 297 1289 304 1289 300 l 1268 297 b 1267 307 1268 300 1268 304 b 1267 315 1267 310 1267 313 b 1250 300 1263 308 1257 304 b 1229 294 1243 297 1238 294 b 1201 304 1217 294 1208 299 b 1192 331 1194 311 1192 319 b 1204 357 1192 343 1196 351 b 1242 367 1214 364 1226 367 l 1265 367 l 1265 379 b 1260 396 1265 386 1264 392 b 1242 401 1254 400 1249 401 b 1224 396 1233 401 1229 400 b 1218 383 1219 393 1218 389 l 1197 383 l 1197 385 b 1210 408 1196 393 1201 401 b 1242 419 1218 415 1229 419 b 1274 408 1256 419 1267 415 b 1286 379 1282 401 1286 392 l 1286 322 m 1265 354 l 1242 354 b 1221 347 1232 354 1225 353 b 1213 332 1215 343 1213 338 b 1218 319 1213 326 1215 322 b 1232 315 1221 317 1225 315 b 1253 321 1240 315 1247 317 b 1265 335 1260 325 1263 329 m 1374 419 b 1404 407 1386 419 1397 415 b 1414 374 1410 400 1414 389 l 1414 299 l 1393 299 l 1393 372 b 1386 394 1393 383 1390 390 b 1368 401 1383 400 1376 401 b 1350 397 1361 401 1356 401 b 1339 386 1346 394 1342 392 l 1339 299 l 1318 299 l 1318 417 l 1338 417 l 1339 399 b 1354 414 1342 406 1347 410 b 1374 419 1360 417 1367 419 m 1518 404 l 1518 469 l 1540 469 l 1540 299 l 1524 299 l 1521 314 b 1506 300 1517 308 1513 304 b 1486 296 1500 297 1493 296 b 1453 313 1472 296 1461 301 b 1440 353 1444 322 1440 336 l 1440 356 b 1453 401 1440 375 1444 390 b 1486 419 1461 413 1472 419 b 1506 415 1494 419 1500 417 b 1519 404 1511 413 1515 410 m 1519 385 b 1508 397 1517 390 1513 394 b 1493 401 1504 400 1499 401 b 1469 389 1482 401 1475 397 b 1463 356 1464 381 1463 368 l 1463 353 b 1469 325 1463 342 1465 332 b 1492 314 1474 318 1482 314 b 1508 318 1499 314 1504 317 b 1519 331 1513 321 1515 325 m 2000 822 b 2001 150 2000 599 2000 374 b 1851 1 2001 57 1944 1 b 219 1 1638 1 435 1 b 71 149 129 1 72 58 b 71 488 71 261 71 375 b 71 821 71 599 71 710 b 224 972 71 917 126 972 b 1850 972 436 972 1638 972 b 2000 822 1943 972 2000 917 m 217 803 b 347 933 217 886 265 935 b 1701 935 469 935 1581 933 b 1761 942 1721 935 1742 939 b 224 949 1578 949 407 949 b 94 819 140 949 94 903 b 94 206 94 615 94 410 b 94 179 94 197 94 189 b 101 178 96 179 99 179 b 200 285 133 213 168 247 b 217 326 210 294 217 313 b 217 803 217 485 217 644 m 1819 304 b 1821 553 1821 388 1819 471 b 1821 808 1821 638 1821 724 b 1726 908 1821 867 1783 907 b 338 908 1593 910 471 910 b 242 807 278 907 242 867 b 242 301 242 639 242 469 b 343 201 242 240 281 201 b 1718 201 471 201 1589 201 b 1819 304 1782 201 1819 239 "},"o":{"ha":1522,"x_min":0,"x_max":0,"o":"m 504 460 b 551 440 524 460 539 454 b 569 392 564 428 569 411 l 569 364 b 551 315 569 344 564 328 b 504 296 539 303 524 296 b 458 315 486 296 471 303 b 442 364 447 328 442 344 l 442 392 b 458 440 442 411 447 428 b 504 460 471 453 486 460 m 547 393 b 535 429 547 407 543 419 b 504 443 528 439 517 443 b 474 429 490 443 481 439 b 463 393 467 419 463 407 l 463 364 b 474 328 463 350 467 338 b 504 314 481 318 490 314 b 536 328 517 314 528 319 b 547 364 544 338 547 349 m 653 419 b 686 401 667 419 678 414 b 699 356 694 390 699 375 l 699 353 b 686 313 699 336 694 322 b 653 296 679 301 667 296 b 633 300 646 296 639 297 b 619 311 628 303 624 306 l 619 254 l 597 254 l 597 417 l 614 417 l 618 401 b 632 414 622 407 626 411 b 653 419 638 417 644 419 m 676 356 b 668 388 676 368 674 379 b 644 401 663 396 656 401 b 629 396 639 401 633 399 b 618 385 625 394 622 390 l 618 328 b 629 317 621 324 625 318 b 646 313 633 314 640 313 b 669 324 656 313 664 317 b 676 353 674 332 676 342 m 772 314 b 775 315 774 315 774 315 l 778 300 b 771 297 776 300 774 299 b 761 296 768 297 764 296 b 740 304 753 296 746 299 b 733 329 735 310 733 318 l 733 401 l 714 401 l 714 417 l 733 417 l 733 444 l 754 444 l 754 417 l 778 417 l 778 401 l 754 401 l 754 329 b 758 317 754 324 757 319 b 768 314 761 315 764 314 b 772 314 769 314 771 314 m 801 449 l 801 469 l 824 469 l 824 449 m 801 299 l 801 417 l 824 417 l 824 299 m 906 419 b 944 403 922 419 935 414 b 958 358 954 392 958 376 l 958 356 b 944 313 958 338 954 324 b 906 296 935 301 922 296 b 867 313 889 296 876 301 b 851 356 857 324 851 338 l 851 358 b 867 401 851 376 857 390 b 906 419 876 413 889 419 m 936 358 b 928 390 936 371 933 382 b 904 403 922 397 915 403 b 881 390 894 403 886 397 b 874 358 876 382 874 372 l 874 357 b 881 325 874 344 876 333 b 906 314 888 317 894 314 b 928 325 915 314 924 317 b 936 357 933 333 936 344 m 1040 419 b 1071 407 1053 419 1064 415 b 1081 374 1078 400 1081 389 l 1081 299 l 1060 299 l 1060 372 b 1053 394 1060 383 1058 390 b 1035 401 1050 400 1043 401 b 1017 397 1028 401 1022 401 b 1006 386 1013 394 1010 392 l 1006 299 l 985 299 l 985 417 l 1004 417 l 1006 399 b 1021 414 1010 406 1014 410 b 1040 419 1026 417 1033 419 m 1453 822 b 1453 150 1453 599 1453 374 b 1303 1 1453 57 1396 1 b 218 1 1089 1 433 1 b 69 149 128 1 71 58 b 69 488 69 261 69 375 b 69 821 69 599 69 710 b 222 972 69 917 126 972 b 1301 972 435 972 1089 972 b 1453 822 1396 972 1453 917 m 217 803 b 349 933 217 886 265 935 b 1156 935 469 935 1033 933 b 1214 942 1175 935 1194 939 b 224 949 1031 949 407 949 b 93 819 139 949 93 903 b 93 206 93 615 93 410 b 93 179 93 197 93 189 b 100 178 96 179 99 179 b 199 285 133 213 168 247 b 215 326 208 294 215 313 b 217 803 217 485 217 644 m 1272 304 b 1272 553 1272 388 1272 471 b 1272 808 1272 638 1274 724 b 1178 908 1272 867 1236 907 b 336 908 1044 910 469 910 b 240 807 276 907 240 867 b 240 301 240 639 240 469 b 342 201 240 240 279 201 b 1169 201 471 201 1040 201 b 1272 304 1233 201 1272 239 "},"p":{"ha":1081,"x_min":0,"x_max":0,"o":"m 331 315 l 408 315 l 408 299 l 310 299 l 310 458 l 331 458 m 478 419 b 517 403 494 419 507 414 b 531 358 526 392 531 376 l 531 356 b 517 313 531 338 526 324 b 478 296 507 301 494 296 b 439 313 461 296 449 301 b 424 356 429 324 424 338 l 424 358 b 439 401 424 376 429 390 b 478 419 449 413 461 419 m 508 358 b 500 390 508 371 507 382 b 476 403 494 397 488 403 b 453 390 467 403 458 397 b 446 358 449 382 446 372 l 446 357 b 453 325 446 344 447 333 b 478 314 460 317 467 314 b 500 325 488 314 496 317 b 508 357 506 333 508 344 m 581 390 b 575 357 576 382 574 372 l 575 353 b 582 324 575 342 578 332 b 606 311 586 315 594 311 b 622 318 613 311 617 314 b 631 335 628 322 631 328 l 650 335 l 650 333 b 636 307 650 324 644 315 b 604 294 626 299 617 294 b 565 313 588 294 575 300 b 553 354 557 324 553 338 l 553 358 b 565 401 553 375 557 390 b 604 418 575 413 588 418 b 636 406 617 418 628 414 b 647 376 644 397 647 388 l 647 375 l 628 375 b 622 394 628 383 626 389 b 604 401 617 400 611 401 b 581 390 593 401 585 397 m 725 363 l 772 299 l 747 299 l 707 353 l 696 353 l 696 299 l 674 299 l 674 469 l 696 469 l 696 371 l 707 371 l 742 417 l 768 417 m 438 488 l 417 488 l 339 608 l 339 488 l 317 488 l 317 646 l 339 646 l 415 524 l 417 524 l 417 646 l 438 646 m 568 488 l 549 488 l 547 504 b 533 490 543 499 539 493 b 513 485 526 486 519 485 b 482 497 500 485 489 489 b 472 536 476 506 472 519 l 472 606 l 494 606 l 494 536 b 499 510 494 522 496 514 b 517 501 503 504 508 501 b 535 507 524 501 529 503 b 546 519 540 510 544 514 l 546 606 l 568 606 m 693 486 l 671 486 l 671 557 b 665 582 671 568 669 576 b 647 589 661 588 654 589 b 631 586 640 589 635 588 b 621 575 626 583 624 579 l 621 488 l 599 488 l 599 606 l 618 606 l 621 589 b 635 603 624 596 629 600 b 656 607 642 606 649 607 b 676 601 664 607 671 606 b 689 586 682 599 686 593 b 704 601 693 592 697 597 b 725 607 711 606 718 607 b 754 594 738 607 747 603 b 764 557 761 586 764 574 l 764 486 l 743 486 l 743 557 b 738 582 743 568 740 576 b 719 589 733 588 728 589 b 701 582 711 589 706 588 b 693 563 696 576 693 569 m 1011 822 b 1011 150 1011 599 1011 374 b 861 1 1011 57 954 1 b 218 1 647 1 433 1 b 69 149 128 1 71 58 b 69 488 69 261 69 375 b 69 821 69 599 69 710 b 222 972 69 917 126 972 b 860 972 435 972 647 972 b 1011 822 954 972 1011 917 m 217 803 b 349 933 217 886 265 935 b 714 935 469 935 592 933 b 772 942 733 935 753 939 b 224 949 589 949 407 949 b 93 819 139 949 93 903 b 93 206 93 615 93 410 b 93 179 93 197 93 189 b 100 178 96 179 99 179 b 199 285 133 213 168 247 b 215 326 208 294 215 313 b 217 803 217 485 217 644 m 831 304 b 831 553 831 388 831 471 b 831 808 831 638 832 724 b 738 908 831 867 794 907 b 336 908 603 910 469 910 b 240 807 276 907 240 867 b 240 301 240 639 240 469 b 342 201 240 240 279 201 b 729 201 471 201 599 201 b 831 304 792 201 831 239 "},"q":{"ha":1082,"x_min":0,"x_max":0,"o":"m 1011 822 b 1011 150 1013 599 1013 374 b 861 1 1011 57 954 1 b 218 1 647 1 433 1 b 69 149 128 1 71 58 b 69 488 69 261 69 375 b 69 821 69 599 69 710 b 222 972 69 917 126 972 b 860 972 435 972 647 972 b 1011 822 954 972 1011 917 m 217 803 b 349 933 217 886 265 935 b 714 935 469 935 592 933 b 772 942 733 935 753 939 b 224 949 589 949 407 949 b 93 819 139 949 93 903 b 93 206 93 615 93 410 b 93 179 93 197 93 189 b 100 178 96 179 99 179 b 199 285 133 213 168 247 b 215 326 208 294 215 313 b 217 803 217 485 217 644 m 831 304 b 832 553 831 388 831 471 b 832 808 832 638 832 724 b 738 908 832 867 796 907 b 336 908 604 910 471 910 b 242 807 278 907 242 867 b 242 301 242 639 242 469 b 342 201 242 240 281 201 b 729 201 471 201 600 201 b 831 304 793 201 831 239 m 585 410 l 546 410 l 546 289 l 536 289 l 536 410 l 496 410 l 540 488 "},"r":{"ha":1081,"x_min":0,"x_max":0,"o":"m 544 367 l 585 367 l 540 289 l 496 367 l 536 367 l 536 488 l 544 488 m 1011 822 b 1011 150 1011 599 1011 374 b 861 1 1011 57 954 1 b 218 1 647 1 433 1 b 69 149 128 1 71 58 b 69 488 69 261 69 375 b 69 821 69 599 69 710 b 222 972 69 917 126 972 b 860 972 435 972 647 972 b 1011 822 954 972 1011 917 m 217 803 b 349 933 217 886 265 935 b 714 935 469 935 592 933 b 772 942 733 935 753 939 b 224 949 589 949 407 949 b 93 819 139 949 93 903 b 93 206 93 615 93 410 b 93 179 93 197 93 189 b 100 178 96 179 99 179 b 199 285 133 213 168 247 b 215 326 208 294 215 313 b 217 803 217 485 217 644 m 831 304 b 831 553 831 388 831 471 b 831 808 831 638 832 724 b 738 908 831 867 794 907 b 336 908 603 910 469 910 b 240 807 276 907 240 867 b 240 301 240 639 240 469 b 342 201 240 240 279 201 b 729 201 471 201 599 201 b 831 304 792 201 831 239 "},"s":{"ha":1081,"x_min":0,"x_max":0,"o":"m 519 393 l 639 393 l 639 383 l 519 383 l 519 343 l 442 388 l 519 432 m 1011 822 b 1011 150 1011 599 1011 374 b 863 1 1011 57 956 1 b 219 1 647 1 433 1 b 71 149 128 1 71 58 b 71 488 69 261 71 375 b 71 821 71 599 71 710 b 222 972 71 917 126 972 b 861 972 435 972 649 972 b 1011 822 956 972 1011 917 m 217 803 b 349 933 217 886 265 935 b 714 935 471 935 592 933 b 774 942 733 935 754 939 b 224 949 589 949 407 949 b 94 819 140 949 94 903 b 94 206 94 615 94 410 b 94 179 94 197 94 189 b 101 178 96 179 99 179 b 200 285 133 213 168 247 b 217 326 210 294 217 313 b 217 803 217 485 217 644 m 831 304 b 832 553 832 388 831 471 b 832 808 832 638 832 724 b 738 908 832 867 794 907 b 336 908 603 910 471 910 b 240 807 278 907 240 867 b 240 301 240 639 240 469 b 342 201 240 240 279 201 b 729 201 471 201 600 201 b 831 304 793 201 831 239 "},"t":{"ha":1081,"x_min":0,"x_max":0,"o":"m 563 432 l 639 388 l 563 343 l 563 383 l 442 383 l 442 393 l 563 393 m 1011 822 b 1011 150 1011 599 1011 374 b 863 1 1011 57 956 1 b 219 1 647 1 433 1 b 71 149 128 1 71 58 b 71 488 69 261 71 375 b 71 821 71 599 71 710 b 222 972 71 917 126 972 b 861 972 435 972 649 972 b 1011 822 956 972 1011 917 m 217 803 b 349 933 217 886 265 935 b 714 935 471 935 592 933 b 774 942 733 935 754 939 b 224 949 589 949 407 949 b 94 819 140 949 94 903 b 94 206 94 615 94 410 b 94 179 94 197 94 189 b 101 178 96 179 99 179 b 200 285 133 213 168 247 b 217 326 210 294 217 313 b 217 803 217 485 217 644 m 831 304 b 832 553 832 388 831 471 b 832 808 832 638 832 724 b 738 908 832 867 794 907 b 336 908 603 910 471 910 b 240 807 278 907 240 867 b 240 301 240 639 240 469 b 342 201 240 240 279 201 b 729 201 471 201 600 201 b 831 304 793 201 831 239 "},"u":{"ha":1081,"x_min":0,"x_max":0,"o":"m 344 458 b 383 444 361 458 375 453 b 399 410 393 436 399 424 b 383 375 399 396 393 385 b 344 363 374 367 361 363 l 304 363 l 304 299 l 283 299 l 283 458 l 344 458 m 369 388 b 378 410 374 394 378 401 b 369 432 378 419 374 426 b 344 442 364 439 356 442 l 306 442 l 306 379 l 344 379 b 369 388 356 379 364 382 m 500 417 l 518 417 l 518 299 b 504 264 518 283 514 271 b 467 251 496 256 482 251 b 447 254 460 251 454 251 b 431 260 442 256 436 257 l 433 276 b 449 271 438 275 442 274 b 465 269 454 269 460 269 b 489 276 476 269 485 272 b 496 299 494 281 496 289 l 496 313 b 482 300 492 307 488 303 b 463 297 476 299 469 297 b 429 313 449 297 438 303 b 418 354 421 324 418 336 l 418 356 b 429 403 418 375 421 390 b 464 419 438 414 449 419 b 485 415 472 419 479 419 b 499 401 489 411 494 407 m 497 385 b 486 397 494 390 490 394 b 469 401 482 400 476 401 b 447 389 460 401 451 397 b 439 356 442 381 439 368 l 439 353 b 447 325 439 342 442 332 b 469 314 451 317 458 314 b 486 318 476 314 481 315 b 497 331 490 321 494 325 m 603 458 b 653 439 624 458 640 451 b 671 389 665 425 671 410 l 671 367 b 653 318 671 347 665 331 b 603 299 640 306 624 299 l 553 299 l 553 458 l 603 458 m 650 390 b 638 426 650 404 646 417 b 603 442 628 436 617 442 l 574 442 l 574 315 l 603 315 b 638 329 617 315 629 319 b 650 367 646 339 650 353 m 757 419 b 788 407 769 419 781 415 b 797 374 793 400 797 389 l 797 299 l 776 299 l 776 372 b 769 394 776 383 774 390 b 751 401 767 400 760 401 b 733 397 744 401 739 401 b 722 386 729 394 725 392 l 722 299 l 701 299 l 701 417 l 721 417 l 722 399 b 738 414 725 406 731 410 b 757 419 743 417 750 419 m 1011 822 b 1011 150 1011 599 1011 374 b 861 1 1011 57 954 1 b 218 1 647 1 433 1 b 69 149 128 1 71 58 b 69 488 69 261 69 375 b 69 821 69 599 69 710 b 222 972 69 917 126 972 b 860 972 435 972 647 972 b 1011 822 954 972 1011 917 m 217 803 b 349 933 217 886 265 935 b 714 935 469 935 592 933 b 772 942 733 935 753 939 b 224 949 589 949 407 949 b 93 819 139 949 93 903 b 93 206 93 615 93 410 b 93 179 93 197 93 189 b 100 178 96 179 99 179 b 199 285 133 213 168 247 b 215 326 208 294 215 313 b 217 803 217 485 217 644 m 831 304 b 832 553 831 388 831 471 b 832 808 832 638 832 724 b 738 908 832 867 796 907 b 336 908 604 910 471 910 b 242 807 278 907 242 867 b 242 301 242 639 242 469 b 342 201 242 240 281 201 b 729 201 471 201 600 201 b 831 304 793 201 831 239 "},"v":{"ha":1082,"x_min":0,"x_max":0,"o":"m 343 458 b 382 444 360 458 372 453 b 397 410 392 436 397 424 b 382 375 397 396 392 385 b 343 363 372 367 360 363 l 303 363 l 303 299 l 282 299 l 282 458 l 343 458 m 367 388 b 375 410 372 394 375 401 b 367 432 375 419 372 426 b 343 442 361 439 353 442 l 303 442 l 303 379 l 343 379 b 367 388 353 379 361 382 m 499 417 l 515 417 l 515 299 b 501 264 515 283 511 271 b 464 251 493 256 481 251 b 446 254 458 251 451 251 b 428 260 439 256 433 257 l 431 276 b 446 271 435 275 440 274 b 463 269 451 269 457 269 b 486 276 474 269 482 272 b 494 299 492 281 494 289 l 494 313 b 479 300 489 307 485 303 b 461 297 475 299 468 297 b 428 313 447 297 436 303 b 415 354 419 324 415 336 l 415 356 b 428 403 415 375 419 390 b 461 419 436 414 447 419 b 482 415 469 419 476 419 b 496 401 488 411 492 407 m 496 331 l 496 385 b 485 397 492 390 489 394 b 468 401 479 400 474 401 b 444 389 457 401 450 397 b 438 356 439 381 438 368 l 438 353 b 444 325 438 342 440 332 b 467 314 449 317 457 314 b 483 318 474 314 479 315 b 494 331 488 321 492 325 m 646 458 l 668 458 l 668 351 b 651 310 668 333 663 319 b 607 296 640 300 625 296 b 564 310 589 296 575 300 b 547 351 553 319 547 335 l 547 458 l 569 458 l 569 353 b 579 324 569 340 574 331 b 607 314 586 317 596 314 b 635 324 618 314 628 317 b 646 353 643 331 646 340 m 753 419 b 788 401 768 419 779 414 b 800 356 796 390 800 375 l 800 353 b 788 313 800 336 796 322 b 754 296 779 301 768 296 b 735 300 747 296 740 297 b 721 311 729 303 724 306 l 721 254 l 699 254 l 699 417 l 715 417 l 719 401 b 733 414 722 407 728 411 b 753 419 739 417 746 419 m 778 353 l 778 356 b 769 388 778 368 775 379 b 747 401 764 396 757 401 b 731 396 740 401 735 399 b 721 385 726 394 724 390 l 721 328 b 731 317 722 324 726 318 b 747 313 735 314 742 313 b 771 324 758 313 765 317 b 779 353 776 332 779 342 m 1011 822 b 1011 150 1013 599 1013 374 b 861 1 1011 57 954 1 b 218 1 647 1 433 1 b 69 149 128 1 71 58 b 69 488 69 261 69 375 b 69 821 69 599 69 710 b 222 972 69 917 126 972 b 860 972 435 972 647 972 b 1011 822 954 972 1011 917 m 217 803 b 349 933 217 886 265 935 b 714 935 469 935 592 933 b 772 942 733 935 753 939 b 224 949 589 949 407 949 b 93 819 139 949 93 903 b 93 206 93 615 93 410 b 93 179 93 197 93 189 b 100 178 96 179 99 179 b 199 285 133 213 168 247 b 215 326 208 294 215 313 b 217 803 217 485 217 644 m 831 304 b 832 553 831 388 831 471 b 832 808 832 638 832 724 b 738 908 832 867 796 907 b 336 908 604 910 471 910 b 242 807 278 907 242 867 b 242 301 242 639 242 469 b 342 201 242 240 281 201 b 729 201 471 201 600 201 b 831 304 793 201 831 239 "},"w":{"ha":3211,"x_min":0,"x_max":0,"o":"m 1358 388 b 1396 368 1375 383 1388 376 b 1408 339 1404 361 1408 351 b 1393 308 1408 326 1404 315 b 1354 296 1383 300 1369 296 b 1313 308 1338 296 1325 300 b 1296 343 1300 317 1296 329 l 1296 344 l 1317 344 b 1328 321 1317 335 1319 326 b 1353 313 1335 315 1343 313 b 1376 319 1363 313 1371 315 b 1386 338 1383 324 1386 329 b 1378 356 1386 344 1383 351 b 1350 368 1374 361 1364 365 b 1313 386 1335 374 1321 379 b 1299 415 1303 394 1299 404 b 1314 447 1299 429 1304 439 b 1351 460 1324 456 1336 460 b 1393 446 1369 460 1383 456 b 1407 413 1403 436 1407 425 l 1407 411 l 1386 411 b 1376 433 1386 421 1382 428 b 1351 443 1369 440 1361 443 b 1329 435 1342 443 1335 440 b 1321 417 1324 431 1321 424 b 1329 400 1321 410 1324 404 b 1358 388 1336 394 1344 392 m 1490 419 b 1524 401 1504 419 1515 414 b 1536 356 1532 390 1536 375 l 1536 353 b 1524 313 1536 336 1532 322 b 1490 296 1515 301 1504 296 b 1471 300 1483 296 1476 297 b 1457 311 1465 303 1461 306 l 1457 254 l 1435 254 l 1435 417 l 1451 417 l 1456 401 b 1469 414 1458 407 1464 411 b 1490 419 1475 417 1482 419 m 1514 356 b 1506 388 1514 368 1511 381 b 1482 401 1500 396 1493 401 b 1467 396 1476 401 1471 399 b 1456 385 1463 394 1458 390 l 1456 328 b 1467 317 1458 324 1463 318 b 1483 313 1471 314 1476 313 b 1506 324 1493 313 1501 317 b 1514 353 1511 332 1514 342 m 1654 322 b 1657 308 1654 318 1657 314 b 1658 297 1657 304 1657 300 l 1636 297 b 1635 307 1636 300 1636 304 b 1633 315 1633 310 1633 313 b 1618 300 1631 308 1625 304 b 1597 294 1611 297 1604 294 b 1569 304 1585 294 1575 299 b 1560 331 1563 311 1560 319 b 1572 357 1560 343 1564 351 b 1610 367 1582 364 1594 367 l 1633 367 l 1633 379 b 1628 396 1633 386 1632 392 b 1610 401 1622 400 1617 401 b 1592 396 1601 401 1597 400 b 1585 383 1588 393 1585 389 l 1565 383 l 1565 385 b 1578 408 1564 393 1569 401 b 1610 419 1585 415 1597 419 b 1642 408 1624 419 1633 415 b 1654 379 1650 401 1654 392 l 1654 322 m 1633 354 l 1610 354 b 1589 347 1600 354 1593 353 b 1581 332 1583 343 1581 338 b 1586 319 1581 326 1583 322 b 1600 315 1589 317 1593 315 b 1621 321 1608 315 1615 317 b 1633 335 1628 325 1631 329 m 1710 390 b 1704 357 1706 382 1703 372 l 1704 353 b 1711 324 1704 342 1707 332 b 1735 311 1715 315 1724 311 b 1751 318 1740 311 1746 314 b 1758 335 1757 322 1758 328 l 1778 335 l 1778 333 b 1765 307 1778 324 1774 315 b 1733 294 1756 299 1746 294 b 1694 313 1717 294 1704 300 b 1681 354 1686 324 1681 338 l 1681 358 b 1694 401 1681 375 1686 390 b 1733 418 1704 413 1717 418 b 1765 406 1746 418 1757 414 b 1776 376 1774 397 1776 388 l 1776 375 l 1757 375 b 1750 394 1757 383 1756 389 b 1733 401 1746 400 1740 401 b 1710 390 1722 401 1714 397 m 1850 419 b 1883 407 1865 419 1875 417 b 1896 367 1892 396 1896 383 l 1896 356 l 1821 356 b 1828 326 1821 343 1824 333 b 1853 315 1833 318 1842 315 b 1872 318 1860 315 1867 315 b 1886 326 1876 319 1882 322 l 1894 313 b 1878 301 1890 307 1885 304 b 1853 297 1871 299 1863 297 b 1813 314 1835 297 1822 303 b 1799 356 1803 324 1799 338 l 1799 361 b 1814 403 1799 376 1804 392 b 1850 419 1824 414 1835 419 m 1875 374 b 1869 394 1875 382 1872 390 b 1850 403 1865 400 1858 403 b 1831 394 1842 403 1836 400 b 1822 372 1825 388 1822 381 l 1822 371 l 1875 371 m 3140 822 b 3140 150 3140 599 3140 374 b 2992 1 3140 57 3085 1 b 200 1 2776 1 415 1 b 51 149 110 1 53 58 b 51 488 51 261 51 375 b 51 821 51 599 51 710 b 204 972 51 917 107 972 b 2989 972 417 972 2776 972 b 3140 822 3083 972 3140 917 m 197 803 b 328 933 199 886 246 935 b 2842 935 450 935 2719 933 b 2901 942 2861 935 2882 939 b 204 949 2718 949 388 949 b 75 819 121 949 75 903 b 75 206 75 615 75 410 b 75 179 75 197 75 189 b 82 178 76 179 79 179 b 181 285 114 213 149 247 b 197 326 190 294 197 313 b 197 803 197 485 197 644 m 2960 304 b 2961 553 2960 388 2960 471 b 2961 808 2961 638 2961 724 b 2867 908 2961 867 2924 907 b 318 908 2733 910 453 910 b 222 807 260 907 222 867 b 222 301 222 639 222 469 b 324 201 222 240 261 201 b 2858 201 453 201 2729 201 b 2960 304 2922 201 2960 239 "},"x":{"ha":1208,"x_min":0,"x_max":0,"o":"m 335 388 b 372 368 351 383 364 376 b 385 339 381 361 385 351 b 371 308 385 326 381 317 b 331 296 360 300 347 296 b 290 308 315 296 301 300 b 272 343 278 317 272 329 l 272 344 l 293 344 b 304 321 293 335 297 326 b 331 313 313 315 321 313 b 354 319 340 313 349 315 b 363 338 360 324 363 329 b 356 356 363 344 361 351 b 328 368 350 361 340 365 b 290 386 311 374 299 379 b 276 415 281 394 276 404 b 292 447 276 429 282 439 b 329 460 301 456 314 460 b 369 446 346 460 360 456 b 383 413 379 436 383 425 l 383 411 l 363 411 b 353 433 363 421 360 428 b 329 443 347 440 339 443 b 306 435 319 443 311 440 b 297 417 301 431 297 424 b 307 400 297 410 301 404 b 335 388 313 394 322 392 m 436 390 b 429 357 431 382 429 372 l 429 353 b 438 324 429 342 432 332 b 460 311 442 315 450 311 b 478 318 467 311 472 314 b 485 335 482 322 485 328 l 504 335 l 504 333 b 490 307 504 324 500 315 b 460 294 482 299 471 294 b 421 313 442 294 429 300 b 407 354 411 324 407 338 l 407 358 b 421 401 407 375 411 390 b 458 418 429 413 442 418 b 490 406 471 418 482 414 b 503 376 499 397 503 388 l 503 375 l 483 375 b 476 394 483 383 481 389 b 458 401 472 400 467 401 b 436 390 449 401 440 397 m 579 419 b 583 418 582 419 582 418 b 588 417 585 418 586 417 l 585 397 l 574 397 b 558 394 568 397 563 396 b 550 383 556 392 553 388 l 550 299 l 528 299 l 528 417 l 547 417 l 550 400 b 563 414 554 406 557 410 b 579 419 568 417 574 419 m 651 419 b 686 407 667 419 678 417 b 699 367 694 396 699 383 l 699 356 l 622 356 b 631 326 622 343 625 333 b 654 315 636 318 644 315 b 674 318 663 315 669 317 b 689 326 679 319 685 322 l 696 313 b 681 301 693 307 688 304 b 654 297 672 299 664 297 b 615 314 638 297 625 303 b 601 356 606 324 601 338 l 601 361 b 615 403 601 376 606 392 b 651 419 625 414 638 419 m 676 374 b 671 394 676 382 675 390 b 651 403 667 400 661 403 b 633 394 644 403 638 400 b 624 372 628 388 625 381 l 624 371 l 676 371 m 769 419 b 803 407 785 419 796 417 b 815 367 811 396 815 383 l 815 356 l 740 356 b 749 326 740 343 743 333 b 772 315 753 318 761 315 b 792 318 779 315 786 317 b 806 326 797 319 801 322 l 814 313 b 797 301 810 307 806 304 b 772 297 790 299 782 297 b 732 314 754 297 742 303 b 718 356 722 324 718 338 l 718 361 b 733 403 718 376 724 392 b 769 419 743 414 754 419 m 794 374 b 789 394 794 382 792 390 b 769 403 785 400 778 403 b 750 394 761 403 756 400 b 742 372 744 388 742 381 l 742 371 l 794 371 m 897 419 b 926 407 910 419 919 415 b 938 374 933 400 938 389 l 938 299 l 915 299 l 915 372 b 910 394 915 383 914 390 b 890 401 906 400 899 401 b 874 397 885 401 878 401 b 863 386 869 394 865 392 l 863 299 l 840 299 l 840 417 l 860 417 l 861 399 b 876 414 865 406 871 410 b 897 419 883 417 889 419 m 476 564 b 438 551 468 556 454 550 l 397 551 l 397 488 l 375 488 l 375 646 l 438 646 b 476 633 454 646 467 642 b 490 599 486 625 490 613 b 476 564 490 585 486 572 m 399 567 l 438 567 b 461 576 449 567 457 571 b 469 597 467 581 469 589 b 461 619 469 607 467 614 b 438 629 457 626 449 629 l 399 629 m 536 571 l 536 488 l 515 488 l 515 606 l 535 606 l 536 588 b 549 601 540 594 544 599 b 567 607 554 606 560 607 b 571 607 568 607 569 607 b 575 606 572 607 574 606 l 572 586 l 560 586 b 546 582 556 586 550 586 b 538 571 543 581 539 576 m 596 636 l 596 657 l 618 657 l 618 636 m 596 488 l 596 606 l 618 606 l 618 488 m 725 561 b 719 582 725 571 724 579 b 701 589 715 588 710 589 b 683 586 694 589 689 589 b 672 575 679 582 675 579 l 672 488 l 651 488 l 651 606 l 671 606 l 672 588 b 686 601 675 594 681 599 b 707 607 693 606 700 607 b 738 596 719 607 731 604 b 747 561 743 589 747 578 l 747 488 l 725 488 l 725 561 m 825 503 b 828 504 826 503 828 503 l 831 489 b 824 486 829 489 826 488 b 815 485 821 485 818 485 b 793 493 806 485 799 488 b 786 518 789 499 786 507 l 786 589 l 768 589 l 768 606 l 786 606 l 786 633 l 808 633 l 808 606 l 831 606 l 831 589 l 808 589 l 808 518 b 811 506 808 511 810 508 b 821 501 814 503 817 501 b 825 503 822 501 824 503 m 1139 822 b 1139 150 1139 599 1139 374 b 989 1 1139 57 1082 1 b 218 1 774 1 433 1 b 69 149 128 1 71 58 b 69 488 69 261 69 375 b 69 821 69 599 69 710 b 222 972 69 917 126 972 b 988 972 435 972 775 972 b 1139 822 1082 972 1139 917 m 217 803 b 349 933 217 886 265 935 b 840 935 469 935 719 933 b 900 942 860 935 881 939 b 224 949 715 949 407 949 b 93 819 139 949 93 903 b 93 206 93 615 93 410 b 93 179 93 197 93 189 b 100 178 96 179 99 179 b 199 285 133 213 168 247 b 215 326 208 294 215 313 b 217 803 217 485 217 644 m 958 304 b 958 553 958 388 958 471 b 958 808 958 638 960 724 b 865 908 958 867 922 907 b 336 908 731 910 471 910 b 242 807 278 907 242 867 b 242 301 242 639 242 469 b 342 201 242 240 281 201 b 857 201 471 201 728 201 b 958 304 919 201 958 239 "},"y":{"ha":1082,"x_min":0,"x_max":0,"o":"m 1011 822 b 1011 150 1013 599 1013 374 b 861 1 1011 57 954 1 b 218 1 647 1 433 1 b 69 149 128 1 71 58 b 69 488 69 261 69 375 b 69 821 69 599 69 710 b 222 972 69 917 126 972 b 860 972 435 972 647 972 b 1011 822 954 972 1011 917 m 217 803 b 349 933 217 886 265 935 b 714 935 469 935 592 933 b 772 942 733 935 753 939 b 224 949 589 949 407 949 b 93 819 139 949 93 903 b 93 206 93 615 93 410 b 93 179 93 197 93 189 b 100 178 96 179 99 179 b 199 285 133 213 168 247 b 215 326 208 294 215 313 b 217 803 217 485 217 644 m 831 304 b 832 553 831 388 831 471 b 832 808 832 638 832 724 b 738 908 832 867 796 907 b 336 908 604 910 471 910 b 242 807 278 907 242 867 b 242 301 242 639 242 469 b 342 201 242 240 281 201 b 729 201 471 201 600 201 b 831 304 793 201 831 239 m 719 668 b 722 669 719 668 721 668 b 722 667 722 668 722 668 b 722 500 722 611 722 556 b 722 497 722 499 722 499 b 713 497 719 497 715 497 b 613 497 679 497 646 497 b 528 496 583 497 556 496 b 526 499 526 496 526 496 b 526 639 526 546 526 592 b 528 640 526 640 526 640 b 567 646 540 643 554 644 b 606 653 579 649 593 650 b 649 658 621 654 635 656 b 692 664 664 660 678 663 b 719 668 701 665 711 667 m 525 474 b 525 475 525 475 525 475 b 722 475 592 475 656 475 b 722 304 722 419 722 361 b 710 306 718 306 714 306 b 675 311 699 308 686 310 b 639 317 664 313 651 315 b 604 321 626 318 615 319 b 565 326 592 322 578 325 b 531 332 554 328 543 329 b 526 332 529 332 528 332 b 525 333 525 332 525 332 b 525 344 525 338 525 342 b 525 474 525 388 525 431 m 360 476 b 358 479 360 478 360 478 b 507 478 408 479 457 478 b 507 335 507 431 507 383 b 488 338 500 336 494 338 b 454 343 476 339 465 342 b 414 349 440 344 428 347 b 374 354 400 350 388 353 b 361 356 369 354 365 354 b 360 357 360 356 360 357 b 360 419 360 378 360 399 b 360 476 360 439 360 457 m 360 615 b 358 618 360 615 360 615 b 507 638 408 625 457 631 b 507 494 507 590 507 543 b 506 494 507 494 506 494 b 422 494 478 494 450 494 b 363 493 403 493 382 493 l 361 493 b 360 496 360 493 360 494 b 360 567 360 519 360 543 b 360 615 360 583 360 599 "},"z":{"ha":3228,"x_min":0,"x_max":0,"o":"m 540 504 b 546 497 542 503 546 499 l 546 496 l 517 283 b 513 264 515 276 514 269 b 503 257 511 258 507 257 b 494 260 500 257 497 258 b 486 278 490 265 488 271 l 464 361 l 439 275 b 424 257 436 267 435 257 b 410 275 413 257 411 267 l 385 464 b 382 497 383 475 382 486 l 382 499 b 393 507 382 503 388 507 b 401 503 396 507 399 506 b 407 485 406 499 406 492 l 428 335 l 446 397 b 451 418 447 404 449 411 b 463 426 454 424 458 426 b 474 419 467 426 471 424 b 481 401 476 414 479 407 l 499 331 b 524 500 499 331 522 490 b 535 507 525 504 531 507 b 540 504 538 507 539 506 m 726 504 b 733 496 728 503 732 499 l 733 494 l 704 282 b 699 264 703 276 701 269 b 690 256 697 258 694 256 b 682 260 688 256 685 257 b 674 276 676 264 675 271 l 650 360 l 626 274 b 611 256 622 267 621 256 l 610 256 b 597 275 599 256 599 267 l 572 464 b 568 496 571 474 568 485 l 568 497 b 581 506 568 503 574 506 b 589 503 583 506 586 504 b 593 485 593 497 592 490 l 615 333 l 632 396 b 639 417 635 404 636 411 b 650 425 640 422 646 425 b 660 419 654 425 657 424 b 668 401 664 414 667 407 l 685 331 b 710 500 685 331 708 490 b 721 507 711 504 717 507 b 726 504 724 507 725 506 m 913 504 b 919 496 914 503 918 499 l 919 494 l 890 282 b 885 264 889 276 888 269 b 876 256 883 258 881 256 b 868 260 874 256 871 257 b 860 276 863 264 861 271 l 836 360 l 813 274 b 797 256 810 267 807 256 l 796 256 b 783 275 785 256 785 267 l 758 464 b 754 496 757 474 754 485 l 754 497 b 767 506 754 503 761 506 b 775 503 769 506 772 504 b 781 485 779 497 778 490 l 800 335 l 818 397 b 824 418 821 404 821 411 b 835 426 826 424 831 426 b 846 419 839 426 843 424 b 853 401 850 414 851 407 l 871 331 b 897 500 871 331 894 490 b 907 507 897 504 903 507 b 913 504 910 507 911 506 m 943 276 b 956 265 950 276 954 274 b 943 254 956 258 951 254 b 932 264 938 254 933 257 b 943 276 932 271 936 275 m 1147 278 b 1156 274 1151 276 1153 275 b 1158 267 1157 271 1158 269 l 1158 265 b 1154 257 1157 261 1156 260 b 1147 256 1153 256 1150 256 l 1146 256 b 1078 256 1143 256 1142 256 b 1036 257 1060 256 1046 256 b 1021 258 1031 257 1025 257 b 1015 260 1019 258 1017 258 b 1008 265 1011 261 1010 263 b 1004 276 1006 268 1004 271 b 1007 288 1004 279 1006 283 b 1024 311 1010 292 1018 306 b 1043 333 1028 317 1035 325 l 1069 358 b 1097 388 1082 371 1092 381 b 1128 449 1117 410 1126 431 l 1128 453 b 1126 463 1128 456 1128 460 b 1118 472 1125 465 1122 469 b 1096 482 1113 479 1104 482 b 1075 478 1089 482 1083 481 b 1031 440 1057 469 1043 457 b 1024 436 1029 438 1026 436 l 1022 436 b 1015 439 1019 436 1017 436 b 1010 446 1011 440 1010 443 l 1010 447 b 1013 454 1010 450 1011 453 b 1064 499 1026 474 1044 489 b 1096 507 1075 504 1086 507 b 1132 490 1108 507 1122 501 b 1149 450 1143 479 1149 465 l 1149 449 b 1113 372 1147 424 1136 397 b 1083 342 1106 364 1096 353 l 1057 317 b 1033 288 1049 308 1038 293 l 1028 281 b 1036 279 1031 279 1033 279 b 1076 278 1046 278 1058 278 b 1147 278 1121 278 1144 278 m 1243 494 b 1242 268 1244 474 1242 268 b 1239 260 1242 265 1242 261 b 1231 257 1238 258 1233 257 b 1224 260 1228 257 1225 257 b 1221 268 1221 261 1221 265 b 1222 460 1221 271 1222 460 b 1182 426 1211 444 1196 426 b 1174 431 1179 426 1176 428 b 1172 438 1172 433 1172 435 b 1181 450 1172 443 1176 446 l 1183 451 b 1203 469 1190 456 1196 463 b 1222 500 1210 478 1217 489 b 1228 507 1222 503 1225 504 b 1232 507 1229 507 1231 507 b 1238 506 1233 507 1235 507 b 1243 499 1240 504 1242 501 m 1406 278 b 1414 274 1408 276 1410 275 b 1415 267 1415 271 1415 269 l 1415 265 b 1411 257 1415 261 1414 260 b 1404 256 1410 256 1407 256 l 1403 256 b 1336 256 1400 256 1399 256 b 1293 257 1317 256 1303 256 b 1279 258 1288 257 1282 257 b 1272 260 1276 258 1274 258 b 1265 265 1269 261 1267 263 b 1261 276 1263 268 1261 271 b 1264 288 1261 279 1263 283 b 1281 311 1267 292 1276 306 b 1300 333 1286 317 1292 325 l 1328 358 b 1356 388 1339 371 1349 381 b 1385 449 1375 410 1385 431 l 1385 453 b 1383 463 1385 456 1385 460 b 1376 472 1383 465 1379 469 b 1354 482 1369 479 1361 482 b 1332 478 1347 482 1340 481 b 1288 440 1315 469 1300 457 b 1281 436 1286 438 1283 436 l 1279 436 b 1272 439 1276 436 1274 436 b 1268 446 1269 440 1268 443 l 1268 447 b 1269 454 1268 450 1268 453 b 1321 499 1283 474 1301 489 b 1353 507 1332 504 1343 507 b 1389 490 1367 507 1379 501 b 1406 450 1400 479 1406 465 l 1406 449 b 1369 372 1406 424 1393 397 b 1340 342 1363 364 1353 353 l 1315 317 b 1290 288 1307 308 1294 293 l 1286 281 b 1293 279 1288 279 1290 279 b 1335 278 1303 278 1317 278 b 1406 278 1378 278 1401 278 m 1500 329 b 1513 325 1501 329 1510 329 b 1514 319 1513 324 1514 322 b 1513 314 1514 318 1514 317 b 1497 308 1510 308 1499 308 l 1460 310 b 1447 306 1453 310 1449 308 b 1444 279 1447 306 1444 304 b 1444 267 1444 279 1444 268 b 1442 258 1443 265 1443 260 b 1433 254 1438 256 1435 254 b 1424 272 1426 254 1424 264 l 1425 467 b 1457 507 1425 489 1435 503 b 1485 507 1461 507 1472 507 b 1540 506 1506 507 1531 507 b 1553 499 1546 504 1553 503 l 1553 496 b 1539 486 1553 488 1544 488 b 1493 483 1524 485 1508 483 l 1474 483 b 1449 451 1451 483 1450 481 l 1447 331 l 1500 329 m 1669 486 b 1713 374 1703 457 1714 419 b 1683 285 1711 344 1706 311 b 1621 253 1667 264 1643 253 b 1558 288 1599 253 1575 264 b 1532 375 1540 311 1532 343 b 1569 481 1532 414 1544 454 b 1621 507 1585 499 1603 507 b 1669 486 1638 507 1654 500 m 1692 365 l 1692 368 b 1672 451 1690 401 1688 428 b 1625 485 1660 474 1642 485 b 1579 454 1608 485 1592 475 b 1554 376 1563 429 1554 404 b 1569 311 1554 356 1560 333 b 1624 276 1581 289 1597 276 l 1628 276 b 1679 314 1653 278 1669 292 b 1690 365 1686 332 1690 351 m 1876 503 b 1883 490 1881 501 1885 496 l 1883 485 b 1881 278 1883 485 1883 471 b 1869 256 1881 269 1879 257 b 1865 256 1868 256 1867 256 b 1850 271 1857 256 1853 264 l 1776 432 b 1774 265 1776 432 1774 269 b 1765 254 1774 260 1772 256 l 1764 254 b 1753 260 1758 254 1756 257 b 1749 276 1749 265 1749 271 l 1749 279 l 1753 482 b 1763 503 1753 490 1751 500 b 1767 504 1764 504 1765 504 b 1781 489 1775 504 1776 494 l 1860 314 l 1861 482 l 1861 488 b 1865 500 1861 492 1861 496 b 1876 503 1868 503 1872 503 m 2051 507 b 2074 497 2067 507 2074 503 b 2051 483 2071 485 2061 485 l 2022 482 b 2001 460 2007 482 2003 479 l 2000 297 b 1997 267 2000 286 2000 276 b 1985 254 1994 258 1990 254 b 1972 268 1975 256 1974 260 b 1972 283 1972 271 1972 276 l 1976 468 b 1961 482 1976 481 1975 481 b 1910 485 1953 483 1917 483 b 1903 494 1903 488 1903 493 l 1903 496 b 1907 501 1903 499 1904 500 b 1928 507 1913 507 1921 507 l 2051 507 m 2135 508 b 2197 469 2161 508 2190 488 b 2200 461 2200 465 2200 463 b 2193 451 2200 457 2199 454 b 2190 450 2193 450 2192 450 b 2175 460 2185 450 2178 456 b 2131 483 2156 476 2142 483 b 2106 468 2119 483 2111 476 b 2096 443 2100 460 2096 451 b 2132 397 2096 429 2106 414 b 2175 364 2146 386 2163 378 b 2194 317 2188 349 2194 333 b 2188 286 2194 307 2192 296 b 2128 250 2176 264 2161 250 b 2074 289 2104 254 2083 268 b 2071 297 2072 293 2071 296 b 2076 306 2071 300 2074 304 b 2086 308 2079 308 2083 308 b 2094 306 2089 308 2093 308 b 2132 276 2104 286 2118 276 b 2154 286 2139 276 2147 279 b 2167 315 2164 294 2167 304 b 2139 367 2167 333 2157 351 b 2089 404 2122 381 2103 388 b 2074 443 2079 417 2074 431 b 2081 472 2074 453 2076 463 b 2135 508 2092 493 2110 508 m 2229 276 b 2240 265 2235 276 2239 274 b 2229 254 2240 258 2236 254 l 2228 254 b 2217 264 2222 254 2218 257 b 2229 276 2217 271 2221 275 m 2438 356 b 2444 346 2440 354 2444 351 l 2444 340 b 2443 335 2444 338 2444 336 b 2417 278 2438 314 2431 294 b 2367 251 2403 260 2385 251 b 2315 281 2349 251 2329 261 b 2288 372 2297 307 2288 338 l 2288 376 b 2318 474 2289 410 2294 444 b 2351 501 2328 485 2338 494 b 2378 508 2360 507 2369 508 b 2428 479 2400 508 2418 494 b 2440 444 2435 469 2440 458 l 2440 443 b 2433 431 2440 439 2439 433 b 2429 431 2432 431 2431 431 b 2421 436 2426 431 2424 433 b 2410 463 2418 447 2414 454 b 2374 481 2400 476 2386 481 b 2344 467 2364 481 2354 476 b 2314 400 2326 449 2314 424 l 2314 386 b 2319 332 2314 368 2314 350 b 2338 293 2322 318 2328 304 b 2365 278 2346 283 2356 278 b 2394 289 2375 278 2386 281 b 2418 328 2406 300 2414 313 b 2428 351 2421 336 2424 344 b 2436 356 2431 354 2433 356 l 2438 356 m 2604 486 b 2647 374 2638 457 2649 419 b 2618 285 2646 344 2640 311 b 2556 253 2601 264 2579 253 b 2493 288 2533 253 2510 264 b 2467 375 2475 311 2467 343 b 2504 481 2467 414 2479 454 b 2556 507 2519 499 2538 507 b 2604 486 2572 507 2589 500 m 2625 368 b 2607 451 2625 401 2621 428 b 2560 485 2593 474 2576 485 b 2513 454 2543 485 2526 475 b 2488 376 2496 429 2488 404 b 2504 311 2488 356 2493 333 b 2557 276 2514 289 2532 276 l 2561 276 b 2613 314 2588 278 2603 292 b 2625 365 2621 332 2625 351 m 2829 506 b 2836 500 2832 506 2835 504 b 2840 492 2839 499 2840 494 b 2839 269 2840 483 2839 306 b 2829 251 2839 261 2838 251 l 2828 251 b 2817 268 2819 251 2817 261 l 2818 422 l 2818 433 b 2817 435 2818 433 2817 435 b 2815 433 2815 435 2815 435 b 2782 354 2808 417 2789 369 b 2764 335 2779 346 2775 335 l 2761 335 b 2746 353 2753 336 2749 344 b 2710 435 2746 353 2739 367 b 2708 435 2708 435 2708 435 b 2707 433 2707 435 2707 435 l 2704 269 b 2694 253 2704 263 2703 253 l 2693 253 b 2682 269 2685 253 2682 263 l 2682 493 b 2696 508 2682 500 2689 507 l 2699 508 b 2717 492 2708 508 2713 500 l 2765 371 l 2776 396 b 2814 488 2789 426 2800 457 b 2829 506 2815 493 2822 506 m 417 619 b 408 611 417 617 414 613 b 353 608 393 610 371 608 b 318 615 336 608 322 610 b 317 621 317 617 317 618 b 340 681 317 633 324 653 b 376 760 358 708 374 742 b 379 778 378 765 379 772 b 368 796 379 788 376 794 l 367 796 b 335 775 358 796 343 785 b 331 772 333 772 332 772 b 328 775 329 772 328 774 b 331 783 328 778 328 781 b 368 808 340 796 356 808 b 403 771 394 807 403 792 b 363 660 403 733 375 679 b 340 622 353 647 347 636 l 363 622 l 410 624 b 417 619 415 622 417 621 m 446 610 b 432 656 433 610 432 636 l 432 672 b 435 749 432 678 433 736 b 443 804 436 765 435 796 b 451 806 446 806 449 806 l 454 806 b 463 800 457 806 463 803 b 464 775 464 793 464 785 b 460 633 464 728 460 653 b 446 610 460 625 460 611 m 576 619 b 568 613 576 617 574 613 b 511 610 553 611 531 610 b 478 615 494 610 482 611 b 475 622 476 617 475 619 b 500 681 475 633 483 653 b 536 760 518 708 532 742 b 539 778 538 765 539 772 b 528 796 539 788 535 794 l 526 796 b 494 775 518 796 503 785 b 490 772 493 772 492 772 b 486 775 489 772 486 774 b 490 783 486 778 488 781 b 528 808 500 796 515 808 b 563 771 553 807 563 792 b 521 660 563 733 533 679 b 500 622 513 647 507 636 l 522 622 l 569 624 b 576 619 575 622 576 621 m 1446 732 b 1433 742 1446 738 1443 742 b 1419 743 1429 743 1424 743 b 1413 700 1419 738 1414 706 b 1411 692 1413 696 1413 693 l 1411 690 b 1403 653 1410 676 1407 664 b 1392 628 1399 640 1396 633 b 1381 615 1388 621 1383 617 b 1367 610 1376 611 1372 610 b 1350 618 1360 610 1354 613 b 1342 636 1346 624 1344 629 l 1340 660 l 1340 663 b 1336 651 1339 658 1338 656 b 1319 619 1332 639 1326 628 b 1299 607 1314 611 1307 607 b 1292 608 1297 607 1293 607 b 1274 626 1285 613 1278 618 b 1263 649 1269 635 1265 642 b 1261 658 1263 653 1261 656 b 1225 642 1251 649 1240 643 b 1222 642 1225 642 1224 642 b 1217 632 1221 639 1219 635 b 1183 611 1208 618 1194 611 b 1149 632 1171 611 1157 618 b 1136 663 1142 643 1138 653 b 1099 646 1126 653 1113 647 b 1071 615 1092 633 1082 622 b 1049 607 1064 610 1057 607 b 1036 608 1044 607 1040 607 b 1031 610 1035 610 1032 610 b 1028 610 1029 610 1029 610 b 1021 607 1025 607 1024 607 b 1013 617 1017 607 1015 611 b 1001 656 1007 629 1004 643 b 996 647 1000 653 999 650 b 986 633 993 643 990 638 b 972 615 982 628 978 621 l 968 611 l 968 604 b 958 543 968 585 968 563 b 947 526 956 538 951 532 b 929 513 942 519 936 515 b 921 511 926 513 924 511 b 908 514 917 511 913 513 b 894 532 901 518 897 524 b 893 542 893 536 893 539 b 893 550 893 544 893 547 b 903 576 894 560 899 568 b 919 596 906 581 915 592 b 938 610 924 600 931 606 b 942 614 940 611 942 614 b 942 617 942 614 942 615 b 940 660 942 644 942 629 b 931 633 938 650 933 642 b 921 615 928 628 925 621 b 903 607 917 610 910 607 b 882 622 894 607 885 613 b 878 638 881 626 879 633 b 875 654 876 643 875 649 b 836 613 865 636 853 621 b 822 608 832 610 826 608 b 783 639 804 608 789 622 b 781 647 782 640 781 644 l 778 643 b 771 624 776 636 774 629 b 758 608 768 617 764 613 b 749 607 756 607 753 607 l 746 607 b 713 631 729 607 722 617 l 697 654 b 672 685 693 664 685 683 l 671 633 b 658 610 671 625 669 611 l 657 610 b 644 657 646 610 644 638 l 647 753 b 656 808 649 769 647 800 b 663 810 657 810 660 810 l 665 810 b 674 803 668 810 674 807 b 676 781 675 799 676 790 l 672 711 l 674 711 b 693 715 676 711 692 714 b 714 729 700 718 707 724 b 735 776 725 740 733 760 b 750 800 736 786 738 800 l 749 800 b 757 789 756 799 757 793 b 754 771 757 782 756 775 b 743 742 751 758 747 750 b 717 713 738 731 728 721 b 696 699 714 710 700 703 b 736 635 711 682 726 643 b 750 624 740 631 744 624 b 756 628 751 624 754 625 b 771 676 757 632 763 647 b 771 683 771 678 771 682 b 772 699 771 688 771 693 b 803 756 776 719 783 744 b 825 763 810 760 817 763 b 844 754 832 763 839 760 b 854 728 850 747 854 738 b 844 704 854 719 851 711 b 822 689 838 697 831 693 b 800 679 817 686 800 679 b 803 649 800 667 801 658 b 817 628 804 640 810 632 b 822 626 819 626 821 626 b 839 635 829 626 835 631 b 867 676 850 644 861 657 b 871 689 868 681 869 685 b 871 693 871 690 871 692 b 871 699 871 694 871 697 b 871 717 871 699 871 707 b 874 744 871 726 872 739 b 881 751 874 747 878 750 b 888 753 883 753 885 753 b 900 740 894 753 900 747 b 896 683 900 719 896 703 b 903 631 897 667 899 647 b 907 626 903 628 904 626 b 914 631 910 626 913 628 b 943 733 931 665 939 696 l 946 749 b 958 761 947 756 951 761 b 963 761 960 761 961 761 b 971 747 969 760 971 754 b 969 724 971 738 971 733 l 968 703 b 967 636 968 703 967 656 l 967 633 b 985 658 979 649 974 643 b 996 688 989 668 993 676 l 996 693 b 1007 793 996 726 999 761 b 1017 815 1010 801 1014 808 b 1031 831 1021 822 1025 828 b 1042 833 1035 832 1038 833 b 1051 829 1046 833 1049 832 b 1058 808 1057 824 1058 815 b 1057 794 1058 803 1058 799 b 1031 747 1051 776 1042 763 b 1024 738 1026 742 1024 738 l 1024 731 b 1025 701 1024 717 1025 704 b 1029 713 1026 706 1028 708 b 1046 746 1035 724 1039 736 b 1071 763 1051 756 1060 763 l 1075 763 b 1107 738 1088 761 1103 750 b 1111 711 1110 728 1111 719 l 1111 700 b 1103 663 1110 688 1107 675 b 1128 679 1113 665 1122 669 b 1133 688 1131 682 1132 685 b 1133 690 1133 689 1133 689 b 1140 717 1135 699 1138 707 b 1157 743 1143 725 1150 736 b 1185 757 1164 750 1175 754 b 1199 758 1189 757 1194 758 b 1226 742 1211 758 1222 747 b 1232 715 1231 733 1232 725 l 1232 700 b 1226 660 1232 686 1231 674 b 1243 665 1231 660 1239 663 b 1250 669 1246 667 1249 668 b 1260 686 1254 674 1258 682 b 1260 693 1260 689 1260 692 b 1260 696 1260 694 1260 694 b 1281 744 1261 717 1268 733 b 1304 754 1289 751 1297 754 b 1318 751 1308 754 1313 753 b 1329 743 1322 749 1326 746 b 1339 732 1333 740 1336 736 l 1339 733 b 1350 756 1339 747 1343 754 l 1356 756 b 1365 753 1360 756 1364 754 b 1368 743 1367 750 1368 746 b 1365 654 1367 735 1367 706 b 1367 640 1367 649 1367 644 b 1375 628 1368 632 1371 628 b 1382 635 1376 628 1379 631 b 1399 685 1389 643 1394 660 b 1400 690 1399 688 1399 689 l 1400 692 b 1403 708 1400 694 1401 704 l 1408 743 l 1404 744 b 1400 753 1401 746 1400 750 b 1401 757 1400 754 1400 756 b 1408 761 1403 761 1406 761 b 1429 756 1415 761 1424 757 b 1449 753 1436 754 1443 754 b 1472 729 1467 750 1472 744 l 1472 724 b 1468 676 1472 707 1471 693 b 1467 650 1468 668 1467 660 b 1469 631 1467 644 1467 638 b 1475 628 1471 629 1472 628 l 1476 628 b 1481 631 1478 628 1478 629 b 1494 664 1488 640 1490 647 b 1496 669 1496 665 1496 667 b 1497 696 1496 678 1496 688 b 1506 731 1499 707 1500 718 b 1533 753 1513 740 1522 750 b 1567 743 1546 757 1557 751 b 1575 733 1569 742 1572 738 b 1597 814 1576 763 1582 792 b 1629 832 1603 825 1614 836 b 1649 799 1640 831 1649 815 b 1636 751 1649 782 1643 765 b 1611 718 1629 739 1622 729 b 1600 708 1610 717 1600 708 b 1601 660 1600 694 1600 672 b 1613 628 1603 649 1606 638 b 1618 626 1614 628 1617 626 b 1646 689 1629 629 1638 660 b 1649 697 1647 692 1647 694 b 1661 696 1653 703 1660 703 b 1660 689 1661 693 1661 692 b 1621 611 1653 664 1647 625 b 1600 615 1614 608 1604 611 b 1578 667 1585 626 1579 649 b 1574 660 1576 665 1575 663 b 1556 624 1569 647 1565 635 b 1528 613 1550 615 1539 607 b 1501 644 1515 618 1507 631 b 1501 643 1501 643 1501 643 b 1471 610 1494 631 1486 610 b 1446 632 1457 610 1451 621 b 1440 667 1442 644 1440 656 b 1443 706 1440 679 1442 693 b 1446 728 1443 713 1444 717 b 1446 732 1446 729 1446 731 m 1601 756 b 1599 726 1601 751 1599 735 b 1633 796 1617 740 1635 771 b 1621 811 1633 806 1631 818 b 1613 799 1618 808 1614 803 b 1601 756 1607 785 1603 771 m 1522 693 b 1526 633 1519 674 1521 653 b 1546 635 1531 619 1540 625 b 1556 651 1551 640 1554 647 b 1571 706 1560 663 1572 697 b 1546 736 1571 721 1563 735 b 1533 728 1540 738 1536 733 b 1522 693 1526 717 1525 704 m 1032 790 b 1026 757 1029 781 1026 768 b 1031 764 1028 760 1031 763 l 1036 771 b 1043 783 1038 775 1040 779 b 1049 799 1046 789 1047 793 b 1050 808 1049 801 1050 804 l 1049 811 b 1046 814 1049 813 1047 814 b 1042 813 1044 814 1043 814 b 1032 790 1036 806 1035 799 m 810 721 b 801 690 806 714 801 692 b 831 706 807 693 825 701 b 844 729 839 711 844 719 l 844 732 b 832 746 844 740 839 746 b 822 742 829 746 826 744 b 810 721 815 735 813 728 m 917 532 b 942 596 939 532 942 596 b 929 586 942 596 939 594 b 907 544 918 578 907 561 b 917 532 907 538 910 532 m 1061 629 b 1076 646 1071 636 1072 638 b 1057 644 1071 646 1064 646 b 1039 638 1051 643 1044 642 b 1036 631 1038 635 1036 633 b 1049 624 1036 626 1043 624 b 1061 629 1051 624 1058 626 m 1086 699 b 1085 719 1086 706 1086 713 b 1072 742 1083 726 1079 740 b 1069 742 1071 742 1069 742 b 1060 738 1067 742 1063 740 b 1053 726 1057 735 1054 731 b 1033 650 1039 704 1033 676 l 1033 647 b 1054 656 1033 653 1050 656 b 1082 660 1060 658 1075 658 b 1086 676 1082 660 1085 672 b 1086 686 1086 679 1086 683 m 1194 631 b 1208 643 1200 633 1204 638 b 1186 647 1200 644 1193 644 b 1163 671 1175 653 1168 661 b 1164 651 1163 663 1163 656 b 1189 629 1167 643 1178 629 b 1194 631 1192 629 1193 629 m 1222 700 l 1222 707 b 1203 744 1221 721 1218 739 b 1197 746 1201 746 1200 746 b 1176 731 1188 746 1181 739 b 1174 713 1174 725 1174 718 b 1193 667 1174 696 1181 674 b 1213 661 1199 664 1204 661 l 1214 661 b 1219 676 1215 668 1218 669 b 1221 700 1221 685 1221 692 m 1326 660 b 1338 706 1333 678 1338 693 b 1331 726 1338 714 1336 721 b 1311 736 1326 732 1319 736 b 1300 726 1308 736 1303 733 b 1288 671 1292 711 1288 693 b 1293 633 1288 658 1289 646 b 1300 625 1294 628 1297 625 b 1313 635 1304 625 1308 628 b 1326 660 1318 640 1321 649 m 1922 526 b 1906 517 1917 521 1911 517 b 1896 514 1903 515 1900 514 b 1885 518 1893 514 1889 515 b 1871 535 1878 521 1872 528 b 1869 544 1869 539 1869 542 b 1869 553 1869 547 1869 550 b 1879 579 1871 563 1874 571 b 1896 599 1882 583 1892 594 b 1914 613 1900 603 1907 608 b 1918 617 1915 614 1918 617 b 1918 619 1918 617 1918 618 b 1915 663 1918 647 1918 633 b 1906 636 1913 654 1910 644 b 1896 618 1904 631 1901 624 b 1879 610 1892 614 1886 610 b 1857 625 1871 610 1861 615 b 1853 640 1856 629 1854 636 b 1850 667 1851 649 1851 658 b 1811 649 1840 657 1826 650 b 1783 618 1804 636 1794 625 b 1761 610 1776 613 1769 610 b 1749 611 1757 610 1753 610 b 1743 613 1747 613 1744 613 b 1740 613 1743 613 1742 613 b 1733 610 1738 610 1736 610 b 1725 619 1729 610 1728 614 b 1711 685 1717 640 1711 663 l 1711 693 b 1722 793 1711 726 1714 761 b 1732 815 1725 801 1728 808 b 1746 831 1736 822 1739 828 b 1757 833 1750 832 1753 833 b 1767 829 1760 833 1764 832 b 1774 808 1772 824 1774 815 b 1772 794 1774 803 1774 799 b 1746 747 1767 776 1757 763 b 1739 738 1742 742 1739 738 l 1739 731 b 1739 701 1739 717 1739 704 b 1744 713 1742 706 1743 708 b 1760 746 1749 724 1754 736 b 1786 763 1767 756 1775 763 l 1789 763 b 1822 738 1803 761 1817 750 b 1826 711 1825 728 1826 719 l 1825 700 b 1817 663 1825 688 1822 675 b 1843 679 1828 665 1836 669 b 1847 688 1846 682 1846 685 b 1850 693 1849 689 1849 692 b 1850 697 1850 694 1850 696 b 1850 717 1850 697 1850 707 b 1851 743 1850 726 1850 738 b 1860 751 1853 747 1856 750 b 1865 753 1861 753 1864 753 b 1878 739 1874 753 1878 747 b 1874 683 1878 718 1874 701 b 1881 631 1875 665 1876 647 b 1885 625 1882 626 1883 625 b 1892 631 1888 625 1890 628 b 1922 732 1908 664 1917 696 l 1924 747 b 1938 761 1925 756 1929 761 b 1940 761 1938 761 1939 761 b 1950 747 1949 760 1950 754 b 1949 724 1950 736 1949 733 l 1947 701 b 1944 635 1947 701 1944 656 l 1944 632 b 1963 657 1957 647 1951 642 b 1975 689 1968 668 1972 678 b 1978 697 1975 692 1976 694 b 1983 701 1979 699 1981 701 b 1989 694 1986 701 1989 699 l 1989 693 b 1989 688 1989 690 1989 689 b 1971 649 1985 674 1979 660 b 1961 635 1968 644 1965 639 b 1947 617 1957 628 1953 622 l 1943 613 l 1943 606 b 1933 544 1943 585 1943 563 b 1922 526 1931 539 1928 532 m 1744 790 b 1739 757 1742 781 1739 768 b 1744 764 1740 760 1743 763 l 1749 771 b 1756 783 1750 775 1753 779 b 1761 799 1758 789 1760 793 b 1763 808 1763 801 1763 804 l 1763 811 b 1758 814 1761 813 1760 814 b 1754 813 1757 814 1756 814 b 1744 790 1749 806 1747 799 m 1774 629 b 1789 646 1783 636 1785 638 b 1769 644 1783 646 1776 646 b 1753 638 1764 643 1757 642 b 1749 631 1750 635 1749 633 b 1761 624 1749 626 1756 624 b 1774 629 1764 624 1772 626 m 1799 699 b 1797 719 1799 706 1799 713 b 1785 742 1796 726 1792 740 b 1782 742 1783 742 1783 742 b 1774 738 1779 742 1775 740 b 1765 726 1769 735 1767 731 b 1746 650 1753 704 1746 676 l 1746 647 b 1767 656 1746 653 1763 656 b 1794 660 1774 658 1788 658 b 1799 676 1794 660 1797 672 b 1799 686 1799 679 1799 683 m 1892 532 b 1918 596 1914 532 1918 596 b 1904 586 1918 596 1914 594 b 1882 544 1894 578 1882 561 b 1892 532 1882 538 1886 532 m 2067 679 b 2104 760 2085 708 2099 742 b 2106 776 2106 765 2106 771 b 2094 796 2106 786 2103 794 b 2061 774 2085 796 2069 785 b 2057 771 2060 772 2058 771 b 2054 775 2056 771 2054 772 b 2057 782 2054 776 2056 779 b 2094 807 2067 794 2083 807 b 2129 769 2121 806 2129 790 b 2089 660 2129 733 2101 679 b 2068 621 2079 647 2075 635 l 2089 621 l 2136 622 b 2144 618 2143 621 2144 621 b 2135 611 2144 617 2142 613 b 2078 608 2119 610 2097 608 b 2044 615 2061 608 2049 610 b 2042 621 2043 617 2042 618 b 2067 679 2042 632 2050 653 m 2172 610 b 2157 656 2160 610 2158 636 l 2157 672 b 2161 749 2157 678 2160 736 b 2169 804 2163 765 2161 796 b 2176 806 2172 806 2175 806 l 2181 806 b 2189 800 2183 806 2189 803 b 2190 775 2190 793 2190 785 b 2185 633 2190 728 2185 653 b 2172 610 2185 625 2185 611 m 2294 611 b 2239 608 2278 611 2256 608 b 2204 615 2222 608 2208 610 b 2203 621 2203 617 2203 618 b 2226 679 2203 632 2211 653 b 2263 760 2244 707 2260 742 b 2265 776 2264 765 2265 771 b 2254 796 2265 786 2263 794 l 2253 796 b 2221 774 2244 796 2229 785 b 2217 771 2219 772 2218 771 b 2214 775 2215 771 2214 772 b 2217 782 2214 776 2214 779 b 2254 807 2226 794 2242 807 b 2289 769 2281 806 2289 790 b 2249 660 2289 733 2261 679 b 2226 621 2239 647 2233 635 l 2249 621 l 2296 622 b 2303 618 2301 621 2303 621 b 2294 611 2303 617 2300 613 m 2453 728 b 2463 724 2457 728 2460 726 b 2454 715 2463 722 2460 718 l 2404 711 b 2400 628 2401 675 2400 639 b 2386 604 2400 619 2399 606 b 2372 649 2374 604 2372 629 l 2378 778 l 2379 789 b 2365 783 2376 786 2369 783 b 2358 786 2363 783 2360 785 b 2357 793 2358 790 2357 792 b 2379 804 2357 800 2374 803 l 2465 817 b 2472 813 2468 817 2471 815 b 2474 808 2474 811 2474 810 b 2446 799 2474 800 2450 799 l 2404 793 l 2403 722 l 2450 728 l 2453 728 m 2907 699 b 2906 692 2910 699 2911 697 b 2904 679 2906 688 2906 683 b 2875 651 2897 665 2888 657 b 2864 649 2871 650 2867 649 l 2864 646 b 2860 626 2864 640 2863 633 b 2849 610 2857 619 2854 614 b 2835 606 2844 607 2840 606 b 2819 608 2828 606 2824 607 b 2811 626 2814 613 2811 618 b 2817 646 2811 633 2813 640 b 2831 658 2819 650 2825 656 l 2832 658 b 2833 660 2832 658 2833 660 b 2833 660 2833 660 2833 660 l 2833 661 b 2833 663 2833 661 2833 663 b 2833 664 2833 664 2833 664 b 2826 692 2831 672 2828 682 b 2822 718 2824 701 2822 711 b 2817 703 2819 713 2818 707 b 2815 697 2817 700 2815 699 b 2814 689 2815 694 2814 692 b 2814 689 2814 689 2814 689 b 2814 685 2814 688 2814 686 b 2796 629 2808 664 2807 649 b 2778 608 2792 621 2786 613 b 2768 607 2775 607 2771 607 b 2760 608 2767 607 2764 607 b 2744 617 2754 610 2750 614 b 2735 636 2739 622 2738 629 b 2729 668 2731 647 2729 657 l 2729 678 b 2718 640 2726 663 2719 644 b 2688 608 2711 629 2704 608 b 2660 660 2664 608 2661 643 b 2660 674 2660 665 2660 668 b 2661 731 2660 693 2661 711 b 2661 733 2661 732 2661 732 b 2660 735 2661 733 2661 735 b 2654 728 2658 735 2656 731 b 2642 704 2650 721 2644 711 b 2629 676 2638 694 2633 686 b 2614 621 2622 658 2615 640 b 2604 607 2614 614 2613 607 l 2603 607 b 2590 615 2597 608 2593 610 b 2585 629 2588 619 2586 625 l 2585 663 b 2547 643 2576 650 2563 644 b 2544 643 2547 643 2546 643 b 2539 633 2543 639 2542 636 b 2506 611 2531 618 2517 611 b 2471 633 2493 611 2479 618 b 2457 676 2461 647 2457 661 b 2465 714 2457 689 2460 701 b 2482 742 2468 722 2475 735 b 2511 754 2489 747 2501 753 b 2524 756 2514 756 2519 756 b 2551 739 2536 756 2547 746 b 2557 714 2556 732 2557 722 l 2557 697 b 2551 657 2557 685 2556 671 b 2568 663 2556 657 2564 660 b 2575 668 2571 664 2574 667 b 2585 686 2581 672 2583 679 b 2586 692 2585 688 2585 690 l 2585 739 b 2592 751 2586 743 2588 747 b 2601 754 2594 753 2597 754 l 2604 754 b 2611 749 2608 754 2611 751 b 2613 740 2613 746 2613 743 l 2613 739 b 2614 667 2613 692 2613 715 b 2629 706 2618 678 2624 694 b 2649 742 2635 718 2642 731 b 2660 753 2651 746 2656 750 b 2672 758 2664 757 2668 758 b 2689 743 2681 758 2688 753 b 2690 724 2690 736 2690 731 b 2689 699 2690 715 2689 707 b 2688 665 2689 697 2688 682 b 2696 631 2688 649 2689 631 b 2700 633 2697 631 2699 632 b 2715 664 2708 640 2710 649 b 2721 694 2717 669 2719 688 b 2721 700 2721 696 2721 697 l 2724 710 l 2731 760 b 2732 765 2732 761 2732 764 l 2732 772 l 2728 772 b 2717 771 2724 772 2719 772 l 2713 768 b 2708 767 2711 767 2710 767 b 2703 769 2707 767 2706 767 b 2703 771 2703 769 2703 771 b 2708 779 2703 774 2706 776 b 2718 782 2711 781 2714 782 b 2728 783 2721 783 2725 783 l 2732 783 b 2739 819 2732 799 2732 814 b 2750 824 2742 822 2746 824 l 2751 824 b 2761 817 2756 824 2760 821 b 2763 793 2763 814 2763 806 l 2763 776 l 2767 776 b 2785 781 2774 776 2778 779 b 2799 789 2789 783 2794 786 l 2800 789 b 2806 783 2804 789 2806 786 l 2806 782 b 2803 776 2806 781 2804 778 b 2765 765 2790 771 2778 765 l 2763 765 b 2761 663 2763 728 2761 678 l 2761 657 b 2774 622 2761 650 2761 622 l 2775 622 b 2794 647 2785 624 2790 639 b 2804 686 2799 663 2800 672 b 2806 692 2804 688 2804 689 b 2806 699 2806 693 2806 694 b 2807 704 2807 701 2807 703 b 2807 706 2807 704 2807 706 b 2808 708 2808 706 2808 707 b 2810 714 2810 711 2810 713 b 2810 715 2810 714 2810 714 b 2826 754 2814 729 2818 742 b 2838 765 2829 760 2833 763 b 2853 765 2842 767 2847 767 b 2856 758 2854 764 2856 761 b 2854 750 2856 756 2856 753 b 2853 731 2853 744 2851 738 b 2856 708 2853 724 2854 717 b 2863 686 2857 701 2860 694 b 2864 682 2864 685 2864 683 b 2868 664 2865 676 2867 669 b 2893 678 2876 665 2885 669 b 2897 686 2894 679 2896 683 b 2899 690 2897 688 2899 689 b 2901 696 2900 692 2900 694 b 2907 699 2903 699 2906 699 m 2522 631 b 2535 643 2526 633 2531 638 b 2514 647 2526 644 2519 644 b 2489 671 2503 653 2494 661 b 2492 651 2489 663 2489 656 b 2515 629 2494 643 2504 629 b 2522 631 2518 629 2519 629 m 2549 700 l 2549 707 b 2531 744 2547 721 2544 739 b 2524 746 2528 746 2526 746 b 2503 731 2514 746 2507 739 b 2500 713 2501 725 2500 718 b 2519 667 2500 696 2507 674 b 2539 661 2525 664 2532 661 l 2540 661 b 2546 676 2543 668 2544 669 b 2547 700 2547 685 2547 692 m 2846 631 b 2846 640 2846 633 2846 636 b 2844 649 2846 643 2846 646 l 2844 651 b 2842 650 2843 650 2843 650 b 2840 649 2842 650 2842 649 b 2838 647 2839 649 2839 649 b 2832 642 2836 646 2833 644 b 2829 633 2831 639 2829 636 b 2836 625 2831 629 2832 626 b 2843 628 2839 625 2842 625 b 2844 629 2844 628 2844 629 b 2846 631 2844 629 2846 631 m 3158 822 b 3158 149 3158 597 3158 374 b 3010 0 3158 56 3101 0 b 218 0 2794 0 433 0 b 69 147 126 0 71 57 b 69 486 69 260 69 374 b 69 821 69 597 69 708 b 222 971 71 917 125 971 b 3008 971 435 971 2796 971 b 3158 822 3101 971 3158 917 m 217 801 b 347 932 217 885 265 933 b 2861 933 469 933 2739 932 b 2921 942 2881 933 2901 939 b 224 947 2738 947 407 947 b 93 818 140 947 94 903 b 93 206 93 614 93 410 b 93 179 93 196 93 188 b 100 178 96 179 97 178 b 199 283 133 213 168 247 b 215 325 208 294 215 311 b 217 801 217 485 217 643 m 2979 303 b 2979 551 2979 386 2979 469 b 2979 808 2979 638 2981 722 b 2885 907 2979 865 2943 907 b 338 907 2751 908 471 908 b 242 806 278 907 242 865 b 242 300 242 638 242 469 b 343 200 242 239 281 200 b 2876 200 471 200 2747 200 b 2979 303 2940 201 2979 239 "},"{":{"ha":1081,"x_min":0,"x_max":0,"o":"m 553 446 b 526 421 547 435 538 426 b 553 396 538 415 546 406 b 560 358 557 385 560 372 l 560 318 b 569 274 560 300 564 286 b 601 249 576 263 586 254 l 593 226 b 538 261 567 233 549 246 b 521 318 526 276 521 296 l 521 360 b 510 394 521 374 517 386 b 479 407 504 403 493 407 l 479 436 b 510 449 493 436 504 440 b 521 482 517 456 521 468 l 521 524 b 538 581 521 546 526 565 b 593 615 549 597 567 608 l 601 592 b 569 568 586 588 575 579 b 560 524 564 556 560 540 l 560 482 b 553 446 560 469 558 456 m 1011 822 b 1011 150 1011 599 1011 374 b 861 1 1011 57 954 1 b 218 1 647 1 433 1 b 69 149 128 1 71 58 b 69 488 69 261 69 375 b 69 821 69 599 69 710 b 222 972 69 917 126 972 b 860 972 435 972 647 972 b 1011 822 954 972 1011 917 m 217 803 b 349 933 217 886 265 935 b 714 935 469 935 592 933 b 772 942 733 935 753 939 b 224 949 589 949 407 949 b 93 819 139 949 93 903 b 93 206 93 615 93 410 b 93 179 93 197 93 189 b 100 178 96 179 99 179 b 199 285 133 213 168 247 b 215 326 208 294 215 313 b 217 803 217 485 217 644 m 831 304 b 831 553 831 388 831 471 b 831 808 831 638 832 724 b 738 908 831 867 794 907 b 336 908 603 910 469 910 b 240 807 276 907 240 867 b 240 301 240 639 240 469 b 342 201 240 240 279 201 b 729 201 471 201 599 201 b 831 304 792 201 831 239 "},"|":{"ha":1081,"x_min":0,"x_max":0,"o":"m 521 244 l 521 589 l 560 589 l 560 244 m 1011 822 b 1011 150 1011 599 1011 374 b 861 1 1011 57 954 1 b 218 1 647 1 433 1 b 69 149 128 1 71 58 b 69 488 69 261 69 375 b 69 821 69 599 69 710 b 222 972 69 917 126 972 b 860 972 435 972 647 972 b 1011 822 954 972 1011 917 m 217 803 b 349 933 217 886 265 935 b 714 935 469 935 592 933 b 772 942 733 935 753 939 b 224 949 589 949 407 949 b 93 819 139 949 93 903 b 93 206 93 615 93 410 b 93 179 93 197 93 189 b 100 178 96 179 99 179 b 199 285 133 213 168 247 b 215 326 208 294 215 313 b 217 803 217 485 217 644 m 831 304 b 831 553 831 388 831 471 b 831 808 831 638 832 724 b 738 908 831 867 794 907 b 336 908 603 910 469 910 b 240 807 276 907 240 867 b 240 301 240 639 240 469 b 342 201 240 240 279 201 b 729 201 471 201 599 201 b 831 304 792 201 831 239 "},"}":{"ha":1081,"x_min":0,"x_max":0,"o":"m 560 483 b 569 449 560 468 563 456 b 601 436 576 440 586 436 l 601 407 b 569 394 586 407 576 403 b 560 360 563 386 560 375 l 560 318 b 543 261 560 296 554 276 b 488 226 532 244 514 233 l 479 249 b 511 274 494 254 506 261 b 521 318 518 286 521 300 l 521 358 b 529 396 521 374 524 386 b 557 421 536 407 544 415 b 529 444 544 426 536 435 b 521 482 524 456 521 468 l 521 524 b 511 568 521 540 517 556 b 479 592 504 579 494 588 l 488 615 b 543 581 514 608 532 597 b 560 524 554 565 560 546 l 560 483 m 1011 822 b 1011 150 1011 599 1011 374 b 861 1 1011 57 954 1 b 218 1 647 1 433 1 b 69 149 128 1 71 58 b 69 488 69 261 69 375 b 69 821 69 599 69 710 b 222 972 69 917 126 972 b 860 972 435 972 647 972 b 1011 822 954 972 1011 917 m 217 803 b 349 933 217 886 265 935 b 714 935 469 935 592 933 b 772 942 733 935 753 939 b 224 949 589 949 407 949 b 93 819 139 949 93 903 b 93 206 93 615 93 410 b 93 179 93 197 93 189 b 100 178 96 179 99 179 b 199 285 133 213 168 247 b 215 326 208 294 215 313 b 217 803 217 485 217 644 m 831 304 b 832 553 831 388 831 471 b 832 808 832 638 832 724 b 738 908 832 867 796 907 b 336 908 604 910 471 910 b 242 807 278 907 242 867 b 242 301 242 639 242 469 b 342 201 242 240 281 201 b 729 201 471 201 600 201 b 831 304 793 201 831 239 "},"~":{"ha":1081,"x_min":0,"x_max":0,"o":"m 617 422 b 626 450 622 431 626 439 l 654 446 b 638 399 654 428 649 413 b 593 378 625 385 611 378 b 561 385 582 378 571 381 b 529 406 551 389 540 396 b 508 421 521 413 514 417 b 489 425 501 424 494 425 b 465 414 481 425 472 421 b 456 389 460 407 456 399 l 428 393 b 444 439 428 411 433 426 b 489 458 456 451 471 458 b 521 451 500 458 511 456 b 553 431 531 447 542 440 b 574 415 560 424 567 419 b 593 411 581 413 588 411 b 617 422 601 411 610 415 m 1011 822 b 1011 150 1011 599 1011 374 b 861 1 1011 57 954 1 b 218 1 647 1 433 1 b 69 149 126 1 71 57 b 69 488 69 261 69 374 b 69 821 69 599 69 710 b 222 972 71 917 125 972 b 860 972 435 972 647 972 b 1011 822 954 972 1011 917 m 217 803 b 349 933 217 886 265 935 b 714 935 471 935 592 933 b 774 942 733 935 754 939 b 224 949 589 949 407 949 b 93 819 140 949 94 903 b 93 206 93 615 93 410 b 93 179 93 197 93 189 b 100 178 96 179 97 179 b 199 285 133 213 168 247 b 215 326 208 294 215 313 b 217 803 217 485 217 644 m 831 304 b 832 553 831 388 831 471 b 832 808 832 638 832 724 b 738 908 832 867 794 907 b 336 908 603 910 471 910 b 240 807 278 907 240 867 b 240 301 240 639 240 469 b 342 201 240 240 279 201 b 729 201 471 201 600 201 b 831 304 793 201 831 239 "},"":{"ha":540,"x_min":0,"x_max":0,"o":""},"":{"ha":0,"x_min":0,"x_max":0,"o":""},"":{"ha":1081,"x_min":0,"x_max":0,"o":"m 429 458 l 529 458 l 529 442 l 451 442 l 451 386 l 518 386 l 518 368 l 451 368 l 451 299 l 429 299 m 557 454 l 613 460 l 613 299 l 590 299 l 590 439 l 557 438 m 1011 822 b 1011 150 1011 599 1011 374 b 861 1 1011 57 954 1 b 218 1 647 1 433 1 b 69 149 126 1 71 57 b 69 488 69 261 69 374 b 69 821 69 599 69 710 b 222 972 71 917 125 972 b 860 972 435 972 647 972 b 1011 822 954 972 1011 917 m 217 803 b 349 933 217 886 265 935 b 714 935 471 935 592 933 b 774 942 733 935 754 939 b 224 949 589 949 407 949 b 93 819 140 949 94 903 b 93 206 93 615 93 410 b 93 179 93 197 93 189 b 100 178 96 179 97 179 b 199 285 133 213 168 247 b 215 326 208 294 215 313 b 217 803 217 485 217 644 m 831 304 b 832 553 831 388 831 471 b 832 808 832 638 832 724 b 738 908 832 867 794 907 b 336 908 603 910 471 910 b 240 807 278 907 240 867 b 240 301 240 639 240 469 b 342 201 240 240 279 201 b 729 201 471 201 600 201 b 831 304 793 201 831 239 "},"":{"ha":1081,"x_min":0,"x_max":0,"o":"m 431 458 l 529 458 l 529 442 l 451 442 l 451 386 l 519 386 l 519 368 l 451 368 l 451 299 l 431 299 m 578 315 l 651 317 l 651 299 l 553 299 l 553 314 l 603 374 b 621 400 613 385 618 393 b 625 419 624 406 625 413 b 618 436 625 426 624 432 b 601 443 614 442 608 443 b 579 435 592 443 585 440 b 572 413 574 429 572 422 l 550 413 l 550 414 b 564 446 550 426 554 438 b 600 460 572 456 585 460 b 633 449 614 460 625 456 b 646 417 642 440 646 431 b 639 393 646 410 643 400 b 618 363 635 385 628 375 m 1011 822 b 1011 150 1011 599 1011 374 b 861 1 1011 57 954 1 b 218 1 647 1 433 1 b 69 149 128 1 71 58 b 69 488 69 261 69 375 b 69 821 69 599 69 710 b 222 972 69 917 126 972 b 860 972 435 972 647 972 b 1011 822 954 972 1011 917 m 217 803 b 349 933 217 886 265 935 b 714 935 469 935 592 933 b 772 942 733 935 753 939 b 224 949 589 949 407 949 b 93 819 139 949 93 903 b 93 206 93 615 93 410 b 93 179 93 197 93 189 b 100 178 96 179 99 179 b 199 285 133 213 168 247 b 215 326 208 294 215 313 b 217 803 217 485 217 644 m 831 304 b 831 553 831 388 831 471 b 831 808 831 638 832 724 b 738 908 831 867 794 907 b 336 908 603 910 469 910 b 240 807 276 907 240 867 b 240 301 240 639 240 469 b 342 201 240 240 279 201 b 729 201 471 201 599 201 b 831 304 792 201 831 239 "},"":{"ha":1082,"x_min":0,"x_max":0,"o":"m 431 458 l 531 458 l 531 442 l 453 442 l 453 386 l 519 386 l 519 368 l 453 368 l 453 299 l 431 299 m 625 382 b 644 367 633 378 640 374 b 651 343 649 361 651 353 b 636 308 651 328 646 317 b 601 296 628 300 615 296 b 565 308 588 296 575 300 b 550 339 554 315 550 326 l 550 340 l 571 340 b 579 321 571 333 574 326 b 601 313 585 315 592 313 b 622 321 610 313 617 315 b 629 342 626 326 629 333 b 622 364 629 351 626 358 b 601 372 618 369 611 372 l 583 372 l 583 388 l 601 388 b 621 396 611 388 617 392 b 626 415 625 401 626 407 b 621 435 626 424 625 431 b 601 443 615 440 608 443 b 579 435 592 443 585 440 b 572 415 575 431 572 424 l 550 415 l 550 417 b 564 447 550 429 556 439 b 600 460 574 456 585 460 b 635 449 615 460 626 456 b 647 415 643 442 647 431 b 642 396 647 408 646 401 b 625 382 638 390 632 385 m 1011 822 b 1011 150 1013 599 1013 374 b 861 1 1011 57 954 1 b 218 1 647 1 433 1 b 69 149 128 1 71 58 b 69 488 69 261 69 375 b 69 821 69 599 69 710 b 222 972 69 917 126 972 b 860 972 435 972 647 972 b 1011 822 954 972 1011 917 m 217 803 b 349 933 217 886 265 935 b 714 935 469 935 592 933 b 772 942 733 935 753 939 b 224 949 589 949 407 949 b 93 819 139 949 93 903 b 93 206 93 615 93 410 b 93 179 93 197 93 189 b 100 178 96 179 99 179 b 199 285 133 213 168 247 b 215 326 208 294 215 313 b 217 803 217 485 217 644 m 831 304 b 832 553 831 388 831 471 b 832 808 832 638 832 724 b 738 908 832 867 796 907 b 336 908 604 910 471 910 b 242 807 278 907 242 867 b 242 301 242 639 242 469 b 342 201 242 240 281 201 b 729 201 471 201 600 201 b 831 304 793 201 831 239 "},"":{"ha":1081,"x_min":0,"x_max":0,"o":"m 428 458 l 528 458 l 528 442 l 450 442 l 450 386 l 517 386 l 517 368 l 450 368 l 450 299 l 428 299 m 632 458 l 632 353 l 653 353 l 653 335 l 632 335 l 632 299 l 610 299 l 610 335 l 540 335 l 540 347 l 608 458 m 610 426 l 608 426 l 607 422 l 564 353 l 610 353 m 1011 822 b 1011 150 1011 599 1011 374 b 861 1 1011 57 954 1 b 218 1 647 1 433 1 b 69 149 128 1 71 58 b 69 488 69 261 69 375 b 69 821 69 599 69 710 b 222 972 69 917 126 972 b 860 972 435 972 647 972 b 1011 822 954 972 1011 917 m 217 803 b 349 933 217 886 265 935 b 714 935 469 935 592 933 b 772 942 733 935 753 939 b 224 949 589 949 407 949 b 93 819 139 949 93 903 b 93 206 93 615 93 410 b 93 179 93 197 93 189 b 100 178 96 179 99 179 b 199 285 133 213 168 247 b 215 326 208 294 215 313 b 217 803 217 485 217 644 m 831 304 b 831 553 831 388 831 471 b 831 808 831 638 832 724 b 738 908 831 867 794 907 b 336 908 603 910 469 910 b 240 807 276 907 240 867 b 240 301 240 639 240 469 b 342 201 240 240 279 201 b 729 201 471 201 599 201 b 831 304 792 201 831 239 "},"":{"ha":1081,"x_min":0,"x_max":0,"o":"m 431 458 l 531 458 l 531 442 l 451 442 l 451 386 l 519 386 l 519 368 l 451 368 l 451 299 l 431 299 m 603 401 b 638 388 618 401 629 397 b 650 349 646 378 650 365 b 638 310 650 333 646 319 b 600 296 629 300 617 296 b 567 307 586 296 575 300 b 554 340 557 315 554 326 l 554 342 l 574 342 b 581 321 574 332 575 325 b 600 314 586 315 592 314 b 621 324 608 314 615 317 b 628 349 626 329 628 338 b 621 374 628 360 626 368 b 600 383 617 381 608 383 b 582 381 592 383 585 383 b 574 368 578 376 575 374 l 556 369 l 564 458 l 644 458 l 644 439 l 583 439 l 578 393 b 589 400 581 396 585 397 b 603 401 593 401 597 401 m 1011 822 b 1011 150 1011 599 1011 374 b 861 1 1011 57 954 1 b 218 1 647 1 433 1 b 69 149 128 1 71 58 b 69 488 69 261 69 375 b 69 821 69 599 69 710 b 222 972 69 917 126 972 b 860 972 435 972 647 972 b 1011 822 954 972 1011 917 m 217 803 b 349 933 217 886 265 935 b 714 935 469 935 592 933 b 772 942 733 935 753 939 b 224 949 589 949 407 949 b 93 819 139 949 93 903 b 93 206 93 615 93 410 b 93 179 93 197 93 189 b 100 178 96 179 99 179 b 199 285 133 213 168 247 b 215 326 208 294 215 313 b 217 803 217 485 217 644 m 831 304 b 831 553 831 388 831 471 b 831 808 831 638 832 724 b 738 908 831 867 794 907 b 336 908 603 910 469 910 b 240 807 276 907 240 867 b 240 301 240 639 240 469 b 342 201 240 240 279 201 b 729 201 471 201 599 201 b 831 304 792 201 831 239 "},"":{"ha":1082,"x_min":0,"x_max":0,"o":"m 431 458 l 529 458 l 529 442 l 451 442 l 451 386 l 519 386 l 519 368 l 451 368 l 451 299 l 431 299 m 607 400 b 642 386 621 400 632 396 b 654 351 650 378 654 365 b 640 313 654 335 650 322 b 604 297 632 303 619 297 b 567 314 589 297 576 303 b 553 358 557 325 553 339 l 553 396 b 568 442 553 414 557 431 b 607 460 579 454 592 460 b 626 458 614 460 621 460 b 642 454 632 458 638 456 l 636 438 b 624 442 632 440 628 442 b 607 443 618 443 613 443 b 582 431 596 443 588 439 b 572 399 575 422 572 411 l 572 386 b 588 396 576 390 582 394 b 607 400 594 399 601 400 m 624 324 b 631 351 628 329 631 339 b 622 375 631 361 628 369 b 600 385 617 382 610 385 b 583 381 593 385 588 383 b 572 368 578 376 574 374 l 572 357 b 581 325 572 343 575 332 b 603 313 586 317 594 313 b 624 324 611 313 618 317 m 1011 822 b 1011 150 1013 599 1013 374 b 861 1 1011 57 954 1 b 218 1 647 1 433 1 b 69 149 128 1 71 58 b 69 488 69 261 69 375 b 69 821 69 599 69 710 b 222 972 69 917 126 972 b 860 972 435 972 647 972 b 1011 822 954 972 1011 917 m 217 803 b 349 933 217 886 265 935 b 714 935 469 935 592 933 b 772 942 733 935 753 939 b 224 949 589 949 407 949 b 93 819 139 949 93 903 b 93 206 93 615 93 410 b 93 179 93 197 93 189 b 100 178 96 179 99 179 b 199 285 133 213 168 247 b 215 326 208 294 215 313 b 217 803 217 485 217 644 m 831 304 b 832 553 831 388 831 471 b 832 808 832 638 832 724 b 738 908 832 867 796 907 b 336 908 604 910 471 910 b 242 807 278 907 242 867 b 242 301 242 639 242 469 b 342 201 242 240 281 201 b 729 201 471 201 600 201 b 831 304 793 201 831 239 "},"":{"ha":1081,"x_min":0,"x_max":0,"o":"m 429 458 l 529 458 l 529 442 l 451 442 l 451 386 l 518 386 l 518 368 l 451 368 l 451 299 l 429 299 m 546 458 l 651 458 l 651 442 b 611 378 632 417 617 396 b 600 317 604 360 600 339 l 600 299 l 578 299 l 578 317 b 592 382 578 340 583 363 b 631 442 600 401 614 421 l 546 442 m 1011 822 b 1011 150 1011 599 1011 374 b 861 1 1011 57 954 1 b 218 1 647 1 433 1 b 69 149 128 1 71 58 b 69 488 69 261 69 375 b 69 821 69 599 69 710 b 222 972 69 917 126 972 b 860 972 435 972 647 972 b 1011 822 954 972 1011 917 m 217 803 b 349 933 217 886 265 935 b 714 935 469 935 592 933 b 772 942 733 935 753 939 b 224 949 589 949 407 949 b 93 819 139 949 93 903 b 93 206 93 615 93 410 b 93 179 93 197 93 189 b 100 178 96 179 99 179 b 199 285 133 213 168 247 b 215 326 208 294 215 313 b 217 803 217 485 217 644 m 831 304 b 832 553 831 388 831 471 b 832 808 832 638 832 724 b 738 908 832 867 796 907 b 336 908 604 910 471 910 b 242 807 278 907 242 867 b 242 301 242 639 242 469 b 342 201 242 240 281 201 b 729 201 471 201 600 201 b 831 304 793 201 831 239 "},"":{"ha":1081,"x_min":0,"x_max":0,"o":"m 431 458 l 531 458 l 531 442 l 451 442 l 451 386 l 519 386 l 519 368 l 451 368 l 451 299 l 431 299 m 621 381 b 643 365 631 378 638 372 b 651 342 647 358 651 351 b 636 307 651 326 646 315 b 600 296 626 299 615 296 b 563 307 585 296 572 299 b 547 342 553 315 547 326 b 556 365 547 351 550 358 b 578 381 560 372 568 378 b 558 394 569 383 564 389 b 550 417 553 401 550 408 b 564 449 550 431 556 442 b 599 460 574 456 585 460 b 633 449 613 460 624 456 b 646 417 642 442 646 431 b 640 394 646 408 644 401 b 621 381 635 389 628 383 m 574 417 b 582 397 574 410 576 403 b 601 390 586 393 593 390 b 618 397 608 390 614 393 b 625 417 624 403 625 410 b 618 436 625 425 622 431 b 600 443 613 442 607 443 b 581 436 592 443 586 442 b 574 417 575 431 574 425 m 621 321 b 629 343 626 326 629 333 b 621 364 629 351 626 358 b 600 372 615 369 608 372 b 578 364 592 372 583 371 b 568 343 572 358 568 351 b 578 321 568 333 572 326 b 600 313 583 315 592 313 b 621 321 608 313 615 315 m 1011 822 b 1011 150 1011 599 1013 374 b 861 1 1011 57 954 1 b 218 1 647 1 433 1 b 69 149 128 1 71 58 b 69 488 69 261 69 375 b 69 821 69 599 69 710 b 222 972 69 917 126 972 b 860 972 435 972 647 972 b 1011 822 954 972 1011 917 m 217 803 b 349 933 217 886 265 935 b 714 935 469 935 592 933 b 772 942 733 935 753 939 b 224 949 589 949 407 949 b 93 819 139 949 93 903 b 93 206 93 615 93 410 b 93 179 93 197 93 189 b 100 178 96 179 99 179 b 199 285 133 213 168 247 b 215 326 208 294 215 313 b 217 803 217 485 217 644 m 831 304 b 832 553 831 388 831 471 b 832 808 832 638 832 724 b 738 908 832 867 796 907 b 336 908 604 910 471 910 b 242 807 278 907 242 867 b 242 301 242 639 242 469 b 342 201 242 240 281 201 b 729 201 471 201 600 201 b 831 304 793 201 831 239 "},"":{"ha":1081,"x_min":0,"x_max":0,"o":"m 432 458 l 532 458 l 532 442 l 453 442 l 453 386 l 521 386 l 521 368 l 453 368 l 453 299 l 432 299 m 596 460 b 633 446 613 460 624 456 b 647 403 643 435 647 421 l 647 354 b 632 313 647 336 643 322 b 592 296 622 301 608 296 b 575 297 586 296 581 296 b 558 303 568 299 564 300 l 561 319 b 575 314 565 317 571 315 b 592 313 579 314 586 313 b 617 324 603 313 611 315 b 626 354 624 331 626 340 l 626 367 b 614 356 624 363 618 358 b 596 351 608 353 603 351 b 560 365 582 351 569 356 b 547 406 551 375 547 389 b 561 444 547 422 553 435 b 596 460 569 454 582 460 m 626 406 b 618 433 626 418 624 426 b 596 443 614 440 606 443 b 576 433 589 443 582 440 b 569 406 572 426 569 417 b 576 379 569 394 572 386 b 597 368 582 372 588 368 b 615 374 604 368 611 371 b 626 388 621 378 625 382 m 1011 822 b 1011 150 1011 599 1011 374 b 861 1 1011 57 954 1 b 218 1 647 1 433 1 b 69 149 128 1 71 58 b 69 488 69 261 69 375 b 69 821 69 599 69 710 b 222 972 69 917 126 972 b 860 972 435 972 647 972 b 1011 822 954 972 1011 917 m 217 803 b 349 933 217 886 265 935 b 714 935 469 935 592 933 b 772 942 733 935 753 939 b 224 949 589 949 407 949 b 93 819 139 949 93 903 b 93 206 93 615 93 410 b 93 179 93 197 93 189 b 100 178 96 179 99 179 b 199 285 133 213 168 247 b 215 326 208 294 215 313 b 217 803 217 485 217 644 m 831 304 b 831 553 831 388 831 471 b 831 808 831 638 832 724 b 738 908 831 867 794 907 b 336 908 603 910 469 910 b 240 807 276 907 240 867 b 240 301 240 639 240 469 b 342 201 240 240 279 201 b 729 201 471 201 599 201 b 831 304 792 201 831 239 "},"":{"ha":1082,"x_min":0,"x_max":0,"o":"m 368 458 l 468 458 l 468 442 l 390 442 l 390 386 l 457 386 l 457 368 l 390 368 l 390 299 l 368 299 m 494 454 l 550 460 l 550 299 l 529 299 l 529 439 l 494 438 m 663 460 b 700 444 678 460 690 454 b 714 401 710 433 714 419 l 714 354 b 700 313 714 336 710 322 b 664 296 692 301 679 296 b 626 313 649 296 636 301 b 613 354 617 322 613 336 l 613 401 b 626 444 613 419 617 433 b 663 460 635 454 647 460 m 692 406 b 685 432 692 417 690 425 b 663 442 679 439 672 442 b 642 432 653 442 646 439 b 633 406 636 425 633 417 l 633 349 b 642 322 633 338 636 329 b 663 313 646 315 654 313 b 685 322 672 313 679 315 b 692 350 690 329 692 339 m 1011 822 b 1011 150 1013 599 1013 374 b 861 1 1011 57 954 1 b 218 1 647 1 433 1 b 69 149 128 1 71 58 b 69 488 69 261 69 375 b 69 821 69 599 69 710 b 222 972 69 917 126 972 b 860 972 435 972 647 972 b 1011 822 954 972 1011 917 m 217 803 b 349 933 217 886 265 935 b 714 935 469 935 592 933 b 772 942 733 935 753 939 b 224 949 589 949 407 949 b 93 819 139 949 93 903 b 93 206 93 615 93 410 b 93 179 93 197 93 189 b 100 178 96 179 99 179 b 199 285 133 213 168 247 b 215 326 208 294 215 313 b 217 803 217 485 217 644 m 831 304 b 832 553 831 388 831 471 b 832 808 832 638 832 724 b 738 908 832 867 796 907 b 336 908 604 910 471 910 b 242 807 278 907 242 867 b 242 301 242 639 242 469 b 342 201 242 240 281 201 b 729 201 471 201 600 201 b 831 304 793 201 831 239 "},"":{"ha":1081,"x_min":0,"x_max":0,"o":"m 385 458 l 486 458 l 486 442 l 407 442 l 407 386 l 475 386 l 475 368 l 407 368 l 407 299 l 385 299 m 513 454 l 568 460 l 568 299 l 547 299 l 547 439 l 513 438 m 638 454 l 694 460 l 694 299 l 674 299 l 674 439 l 638 438 m 1011 822 b 1011 150 1011 599 1011 374 b 861 1 1011 57 954 1 b 218 1 647 1 433 1 b 69 149 128 1 71 58 b 69 488 69 261 69 375 b 69 821 69 599 69 710 b 222 972 69 917 126 972 b 860 972 435 972 647 972 b 1011 822 954 972 1011 917 m 217 803 b 349 933 217 886 265 935 b 714 935 469 935 592 933 b 772 942 733 935 753 939 b 224 949 589 949 407 949 b 93 819 139 949 93 903 b 93 206 93 615 93 410 b 93 179 93 197 93 189 b 100 178 96 179 99 179 b 199 285 133 213 168 247 b 215 326 208 294 215 313 b 217 803 217 485 217 644 m 831 304 b 831 553 831 388 831 471 b 831 808 831 638 832 724 b 738 908 831 867 794 907 b 336 908 603 910 469 910 b 240 807 276 907 240 867 b 240 301 240 639 240 469 b 342 201 240 240 279 201 b 729 201 471 201 599 201 b 831 304 792 201 831 239 "},"":{"ha":1082,"x_min":0,"x_max":0,"o":"m 368 458 l 467 458 l 467 442 l 389 442 l 389 386 l 457 386 l 457 368 l 389 368 l 389 299 l 368 299 m 494 454 l 550 460 l 550 299 l 528 299 l 528 439 l 494 438 m 642 315 l 715 317 l 715 299 l 617 299 l 617 314 l 667 374 b 685 400 675 385 682 393 b 689 419 688 406 689 413 b 682 436 689 426 686 432 b 664 443 678 442 672 443 b 643 435 654 443 647 440 b 635 413 638 429 635 422 l 614 413 l 614 414 b 626 446 614 426 618 438 b 664 460 636 456 647 460 b 697 449 678 460 689 456 b 710 417 706 440 710 431 b 703 393 710 410 707 401 b 682 363 699 385 692 375 m 1011 822 b 1011 150 1013 599 1013 374 b 861 1 1011 57 954 1 b 218 1 647 1 433 1 b 69 149 128 1 71 58 b 69 488 69 261 69 375 b 69 821 69 599 69 710 b 222 972 69 917 126 972 b 860 972 435 972 647 972 b 1011 822 954 972 1011 917 m 217 803 b 349 933 217 886 265 935 b 714 935 469 935 592 933 b 772 942 733 935 753 939 b 224 949 589 949 407 949 b 93 819 139 949 93 903 b 93 206 93 615 93 410 b 93 179 93 197 93 189 b 100 178 96 179 99 179 b 199 285 133 213 168 247 b 215 326 208 294 215 313 b 217 803 217 485 217 644 m 831 304 b 832 553 831 388 831 471 b 832 808 832 638 832 724 b 738 908 832 867 796 907 b 336 908 604 910 471 910 b 242 807 278 907 242 867 b 242 301 242 639 242 469 b 342 201 242 240 281 201 b 729 201 471 201 600 201 b 831 304 793 201 831 239 "}}}
